{"glyphs":{"0":{"ha":869,"x_min":85,"x_max":868,"o":"m 372 -15 q 243 15 297 -15 q 154 97 189 46 q 102 214 119 149 q 85 349 85 279 q 113 535 85 443 q 191 707 142 626 q 305 849 240 788 q 442 945 369 910 q 589 981 515 981 q 714 948 661 981 q 801 863 767 915 q 851 745 835 810 q 868 615 868 681 q 844 447 868 535 q 775 277 819 360 q 669 128 731 194 q 532 24 607 63 q 372 -15 457 -15 m 367 26 q 460 68 418 26 q 535 179 501 110 q 593 332 568 249 q 635 501 618 415 q 660 662 651 588 q 668 786 668 736 q 647 903 668 869 q 586 938 625 938 q 497 895 538 938 q 422 783 456 853 q 363 627 389 713 q 320 456 338 542 q 294 294 303 369 q 285 171 285 219 q 297 78 285 110 q 328 37 310 47 q 367 26 347 26 z "},"1":{"ha":600,"x_min":-17,"x_max":563,"o":"m 146 0 l 351 981 l 563 981 l 351 0 l 146 0 m -17 0 l -17 49 l 544 49 l 544 0 l -17 0 m 151 932 l 151 981 l 525 981 l 525 932 l 151 932 z "},"2":{"ha":792,"x_min":-8,"x_max":790,"o":"m -8 0 l 22 129 l 303 339 q 460 485 406 415 q 535 621 514 556 q 556 747 556 686 q 518 889 556 846 q 417 932 481 932 q 323 909 364 932 q 258 858 282 886 q 235 813 235 831 q 256 787 235 794 q 303 771 276 779 q 350 743 329 763 q 371 683 371 724 q 340 610 371 636 q 269 583 310 583 q 219 594 249 583 q 165 633 189 604 q 142 715 142 661 q 176 836 142 775 q 281 939 210 897 q 465 981 353 981 q 631 950 557 981 q 747 864 704 919 q 790 732 790 808 q 742 588 790 664 q 560 425 693 511 l 194 188 l 194 182 l 582 182 q 621 190 606 182 q 647 223 636 197 q 669 303 658 249 l 714 303 l 636 0 l -8 0 z "},"3":{"ha":785,"x_min":25,"x_max":747,"o":"m 293 -18 q 139 7 199 -18 q 52 72 79 32 q 25 158 25 113 q 48 236 25 203 q 118 269 71 269 q 180 247 154 269 q 206 189 206 225 q 192 148 206 163 q 163 125 179 133 q 133 109 146 117 q 119 88 119 101 q 144 55 119 69 q 204 32 168 40 q 274 24 240 24 q 355 40 317 24 q 422 89 393 56 q 468 176 451 122 q 485 306 485 229 q 451 452 485 407 q 340 497 418 497 q 306 494 317 497 q 288 488 296 490 q 267 485 281 485 q 233 495 243 485 q 222 519 222 506 q 234 547 222 538 q 260 557 246 557 q 294 553 271 557 q 340 549 317 549 q 433 576 393 549 q 499 647 472 604 q 538 740 525 690 q 551 831 551 789 q 521 922 551 897 q 436 946 490 946 q 356 930 385 946 q 328 889 328 914 q 340 861 328 871 q 365 840 353 851 q 376 801 376 828 q 352 744 376 768 q 290 719 328 719 q 233 740 260 719 q 206 807 206 761 q 242 899 206 858 q 341 963 278 939 q 482 988 404 988 q 628 960 569 988 q 717 886 688 932 q 747 786 747 840 q 675 636 747 704 q 464 529 603 568 l 464 522 q 584 492 526 522 q 678 408 642 461 q 715 285 715 354 q 684 168 715 222 q 596 72 653 114 q 462 6 539 29 q 293 -18 385 -18 z "},"4":{"ha":794,"x_min":19,"x_max":793,"o":"m 43 276 l 19 311 l 639 981 l 663 946 l 482 746 l 476 746 l 81 311 l 81 306 l 43 276 m 228 0 l 228 42 l 651 42 l 651 0 l 228 0 m 19 265 l 19 311 l 740 311 l 740 265 l 19 265 m 689 150 l 751 401 l 793 401 l 731 150 l 689 150 m 325 0 l 496 813 l 639 981 l 742 981 l 531 0 l 325 0 z "},"5":{"ha":835,"x_min":46,"x_max":853,"o":"m 315 -15 q 156 15 215 -15 q 72 88 97 44 q 46 174 46 132 q 58 236 46 206 q 96 287 71 267 q 157 307 121 307 q 226 281 197 307 q 256 211 256 256 q 244 163 256 182 q 217 132 232 144 q 190 110 201 119 q 178 90 178 101 q 210 49 178 74 q 299 25 243 25 q 406 61 363 25 q 474 151 449 97 q 511 264 500 206 q 522 365 522 322 q 501 469 522 432 q 442 520 479 506 q 360 535 406 535 q 272 524 318 535 q 181 494 225 514 l 156 522 l 286 981 l 663 981 q 737 985 711 981 q 778 1003 763 989 q 811 1047 793 1017 l 853 1047 l 742 799 l 288 799 l 221 571 l 226 565 q 319 588 278 581 q 406 594 361 594 q 594 561 514 594 q 717 470 674 528 q 760 336 760 413 q 727 208 760 271 q 635 95 694 146 q 495 15 576 44 q 315 -15 414 -15 z "},"6":{"ha":854,"x_min":76,"x_max":840,"o":"m 390 -18 q 223 24 293 -18 q 115 141 153 65 q 76 317 76 217 q 123 535 76 431 q 248 728 169 640 q 426 880 326 815 q 632 980 525 944 q 840 1015 739 1015 l 840 967 q 669 920 747 957 q 529 828 590 883 q 428 709 468 774 q 372 579 388 644 l 376 575 q 463 626 422 611 q 551 642 504 642 q 695 605 633 642 q 792 506 757 568 q 828 371 828 444 q 793 229 828 299 q 698 103 758 160 q 558 15 638 47 q 390 -18 479 -18 m 383 24 q 474 57 436 24 q 537 144 511 90 q 578 259 563 197 q 599 378 593 321 q 606 475 606 435 q 591 560 606 526 q 524 593 576 593 q 438 567 482 593 q 350 489 394 542 q 325 407 338 458 q 303 294 313 356 q 294 171 294 233 q 313 61 294 99 q 383 24 331 24 z "},"7":{"ha":725,"x_min":106,"x_max":858,"o":"m 313 -14 q 229 14 261 -14 q 197 107 197 42 q 204 151 197 129 q 233 209 211 174 q 300 305 256 244 q 419 464 344 365 l 671 794 l 671 800 l 314 800 q 249 792 276 800 q 202 762 222 785 q 161 692 182 739 l 106 692 l 246 981 l 858 981 l 854 932 l 544 525 q 475 416 497 464 q 446 331 453 368 q 439 267 439 294 q 447 189 439 219 q 454 125 454 158 q 416 24 454 61 q 313 -14 378 -14 z "},"8":{"ha":875,"x_min":53,"x_max":872,"o":"m 390 -18 q 214 14 290 -18 q 95 100 138 46 q 53 221 53 154 q 85 333 53 281 q 174 427 117 386 q 306 491 231 468 q 465 514 381 514 q 646 481 569 514 q 764 392 722 447 q 806 274 806 338 q 774 166 806 218 q 687 72 743 114 q 555 6 631 31 q 390 -18 479 -18 m 386 31 q 483 60 444 31 q 545 137 522 90 q 578 234 568 183 q 588 326 588 285 q 561 439 588 400 q 483 478 535 478 q 380 435 428 478 q 303 324 332 393 q 274 175 274 256 q 303 65 274 99 q 386 31 332 31 m 575 501 l 389 508 l 389 514 q 244 595 297 538 q 190 722 190 653 q 222 824 190 776 q 308 909 254 872 q 433 967 363 946 q 578 988 503 988 q 735 958 669 988 q 837 881 801 929 q 872 776 872 833 q 834 661 872 718 q 729 563 796 604 q 575 507 663 521 l 575 501 m 489 533 q 576 568 542 533 q 631 653 611 603 q 660 756 651 704 q 668 842 668 807 q 646 928 668 906 q 588 951 624 951 q 506 922 540 951 q 449 847 471 893 q 416 748 426 800 q 406 651 406 696 q 426 562 406 590 q 489 533 446 533 z "},"9":{"ha":854,"x_min":122,"x_max":886,"o":"m 122 -18 l 122 31 q 294 77 215 40 q 433 169 372 114 q 535 288 494 224 q 590 418 575 353 l 586 422 q 499 371 540 386 q 411 356 458 356 q 268 392 331 356 q 170 491 206 429 q 135 626 135 553 q 169 769 135 700 q 265 894 204 838 q 405 983 326 950 q 572 1015 483 1015 q 740 974 669 1015 q 848 857 810 932 q 886 681 886 782 q 840 462 886 567 q 715 269 793 357 q 537 117 636 182 q 331 17 438 53 q 122 -18 224 -18 m 439 404 q 524 430 481 404 q 613 508 568 456 q 638 590 625 539 q 660 703 651 642 q 668 826 668 765 q 650 936 668 899 q 579 974 632 974 q 489 940 526 974 q 426 853 451 907 q 385 738 400 800 q 363 619 369 676 q 357 522 357 563 q 372 438 357 471 q 439 404 388 404 z "},"A":{"ha":863,"x_min":-92,"x_max":790,"o":"m -28 28 l 697 1067 l 535 765 l 31 28 l -28 28 m -92 0 l -92 42 l 172 42 l 172 0 l -92 0 m 347 0 l 347 42 l 790 42 l 790 0 l 347 0 m 203 294 l 203 340 l 576 340 l 576 294 l 203 294 m 468 14 l 536 760 l 531 760 l 686 1067 l 757 1067 l 681 14 l 468 14 z "},"Á":{"ha":863,"x_min":-92,"x_max":992,"o":"m -28 28 l 697 1067 l 535 765 l 31 28 l -28 28 m -92 0 l -92 42 l 172 42 l 172 0 l -92 0 m 347 0 l 347 42 l 790 42 l 790 0 l 347 0 m 203 294 l 203 340 l 576 340 l 576 294 l 203 294 m 468 14 l 536 760 l 531 760 l 686 1067 l 757 1067 l 681 14 l 468 14 m 547 1174 l 792 1325 q 857 1359 832 1349 q 911 1369 882 1369 q 971 1349 950 1369 q 992 1301 992 1328 q 974 1257 992 1279 q 918 1228 957 1235 l 643 1174 l 547 1174 z "},"Ă":{"ha":863,"x_min":-92,"x_max":978,"o":"m -28 28 l 697 1067 l 535 765 l 31 28 l -28 28 m -92 0 l -92 42 l 172 42 l 172 0 l -92 0 m 347 0 l 347 42 l 790 42 l 790 0 l 347 0 m 203 294 l 203 340 l 576 340 l 576 294 l 203 294 m 468 14 l 536 760 l 531 760 l 686 1067 l 757 1067 l 681 14 l 468 14 m 732 1174 q 594 1218 642 1174 q 569 1360 547 1263 l 624 1360 q 634 1308 615 1326 q 686 1284 653 1290 q 753 1278 719 1278 q 826 1284 790 1278 q 890 1308 863 1290 q 924 1360 917 1326 l 978 1360 q 890 1219 960 1265 q 732 1174 819 1174 z "},"Ắ":{"ha":863,"x_min":-92,"x_max":1136,"o":"m -28 28 l 697 1067 l 535 765 l 31 28 l -28 28 m -92 0 l -92 42 l 172 42 l 172 0 l -92 0 m 347 0 l 347 42 l 790 42 l 790 0 l 347 0 m 203 294 l 203 340 l 576 340 l 576 294 l 203 294 m 468 14 l 536 760 l 531 760 l 686 1067 l 757 1067 l 681 14 l 468 14 m 750 1157 q 613 1201 660 1157 q 588 1343 565 1246 l 642 1343 q 652 1292 633 1310 q 704 1267 671 1274 q 771 1261 738 1261 q 844 1267 808 1261 q 908 1292 881 1274 q 942 1343 935 1310 l 996 1343 q 908 1203 978 1249 q 750 1157 838 1157 m 692 1401 l 936 1553 q 1001 1587 976 1576 q 1056 1597 1026 1597 q 1115 1576 1094 1597 q 1136 1529 1136 1556 q 1119 1485 1136 1507 q 1063 1456 1101 1463 l 788 1401 l 692 1401 z "},"Ặ":{"ha":863,"x_min":-92,"x_max":978,"o":"m -28 28 l 697 1067 l 535 765 l 31 28 l -28 28 m -92 0 l -92 42 l 172 42 l 172 0 l -92 0 m 347 0 l 347 42 l 790 42 l 790 0 l 347 0 m 203 294 l 203 340 l 576 340 l 576 294 l 203 294 m 468 14 l 536 760 l 531 760 l 686 1067 l 757 1067 l 681 14 l 468 14 m 310 -324 q 232 -290 265 -324 q 199 -212 199 -257 q 232 -133 199 -167 q 310 -100 265 -100 q 389 -133 356 -100 q 422 -212 422 -167 q 389 -290 422 -257 q 310 -324 356 -324 m 732 1174 q 594 1218 642 1174 q 569 1360 547 1263 l 624 1360 q 634 1308 615 1326 q 686 1284 653 1290 q 753 1278 719 1278 q 826 1284 790 1278 q 890 1308 863 1290 q 924 1360 917 1326 l 978 1360 q 890 1219 960 1265 q 732 1174 819 1174 z "},"Ằ":{"ha":863,"x_min":-92,"x_max":979,"o":"m -28 28 l 697 1067 l 535 765 l 31 28 l -28 28 m -92 0 l -92 42 l 172 42 l 172 0 l -92 0 m 347 0 l 347 42 l 790 42 l 790 0 l 347 0 m 203 294 l 203 340 l 576 340 l 576 294 l 203 294 m 468 14 l 536 760 l 531 760 l 686 1067 l 757 1067 l 681 14 l 468 14 m 733 1157 q 596 1201 643 1157 q 571 1343 549 1246 l 625 1343 q 635 1292 617 1310 q 688 1267 654 1274 q 754 1261 721 1261 q 828 1267 792 1261 q 891 1292 864 1274 q 925 1343 918 1310 l 979 1343 q 891 1203 961 1249 q 733 1157 821 1157 m 829 1397 l 554 1451 q 498 1481 515 1458 q 481 1525 481 1503 q 501 1572 481 1551 q 561 1593 522 1593 q 616 1583 590 1593 q 681 1549 642 1572 l 925 1397 l 829 1397 z "},"Ẳ":{"ha":863,"x_min":-92,"x_max":1007,"o":"m -28 28 l 697 1067 l 535 765 l 31 28 l -28 28 m -92 0 l -92 42 l 172 42 l 172 0 l -92 0 m 347 0 l 347 42 l 790 42 l 790 0 l 347 0 m 203 294 l 203 340 l 576 340 l 576 294 l 203 294 m 468 14 l 536 760 l 531 760 l 686 1067 l 757 1067 l 681 14 l 468 14 m 761 1157 q 624 1201 671 1157 q 599 1343 576 1246 l 653 1343 q 663 1292 644 1310 q 715 1267 682 1274 q 782 1261 749 1261 q 856 1267 819 1261 q 919 1292 892 1274 q 953 1343 946 1310 l 1007 1343 q 919 1203 989 1249 q 761 1157 849 1157 m 776 1353 q 808 1426 786 1401 q 851 1464 831 1450 q 875 1494 872 1478 q 868 1544 882 1528 q 824 1561 854 1561 q 775 1547 794 1561 q 753 1517 756 1532 q 757 1496 751 1500 q 768 1486 763 1492 q 771 1461 774 1481 q 748 1433 768 1442 q 710 1425 728 1425 q 671 1444 685 1425 q 663 1493 657 1463 q 725 1591 676 1561 q 836 1621 774 1621 q 943 1588 913 1621 q 958 1482 974 1556 q 934 1435 953 1450 q 893 1411 915 1419 q 853 1391 871 1403 q 831 1353 836 1379 l 776 1353 z "},"Ẵ":{"ha":863,"x_min":-92,"x_max":1107,"o":"m -28 28 l 697 1067 l 535 765 l 31 28 l -28 28 m -92 0 l -92 42 l 172 42 l 172 0 l -92 0 m 347 0 l 347 42 l 790 42 l 790 0 l 347 0 m 203 294 l 203 340 l 576 340 l 576 294 l 203 294 m 468 14 l 536 760 l 531 760 l 686 1067 l 757 1067 l 681 14 l 468 14 m 746 1157 q 608 1201 656 1157 q 583 1343 561 1246 l 638 1343 q 648 1292 629 1310 q 700 1267 667 1274 q 767 1261 733 1261 q 840 1267 804 1261 q 903 1292 876 1274 q 938 1343 931 1310 l 992 1343 q 903 1203 974 1249 q 746 1157 833 1157 m 565 1399 q 607 1489 581 1447 q 673 1557 633 1531 q 764 1583 713 1583 q 835 1568 808 1583 q 885 1538 861 1553 q 944 1522 910 1522 q 1017 1544 988 1522 q 1057 1585 1047 1567 l 1107 1585 q 1028 1451 1078 1501 q 906 1400 979 1400 q 835 1415 863 1400 q 784 1446 808 1431 q 722 1461 760 1461 q 655 1443 685 1461 q 613 1399 625 1425 l 565 1399 z "},"Â":{"ha":863,"x_min":-92,"x_max":983,"o":"m -28 28 l 697 1067 l 535 765 l 31 28 l -28 28 m -92 0 l -92 42 l 172 42 l 172 0 l -92 0 m 347 0 l 347 42 l 790 42 l 790 0 l 347 0 m 203 294 l 203 340 l 576 340 l 576 294 l 203 294 m 468 14 l 536 760 l 531 760 l 686 1067 l 757 1067 l 681 14 l 468 14 m 488 1172 l 735 1356 l 813 1356 l 983 1172 l 918 1172 l 749 1235 l 551 1172 l 488 1172 z "},"Ấ":{"ha":863,"x_min":-92,"x_max":996,"o":"m -28 28 l 697 1067 l 535 765 l 31 28 l -28 28 m -92 0 l -92 42 l 172 42 l 172 0 l -92 0 m 347 0 l 347 42 l 790 42 l 790 0 l 347 0 m 203 294 l 203 340 l 576 340 l 576 294 l 203 294 m 468 14 l 536 760 l 531 760 l 686 1067 l 757 1067 l 681 14 l 468 14 m 497 1157 l 717 1313 l 794 1313 l 965 1157 l 900 1157 l 744 1219 l 561 1157 l 497 1157 m 551 1358 l 796 1510 q 861 1544 836 1533 q 915 1554 886 1554 q 975 1533 954 1554 q 996 1486 996 1513 q 978 1442 996 1464 q 922 1413 961 1419 l 647 1358 l 551 1358 z "},"Ậ":{"ha":863,"x_min":-92,"x_max":983,"o":"m -28 28 l 697 1067 l 535 765 l 31 28 l -28 28 m -92 0 l -92 42 l 172 42 l 172 0 l -92 0 m 347 0 l 347 42 l 790 42 l 790 0 l 347 0 m 203 294 l 203 340 l 576 340 l 576 294 l 203 294 m 468 14 l 536 760 l 531 760 l 686 1067 l 757 1067 l 681 14 l 468 14 m 310 -324 q 232 -290 265 -324 q 199 -212 199 -257 q 232 -133 199 -167 q 310 -100 265 -100 q 389 -133 356 -100 q 422 -212 422 -167 q 389 -290 422 -257 q 310 -324 356 -324 m 488 1172 l 735 1356 l 813 1356 l 983 1172 l 918 1172 l 749 1235 l 551 1172 l 488 1172 z "},"Ầ":{"ha":863,"x_min":-92,"x_max":1031,"o":"m -28 28 l 697 1067 l 535 765 l 31 28 l -28 28 m -92 0 l -92 42 l 172 42 l 172 0 l -92 0 m 347 0 l 347 42 l 790 42 l 790 0 l 347 0 m 203 294 l 203 340 l 576 340 l 576 294 l 203 294 m 468 14 l 536 760 l 531 760 l 686 1067 l 757 1067 l 681 14 l 468 14 m 503 1157 l 722 1313 l 800 1313 l 971 1157 l 906 1157 l 750 1219 l 567 1157 l 503 1157 m 935 1350 l 660 1404 q 603 1433 621 1411 q 586 1478 586 1456 q 607 1525 586 1504 q 667 1546 628 1546 q 722 1535 696 1546 q 786 1501 747 1525 l 1031 1350 l 935 1350 z "},"Ẩ":{"ha":863,"x_min":-92,"x_max":1113,"o":"m -28 28 l 697 1067 l 535 765 l 31 28 l -28 28 m -92 0 l -92 42 l 172 42 l 172 0 l -92 0 m 347 0 l 347 42 l 790 42 l 790 0 l 347 0 m 203 294 l 203 340 l 576 340 l 576 294 l 203 294 m 468 14 l 536 760 l 531 760 l 686 1067 l 757 1067 l 681 14 l 468 14 m 499 1157 l 718 1313 l 796 1313 l 967 1157 l 901 1157 l 746 1219 l 563 1157 l 499 1157 m 915 1290 q 947 1363 925 1339 q 990 1401 969 1388 q 1014 1432 1011 1415 q 1007 1482 1021 1465 q 963 1499 993 1499 q 914 1484 933 1499 q 892 1454 894 1469 q 896 1433 890 1438 q 907 1424 901 1429 q 910 1399 913 1418 q 887 1371 907 1379 q 849 1363 867 1363 q 810 1381 824 1363 q 801 1431 796 1400 q 864 1528 815 1499 q 975 1558 913 1558 q 1082 1526 1051 1558 q 1097 1419 1113 1493 q 1073 1372 1092 1388 q 1032 1349 1054 1357 q 992 1328 1010 1340 q 969 1290 975 1317 l 915 1290 z "},"Ẫ":{"ha":863,"x_min":-92,"x_max":1078,"o":"m -28 28 l 697 1067 l 535 765 l 31 28 l -28 28 m -92 0 l -92 42 l 172 42 l 172 0 l -92 0 m 347 0 l 347 42 l 790 42 l 790 0 l 347 0 m 203 294 l 203 340 l 576 340 l 576 294 l 203 294 m 468 14 l 536 760 l 531 760 l 686 1067 l 757 1067 l 681 14 l 468 14 m 494 1157 l 714 1313 l 792 1313 l 963 1157 l 897 1157 l 742 1219 l 558 1157 l 494 1157 m 536 1340 q 578 1431 551 1389 q 644 1499 604 1472 q 735 1525 683 1525 q 806 1510 779 1525 q 856 1479 832 1494 q 915 1464 881 1464 q 988 1486 958 1464 q 1028 1526 1018 1508 l 1078 1526 q 999 1392 1049 1443 q 876 1342 950 1342 q 806 1357 833 1342 q 755 1388 779 1372 q 693 1403 731 1403 q 626 1385 656 1403 q 583 1340 596 1367 l 536 1340 z "},"Ȁ":{"ha":863,"x_min":-92,"x_max":1032,"o":"m -28 28 l 697 1067 l 535 765 l 31 28 l -28 28 m -92 0 l -92 42 l 172 42 l 172 0 l -92 0 m 347 0 l 347 42 l 790 42 l 790 0 l 347 0 m 203 294 l 203 340 l 576 340 l 576 294 l 203 294 m 468 14 l 536 760 l 531 760 l 686 1067 l 757 1067 l 681 14 l 468 14 m 944 1172 l 735 1222 q 683 1250 700 1231 q 667 1290 667 1269 q 685 1333 667 1314 q 739 1353 704 1353 q 792 1345 767 1353 q 850 1313 817 1338 l 1032 1172 l 944 1172 m 624 1172 l 414 1222 q 363 1250 379 1231 q 346 1290 346 1269 q 365 1333 346 1314 q 418 1353 383 1353 q 471 1345 446 1353 q 529 1313 496 1338 l 711 1172 l 624 1172 z "},"Ä":{"ha":863,"x_min":-92,"x_max":997,"o":"m -28 28 l 697 1067 l 535 765 l 31 28 l -28 28 m -92 0 l -92 42 l 172 42 l 172 0 l -92 0 m 347 0 l 347 42 l 790 42 l 790 0 l 347 0 m 203 294 l 203 340 l 576 340 l 576 294 l 203 294 m 468 14 l 536 760 l 531 760 l 686 1067 l 757 1067 l 681 14 l 468 14 m 896 1203 q 825 1232 856 1203 q 794 1303 794 1261 q 825 1374 794 1344 q 896 1403 856 1403 q 968 1374 939 1403 q 997 1303 997 1344 q 968 1232 997 1261 q 896 1203 939 1203 m 604 1203 q 532 1232 561 1203 q 503 1303 503 1261 q 532 1374 503 1344 q 604 1403 561 1403 q 675 1374 644 1403 q 706 1303 706 1344 q 675 1232 706 1261 q 604 1203 644 1203 z "},"Ạ":{"ha":863,"x_min":-92,"x_max":790,"o":"m -28 28 l 697 1067 l 535 765 l 31 28 l -28 28 m -92 0 l -92 42 l 172 42 l 172 0 l -92 0 m 347 0 l 347 42 l 790 42 l 790 0 l 347 0 m 203 294 l 203 340 l 576 340 l 576 294 l 203 294 m 468 14 l 536 760 l 531 760 l 686 1067 l 757 1067 l 681 14 l 468 14 m 310 -324 q 232 -290 265 -324 q 199 -212 199 -257 q 232 -133 199 -167 q 310 -100 265 -100 q 389 -133 356 -100 q 422 -212 422 -167 q 389 -290 422 -257 q 310 -324 356 -324 z "},"À":{"ha":863,"x_min":-92,"x_max":964,"o":"m -28 28 l 697 1067 l 535 765 l 31 28 l -28 28 m -92 0 l -92 42 l 172 42 l 172 0 l -92 0 m 347 0 l 347 42 l 790 42 l 790 0 l 347 0 m 203 294 l 203 340 l 576 340 l 576 294 l 203 294 m 468 14 l 536 760 l 531 760 l 686 1067 l 757 1067 l 681 14 l 468 14 m 868 1172 l 593 1226 q 537 1256 554 1233 q 519 1300 519 1278 q 540 1347 519 1326 q 600 1368 561 1368 q 655 1358 629 1368 q 719 1324 681 1347 l 964 1172 l 868 1172 z "},"Ả":{"ha":863,"x_min":-92,"x_max":913,"o":"m -28 28 l 697 1067 l 535 765 l 31 28 l -28 28 m -92 0 l -92 42 l 172 42 l 172 0 l -92 0 m 347 0 l 347 42 l 790 42 l 790 0 l 347 0 m 203 294 l 203 340 l 576 340 l 576 294 l 203 294 m 468 14 l 536 760 l 531 760 l 686 1067 l 757 1067 l 681 14 l 468 14 m 731 1143 q 753 1201 738 1179 q 787 1239 769 1224 q 817 1267 804 1254 q 829 1299 829 1281 q 819 1337 829 1322 q 778 1351 808 1351 q 729 1337 749 1351 q 707 1307 710 1322 q 711 1286 706 1290 q 722 1276 717 1282 q 725 1251 728 1271 q 702 1224 722 1232 q 664 1215 682 1215 q 628 1232 639 1215 q 617 1274 617 1249 q 643 1353 617 1324 q 709 1397 669 1383 q 790 1411 749 1411 q 886 1383 860 1411 q 913 1307 913 1356 q 895 1252 913 1272 q 854 1217 878 1232 q 810 1185 831 1201 q 785 1143 790 1169 l 731 1143 z "},"Ȃ":{"ha":863,"x_min":-92,"x_max":949,"o":"m -28 28 l 697 1067 l 535 765 l 31 28 l -28 28 m -92 0 l -92 42 l 172 42 l 172 0 l -92 0 m 347 0 l 347 42 l 790 42 l 790 0 l 347 0 m 203 294 l 203 340 l 576 340 l 576 294 l 203 294 m 468 14 l 536 760 l 531 760 l 686 1067 l 757 1067 l 681 14 l 468 14 m 532 1172 q 616 1319 551 1267 q 778 1372 681 1372 q 903 1340 857 1372 q 949 1233 949 1307 q 940 1172 949 1208 l 886 1172 q 858 1245 899 1222 q 757 1268 818 1268 q 644 1245 692 1268 q 586 1172 597 1222 l 532 1172 z "},"Ā":{"ha":863,"x_min":-92,"x_max":1028,"o":"m -28 28 l 697 1067 l 535 765 l 31 28 l -28 28 m -92 0 l -92 42 l 172 42 l 172 0 l -92 0 m 347 0 l 347 42 l 790 42 l 790 0 l 347 0 m 203 294 l 203 340 l 576 340 l 576 294 l 203 294 m 468 14 l 536 760 l 531 760 l 686 1067 l 757 1067 l 681 14 l 468 14 m 529 1210 l 556 1329 l 1028 1329 l 1001 1210 l 529 1210 z "},"Ą":{"ha":863,"x_min":-92,"x_max":790,"o":"m -28 28 l 697 1067 l 535 765 l 31 28 l -28 28 m -92 0 l -92 42 l 172 42 l 172 0 l -92 0 m 347 0 l 347 42 l 790 42 l 790 0 l 347 0 m 203 294 l 203 340 l 576 340 l 576 294 l 203 294 m 468 14 l 536 760 l 531 760 l 686 1067 l 757 1067 l 681 14 l 468 14 m 497 -329 q 406 -303 439 -329 q 374 -233 374 -278 q 436 -115 374 -174 q 638 17 499 -56 l 701 17 q 558 -86 613 -31 q 503 -189 503 -142 q 522 -230 503 -215 q 571 -244 540 -244 q 616 -237 590 -244 q 676 -215 642 -231 l 697 -258 q 610 -308 668 -287 q 497 -329 551 -329 z "},"Å":{"ha":863,"x_min":-92,"x_max":847,"o":"m -28 28 l 697 1067 l 535 765 l 31 28 l -28 28 m -92 0 l -92 42 l 172 42 l 172 0 l -92 0 m 347 0 l 347 42 l 790 42 l 790 0 l 347 0 m 203 294 l 203 340 l 576 340 l 576 294 l 203 294 m 468 14 l 536 760 l 531 760 l 686 1067 l 757 1067 l 681 14 l 468 14 m 749 1181 q 676 1207 703 1181 q 650 1279 650 1233 q 676 1351 650 1325 q 749 1376 703 1376 q 821 1351 794 1376 q 847 1279 847 1325 q 821 1207 847 1233 q 749 1181 794 1181 m 749 1222 q 786 1238 774 1222 q 799 1279 799 1254 q 786 1319 799 1304 q 749 1333 774 1333 q 711 1319 724 1333 q 699 1279 699 1304 q 711 1238 699 1254 q 749 1222 724 1222 z "},"Ǻ":{"ha":863,"x_min":-92,"x_max":1197,"o":"m -28 28 l 697 1067 l 535 765 l 31 28 l -28 28 m -92 0 l -92 42 l 172 42 l 172 0 l -92 0 m 347 0 l 347 42 l 790 42 l 790 0 l 347 0 m 203 294 l 203 340 l 576 340 l 576 294 l 203 294 m 468 14 l 536 760 l 531 760 l 686 1067 l 757 1067 l 681 14 l 468 14 m 718 1003 q 646 1029 672 1003 q 619 1101 619 1056 q 646 1173 619 1147 q 718 1199 672 1199 q 790 1173 764 1199 q 817 1101 817 1147 q 790 1029 817 1056 q 718 1003 764 1003 m 718 1044 q 756 1060 743 1044 q 768 1101 768 1076 q 756 1141 768 1126 q 718 1156 743 1156 q 681 1141 693 1156 q 668 1101 668 1126 q 681 1060 668 1076 q 718 1044 693 1044 m 753 1143 l 997 1294 q 1063 1328 1038 1318 q 1117 1339 1088 1339 q 1176 1318 1156 1339 q 1197 1271 1197 1297 q 1180 1226 1197 1249 q 1124 1197 1163 1204 l 849 1143 l 753 1143 z "},"Ã":{"ha":863,"x_min":-92,"x_max":1042,"o":"m -28 28 l 697 1067 l 535 765 l 31 28 l -28 28 m -92 0 l -92 42 l 172 42 l 172 0 l -92 0 m 347 0 l 347 42 l 790 42 l 790 0 l 347 0 m 203 294 l 203 340 l 576 340 l 576 294 l 203 294 m 468 14 l 536 760 l 531 760 l 686 1067 l 757 1067 l 681 14 l 468 14 m 500 1172 q 542 1263 515 1221 q 608 1331 568 1304 q 699 1357 647 1357 q 769 1342 743 1357 q 820 1311 796 1326 q 879 1296 844 1296 q 952 1318 922 1296 q 992 1358 982 1340 l 1042 1358 q 963 1224 1013 1275 q 840 1174 914 1174 q 770 1189 797 1174 q 719 1219 743 1204 q 657 1235 694 1235 q 590 1217 619 1235 q 547 1172 560 1199 l 500 1172 z "},"Æ":{"ha":1386,"x_min":-142,"x_max":1435,"o":"m -78 28 l 701 1029 l 753 1019 l -19 28 l -78 28 m -142 0 l -142 42 l 122 42 l 122 0 l -142 0 m 181 294 l 181 340 l 610 340 l 610 294 l 181 294 m 410 0 l 410 42 l 969 42 q 1083 65 1032 42 q 1183 148 1135 88 q 1285 322 1232 208 l 1340 322 l 1257 0 l 410 0 m 538 0 l 765 1047 l 975 1047 l 742 0 l 538 0 m 1044 315 q 1028 444 1044 400 q 981 503 1011 488 q 908 519 950 519 l 788 519 l 788 561 l 931 561 q 1015 579 978 561 q 1083 638 1053 597 q 1133 743 1113 678 l 1182 743 l 1092 315 l 1044 315 m 1329 761 q 1309 911 1329 858 q 1240 985 1289 964 q 1106 1006 1192 1006 l 550 1006 l 550 1047 l 1435 1047 l 1385 761 l 1329 761 z "},"Ǽ":{"ha":1386,"x_min":-142,"x_max":1435,"o":"m -78 28 l 701 1029 l 753 1019 l -19 28 l -78 28 m -142 0 l -142 42 l 122 42 l 122 0 l -142 0 m 181 294 l 181 340 l 610 340 l 610 294 l 181 294 m 410 0 l 410 42 l 969 42 q 1083 65 1032 42 q 1183 148 1135 88 q 1285 322 1232 208 l 1340 322 l 1257 0 l 410 0 m 538 0 l 765 1047 l 975 1047 l 742 0 l 538 0 m 1044 315 q 1028 444 1044 400 q 981 503 1011 488 q 908 519 950 519 l 788 519 l 788 561 l 931 561 q 1015 579 978 561 q 1083 638 1053 597 q 1133 743 1113 678 l 1182 743 l 1092 315 l 1044 315 m 1329 761 q 1309 911 1329 858 q 1240 985 1289 964 q 1106 1006 1192 1006 l 550 1006 l 550 1047 l 1435 1047 l 1385 761 l 1329 761 m 860 1132 l 1104 1283 q 1169 1317 1144 1307 q 1224 1328 1194 1328 q 1283 1307 1263 1328 q 1304 1260 1304 1286 q 1287 1215 1304 1238 q 1231 1186 1269 1193 l 956 1132 l 860 1132 z "},"B":{"ha":964,"x_min":-39,"x_max":950,"o":"m -39 0 l -39 43 l 404 43 q 535 77 479 43 q 623 181 592 111 q 654 356 654 250 q 629 480 654 433 q 526 526 604 526 l 275 526 l 275 568 l 543 568 q 606 560 576 568 q 674 540 635 553 q 801 492 753 522 q 872 416 850 461 q 894 311 894 371 q 842 143 894 213 q 704 37 790 74 q 514 0 618 0 l -39 0 m 71 0 l 299 1047 l 508 1047 l 275 0 l 71 0 m 232 526 l 232 568 l 499 568 q 619 603 569 568 q 694 703 668 639 q 719 854 719 767 q 692 969 719 932 q 582 1006 664 1006 l 153 1006 l 153 1047 l 599 1047 q 866 981 782 1047 q 950 811 950 915 q 893 658 950 722 q 727 560 836 594 q 460 526 618 526 l 232 526 z "},"C":{"ha":946,"x_min":89,"x_max":1000,"o":"m 478 -18 q 265 40 351 -18 q 133 192 178 97 q 89 393 89 286 q 123 587 89 490 q 217 769 157 683 q 356 920 278 854 q 520 1024 433 986 q 696 1063 607 1063 q 801 1044 754 1063 q 890 982 847 1025 l 951 1047 l 1000 1047 l 935 724 l 893 724 q 865 881 893 815 q 791 981 838 946 q 688 1015 744 1015 q 581 980 629 1015 q 492 883 532 944 q 424 746 453 822 q 374 586 394 669 q 344 424 354 503 q 335 278 335 344 q 376 87 335 140 q 496 33 418 33 q 601 54 543 33 q 724 130 660 75 q 850 286 789 185 l 892 286 l 818 0 l 776 0 l 735 47 q 615 1 678 21 q 478 -18 551 -18 z "},"Ć":{"ha":946,"x_min":89,"x_max":1000,"o":"m 478 -18 q 265 40 351 -18 q 133 192 178 97 q 89 393 89 286 q 123 587 89 490 q 217 769 157 683 q 356 920 278 854 q 520 1024 433 986 q 696 1063 607 1063 q 801 1044 754 1063 q 890 982 847 1025 l 951 1047 l 1000 1047 l 935 724 l 893 724 q 865 881 893 815 q 791 981 838 946 q 688 1015 744 1015 q 581 980 629 1015 q 492 883 532 944 q 424 746 453 822 q 374 586 394 669 q 344 424 354 503 q 335 278 335 344 q 376 87 335 140 q 496 33 418 33 q 601 54 543 33 q 724 130 660 75 q 850 286 789 185 l 892 286 l 818 0 l 776 0 l 735 47 q 615 1 678 21 q 478 -18 551 -18 m 543 1174 l 788 1325 q 853 1359 828 1349 q 907 1369 878 1369 q 967 1349 946 1369 q 988 1301 988 1328 q 970 1257 988 1279 q 914 1228 953 1235 l 639 1174 l 543 1174 z "},"Č":{"ha":946,"x_min":89,"x_max":1015,"o":"m 478 -18 q 265 40 351 -18 q 133 192 178 97 q 89 393 89 286 q 123 587 89 490 q 217 769 157 683 q 356 920 278 854 q 520 1024 433 986 q 696 1063 607 1063 q 801 1044 754 1063 q 890 982 847 1025 l 951 1047 l 1000 1047 l 935 724 l 893 724 q 865 881 893 815 q 791 981 838 946 q 688 1015 744 1015 q 581 980 629 1015 q 492 883 532 944 q 424 746 453 822 q 374 586 394 669 q 344 424 354 503 q 335 278 335 344 q 376 87 335 140 q 496 33 418 33 q 601 54 543 33 q 724 130 660 75 q 850 286 789 185 l 892 286 l 818 0 l 776 0 l 735 47 q 615 1 678 21 q 478 -18 551 -18 m 690 1172 l 519 1356 l 585 1356 l 754 1293 l 951 1356 l 1015 1356 l 768 1172 l 690 1172 z "},"Ç":{"ha":946,"x_min":89,"x_max":1000,"o":"m 478 -18 q 265 40 351 -18 q 133 192 178 97 q 89 393 89 286 q 123 587 89 490 q 217 769 157 683 q 356 920 278 854 q 520 1024 433 986 q 696 1063 607 1063 q 801 1044 754 1063 q 890 982 847 1025 l 951 1047 l 1000 1047 l 935 724 l 893 724 q 865 881 893 815 q 791 981 838 946 q 688 1015 744 1015 q 581 980 629 1015 q 492 883 532 944 q 424 746 453 822 q 374 586 394 669 q 344 424 354 503 q 335 278 335 344 q 376 87 335 140 q 496 33 418 33 q 601 54 543 33 q 724 130 660 75 q 850 286 789 185 l 892 286 l 818 0 l 776 0 l 735 47 q 615 1 678 21 q 478 -18 551 -18 m 371 -326 q 301 -318 328 -326 q 264 -303 275 -310 l 288 -249 q 317 -259 294 -254 q 364 -264 340 -264 q 437 -246 410 -264 q 464 -194 464 -228 q 444 -156 464 -171 q 367 -139 424 -140 l 458 14 l 524 14 l 464 -92 l 490 -92 q 575 -116 546 -92 q 604 -182 604 -140 q 567 -263 604 -231 q 477 -311 531 -296 q 371 -326 424 -326 z "},"Ĉ":{"ha":946,"x_min":89,"x_max":1000,"o":"m 478 -18 q 265 40 351 -18 q 133 192 178 97 q 89 393 89 286 q 123 587 89 490 q 217 769 157 683 q 356 920 278 854 q 520 1024 433 986 q 696 1063 607 1063 q 801 1044 754 1063 q 890 982 847 1025 l 951 1047 l 1000 1047 l 935 724 l 893 724 q 865 881 893 815 q 791 981 838 946 q 688 1015 744 1015 q 581 980 629 1015 q 492 883 532 944 q 424 746 453 822 q 374 586 394 669 q 344 424 354 503 q 335 278 335 344 q 376 87 335 140 q 496 33 418 33 q 601 54 543 33 q 724 130 660 75 q 850 286 789 185 l 892 286 l 818 0 l 776 0 l 735 47 q 615 1 678 21 q 478 -18 551 -18 m 483 1172 l 731 1356 l 808 1356 l 979 1172 l 914 1172 l 744 1235 l 547 1172 l 483 1172 z "},"Ċ":{"ha":946,"x_min":89,"x_max":1000,"o":"m 478 -18 q 265 40 351 -18 q 133 192 178 97 q 89 393 89 286 q 123 587 89 490 q 217 769 157 683 q 356 920 278 854 q 520 1024 433 986 q 696 1063 607 1063 q 801 1044 754 1063 q 890 982 847 1025 l 951 1047 l 1000 1047 l 935 724 l 893 724 q 865 881 893 815 q 791 981 838 946 q 688 1015 744 1015 q 581 980 629 1015 q 492 883 532 944 q 424 746 453 822 q 374 586 394 669 q 344 424 354 503 q 335 278 335 344 q 376 87 335 140 q 496 33 418 33 q 601 54 543 33 q 724 130 660 75 q 850 286 789 185 l 892 286 l 818 0 l 776 0 l 735 47 q 615 1 678 21 q 478 -18 551 -18 m 715 1156 q 638 1189 671 1156 q 604 1267 604 1222 q 638 1346 604 1313 q 715 1379 671 1379 q 794 1346 761 1379 q 828 1267 828 1313 q 794 1189 828 1222 q 715 1156 761 1156 z "},"D":{"ha":1069,"x_min":-57,"x_max":1039,"o":"m -57 0 l -57 44 l 411 44 q 579 90 504 44 q 708 224 654 136 q 790 436 761 311 q 819 719 819 561 q 813 830 819 778 q 783 922 806 882 q 716 983 761 961 q 596 1006 671 1006 l 139 1006 l 139 1047 l 606 1047 q 846 994 750 1047 q 990 843 942 942 q 1039 608 1039 744 q 996 380 1039 489 q 874 185 953 271 q 687 49 794 99 q 451 0 579 0 l -57 0 m 67 0 l 294 1047 l 504 1047 l 271 0 l 67 0 z "},"Ǳ":{"ha":1999,"x_min":-57,"x_max":2069,"o":"m -57 0 l -57 44 l 411 44 q 579 90 504 44 q 708 224 654 136 q 790 436 761 311 q 819 719 819 561 q 813 830 819 778 q 783 922 806 882 q 716 983 761 961 q 596 1006 671 1006 l 139 1006 l 139 1047 l 606 1047 q 846 994 750 1047 q 990 843 942 942 q 1039 608 1039 744 q 996 380 1039 489 q 874 185 953 271 q 687 49 794 99 q 451 0 579 0 l -57 0 m 67 0 l 294 1047 l 504 1047 l 271 0 l 67 0 m 1068 42 l 1824 1000 l 1824 1006 l 2069 1006 l 1333 49 l 1333 42 l 1068 42 m 1068 0 l 1068 42 l 1554 42 q 1668 65 1617 42 q 1768 148 1719 88 q 1869 322 1817 208 l 1925 322 l 1842 0 l 1068 0 m 1272 740 l 1358 1047 l 2069 1047 l 2069 1006 l 1614 1006 q 1509 977 1563 1006 q 1407 890 1456 949 q 1321 740 1358 832 l 1272 740 z "},"Ǆ":{"ha":1999,"x_min":-57,"x_max":2069,"o":"m -57 0 l -57 44 l 411 44 q 579 90 504 44 q 708 224 654 136 q 790 436 761 311 q 819 719 819 561 q 813 830 819 778 q 783 922 806 882 q 716 983 761 961 q 596 1006 671 1006 l 139 1006 l 139 1047 l 606 1047 q 846 994 750 1047 q 990 843 942 942 q 1039 608 1039 744 q 996 380 1039 489 q 874 185 953 271 q 687 49 794 99 q 451 0 579 0 l -57 0 m 67 0 l 294 1047 l 504 1047 l 271 0 l 67 0 m 1068 42 l 1824 1000 l 1824 1006 l 2069 1006 l 1333 49 l 1333 42 l 1068 42 m 1068 0 l 1068 42 l 1554 42 q 1668 65 1617 42 q 1768 148 1719 88 q 1869 322 1817 208 l 1925 322 l 1842 0 l 1068 0 m 1272 740 l 1358 1047 l 2069 1047 l 2069 1006 l 1614 1006 q 1509 977 1563 1006 q 1407 890 1456 949 q 1321 740 1358 832 l 1272 740 m 1682 1172 l 1511 1356 l 1576 1356 l 1746 1293 l 1943 1356 l 2007 1356 l 1760 1172 l 1682 1172 z "},"Ð":{"ha":1069,"x_min":-57,"x_max":1039,"o":"m -57 0 l -57 44 l 411 44 q 579 90 504 44 q 708 224 654 136 q 790 436 761 311 q 819 719 819 561 q 813 830 819 778 q 783 922 806 882 q 716 983 761 961 q 596 1006 671 1006 l 139 1006 l 139 1047 l 606 1047 q 846 994 750 1047 q 990 843 942 942 q 1039 608 1039 744 q 996 380 1039 489 q 874 185 953 271 q 687 49 794 99 q 451 0 579 0 l -57 0 m 67 0 l 294 1047 l 504 1047 l 271 0 l 67 0 m 53 503 l 53 558 l 560 558 l 560 503 l 53 503 z "},"Ď":{"ha":1069,"x_min":-57,"x_max":1039,"o":"m -57 0 l -57 44 l 411 44 q 579 90 504 44 q 708 224 654 136 q 790 436 761 311 q 819 719 819 561 q 813 830 819 778 q 783 922 806 882 q 716 983 761 961 q 596 1006 671 1006 l 139 1006 l 139 1047 l 606 1047 q 846 994 750 1047 q 990 843 942 942 q 1039 608 1039 744 q 996 380 1039 489 q 874 185 953 271 q 687 49 794 99 q 451 0 579 0 l -57 0 m 67 0 l 294 1047 l 504 1047 l 271 0 l 67 0 m 682 1172 l 511 1356 l 576 1356 l 746 1293 l 943 1356 l 1007 1356 l 760 1172 l 682 1172 z "},"Đ":{"ha":1069,"x_min":-57,"x_max":1039,"o":"m -57 0 l -57 44 l 411 44 q 579 90 504 44 q 708 224 654 136 q 790 436 761 311 q 819 719 819 561 q 813 830 819 778 q 783 922 806 882 q 716 983 761 961 q 596 1006 671 1006 l 139 1006 l 139 1047 l 606 1047 q 846 994 750 1047 q 990 843 942 942 q 1039 608 1039 744 q 996 380 1039 489 q 874 185 953 271 q 687 49 794 99 q 451 0 579 0 l -57 0 m 67 0 l 294 1047 l 504 1047 l 271 0 l 67 0 m 53 503 l 53 558 l 560 558 l 560 503 l 53 503 z "},"Ḍ":{"ha":1069,"x_min":-57,"x_max":1039,"o":"m -57 0 l -57 44 l 411 44 q 579 90 504 44 q 708 224 654 136 q 790 436 761 311 q 819 719 819 561 q 813 830 819 778 q 783 922 806 882 q 716 983 761 961 q 596 1006 671 1006 l 139 1006 l 139 1047 l 606 1047 q 846 994 750 1047 q 990 843 942 942 q 1039 608 1039 744 q 996 380 1039 489 q 874 185 953 271 q 687 49 794 99 q 451 0 579 0 l -57 0 m 67 0 l 294 1047 l 504 1047 l 271 0 l 67 0 m 413 -324 q 335 -290 368 -324 q 301 -212 301 -257 q 335 -133 301 -167 q 413 -100 368 -100 q 492 -133 458 -100 q 525 -212 525 -167 q 492 -290 525 -257 q 413 -324 458 -324 z "},"ǲ":{"ha":1756,"x_min":-57,"x_max":1753,"o":"m -57 0 l -57 44 l 411 44 q 579 90 504 44 q 708 224 654 136 q 790 436 761 311 q 819 719 819 561 q 813 830 819 778 q 783 922 806 882 q 716 983 761 961 q 596 1006 671 1006 l 139 1006 l 139 1047 l 606 1047 q 846 994 750 1047 q 990 843 942 942 q 1039 608 1039 744 q 996 380 1039 489 q 874 185 953 271 q 687 49 794 99 q 451 0 579 0 l -57 0 m 67 0 l 294 1047 l 504 1047 l 271 0 l 67 0 m 1135 -18 q 1096 -3 1110 -18 q 1082 33 1082 11 q 1099 78 1082 53 q 1179 156 1117 104 l 1543 463 l 1540 467 q 1435 444 1488 451 q 1344 438 1382 438 q 1288 440 1314 438 q 1233 453 1261 442 l 1182 351 l 1144 367 l 1265 625 l 1300 625 q 1381 605 1338 614 q 1469 590 1424 596 q 1563 582 1515 585 q 1657 579 1610 579 q 1672 589 1668 579 q 1678 610 1675 599 q 1688 632 1681 622 q 1717 642 1696 642 q 1753 611 1753 642 q 1744 583 1753 597 q 1718 554 1736 569 l 1290 197 l 1290 192 q 1422 184 1371 192 q 1505 167 1474 176 q 1556 151 1536 158 q 1596 143 1576 143 q 1640 161 1628 143 q 1651 189 1651 179 q 1637 206 1651 201 q 1603 215 1622 210 q 1570 231 1585 219 q 1556 269 1556 243 q 1576 317 1556 301 q 1622 332 1597 332 q 1678 303 1658 332 q 1697 225 1697 274 q 1669 111 1697 167 q 1590 19 1640 56 q 1472 -18 1539 -18 q 1372 3 1418 -18 q 1281 44 1325 24 q 1193 65 1238 65 q 1174 53 1175 65 q 1176 24 1174 40 q 1173 -6 1179 7 q 1135 -18 1167 -18 z "},"ǅ":{"ha":1756,"x_min":-57,"x_max":1824,"o":"m -57 0 l -57 44 l 411 44 q 579 90 504 44 q 708 224 654 136 q 790 436 761 311 q 819 719 819 561 q 813 830 819 778 q 783 922 806 882 q 716 983 761 961 q 596 1006 671 1006 l 139 1006 l 139 1047 l 606 1047 q 846 994 750 1047 q 990 843 942 942 q 1039 608 1039 744 q 996 380 1039 489 q 874 185 953 271 q 687 49 794 99 q 451 0 579 0 l -57 0 m 67 0 l 294 1047 l 504 1047 l 271 0 l 67 0 m 1135 -18 q 1096 -3 1110 -18 q 1082 33 1082 11 q 1099 78 1082 53 q 1179 156 1117 104 l 1543 463 l 1540 467 q 1435 444 1488 451 q 1344 438 1382 438 q 1288 440 1314 438 q 1233 453 1261 442 l 1182 351 l 1144 367 l 1265 625 l 1300 625 q 1381 605 1338 614 q 1469 590 1424 596 q 1563 582 1515 585 q 1657 579 1610 579 q 1672 589 1668 579 q 1678 610 1675 599 q 1688 632 1681 622 q 1717 642 1696 642 q 1753 611 1753 642 q 1744 583 1753 597 q 1718 554 1736 569 l 1290 197 l 1290 192 q 1422 184 1371 192 q 1505 167 1474 176 q 1556 151 1536 158 q 1596 143 1576 143 q 1640 161 1628 143 q 1651 189 1651 179 q 1637 206 1651 201 q 1603 215 1622 210 q 1570 231 1585 219 q 1556 269 1556 243 q 1576 317 1556 301 q 1622 332 1597 332 q 1678 303 1658 332 q 1697 225 1697 274 q 1669 111 1697 167 q 1590 19 1640 56 q 1472 -18 1539 -18 q 1372 3 1418 -18 q 1281 44 1325 24 q 1193 65 1238 65 q 1174 53 1175 65 q 1176 24 1174 40 q 1173 -6 1179 7 q 1135 -18 1167 -18 m 1468 728 l 1318 1006 l 1378 1006 l 1544 886 l 1764 1006 l 1824 1006 l 1554 728 l 1468 728 z "},"E":{"ha":958,"x_min":-18,"x_max":1007,"o":"m 110 0 l 338 1047 l 547 1047 l 314 0 l 110 0 m -18 0 l -18 42 l 542 42 q 656 65 604 42 q 756 148 707 88 q 857 322 804 208 l 913 322 l 829 0 l -18 0 m 617 315 q 600 444 617 400 q 553 503 583 488 q 481 519 522 519 l 360 519 l 360 561 l 503 561 q 588 579 550 561 q 655 638 625 597 q 706 743 685 678 l 754 743 l 664 315 l 617 315 m 901 761 q 881 911 901 858 q 813 985 861 964 q 678 1006 764 1006 l 178 1006 l 178 1047 l 1007 1047 l 957 761 l 901 761 z "},"É":{"ha":958,"x_min":-18,"x_max":1007,"o":"m 110 0 l 338 1047 l 547 1047 l 314 0 l 110 0 m -18 0 l -18 42 l 542 42 q 656 65 604 42 q 756 148 707 88 q 857 322 804 208 l 913 322 l 829 0 l -18 0 m 617 315 q 600 444 617 400 q 553 503 583 488 q 481 519 522 519 l 360 519 l 360 561 l 503 561 q 588 579 550 561 q 655 638 625 597 q 706 743 685 678 l 754 743 l 664 315 l 617 315 m 901 761 q 881 911 901 858 q 813 985 861 964 q 678 1006 764 1006 l 178 1006 l 178 1047 l 1007 1047 l 957 761 l 901 761 m 479 1174 l 724 1325 q 789 1359 764 1349 q 843 1369 814 1369 q 903 1349 882 1369 q 924 1301 924 1328 q 906 1257 924 1279 q 850 1228 889 1235 l 575 1174 l 479 1174 z "},"Ĕ":{"ha":958,"x_min":-18,"x_max":1007,"o":"m 110 0 l 338 1047 l 547 1047 l 314 0 l 110 0 m -18 0 l -18 42 l 542 42 q 656 65 604 42 q 756 148 707 88 q 857 322 804 208 l 913 322 l 829 0 l -18 0 m 617 315 q 600 444 617 400 q 553 503 583 488 q 481 519 522 519 l 360 519 l 360 561 l 503 561 q 588 579 550 561 q 655 638 625 597 q 706 743 685 678 l 754 743 l 664 315 l 617 315 m 901 761 q 881 911 901 858 q 813 985 861 964 q 678 1006 764 1006 l 178 1006 l 178 1047 l 1007 1047 l 957 761 l 901 761 m 664 1174 q 526 1218 574 1174 q 501 1360 479 1263 l 556 1360 q 566 1308 547 1326 q 618 1284 585 1290 q 685 1278 651 1278 q 758 1284 722 1278 q 822 1308 794 1290 q 856 1360 849 1326 l 910 1360 q 822 1219 892 1265 q 664 1174 751 1174 z "},"Ě":{"ha":958,"x_min":-18,"x_max":1007,"o":"m 110 0 l 338 1047 l 547 1047 l 314 0 l 110 0 m -18 0 l -18 42 l 542 42 q 656 65 604 42 q 756 148 707 88 q 857 322 804 208 l 913 322 l 829 0 l -18 0 m 617 315 q 600 444 617 400 q 553 503 583 488 q 481 519 522 519 l 360 519 l 360 561 l 503 561 q 588 579 550 561 q 655 638 625 597 q 706 743 685 678 l 754 743 l 664 315 l 617 315 m 901 761 q 881 911 901 858 q 813 985 861 964 q 678 1006 764 1006 l 178 1006 l 178 1047 l 1007 1047 l 957 761 l 901 761 m 626 1172 l 456 1356 l 521 1356 l 690 1293 l 888 1356 l 951 1356 l 704 1172 l 626 1172 z "},"Ê":{"ha":958,"x_min":-18,"x_max":1007,"o":"m 110 0 l 338 1047 l 547 1047 l 314 0 l 110 0 m -18 0 l -18 42 l 542 42 q 656 65 604 42 q 756 148 707 88 q 857 322 804 208 l 913 322 l 829 0 l -18 0 m 617 315 q 600 444 617 400 q 553 503 583 488 q 481 519 522 519 l 360 519 l 360 561 l 503 561 q 588 579 550 561 q 655 638 625 597 q 706 743 685 678 l 754 743 l 664 315 l 617 315 m 901 761 q 881 911 901 858 q 813 985 861 964 q 678 1006 764 1006 l 178 1006 l 178 1047 l 1007 1047 l 957 761 l 901 761 m 419 1172 l 667 1356 l 744 1356 l 915 1172 l 850 1172 l 681 1235 l 483 1172 l 419 1172 z "},"Ế":{"ha":958,"x_min":-18,"x_max":1007,"o":"m 110 0 l 338 1047 l 547 1047 l 314 0 l 110 0 m -18 0 l -18 42 l 542 42 q 656 65 604 42 q 756 148 707 88 q 857 322 804 208 l 913 322 l 829 0 l -18 0 m 617 315 q 600 444 617 400 q 553 503 583 488 q 481 519 522 519 l 360 519 l 360 561 l 503 561 q 588 579 550 561 q 655 638 625 597 q 706 743 685 678 l 754 743 l 664 315 l 617 315 m 901 761 q 881 911 901 858 q 813 985 861 964 q 678 1006 764 1006 l 178 1006 l 178 1047 l 1007 1047 l 957 761 l 901 761 m 429 1157 l 649 1313 l 726 1313 l 897 1157 l 832 1157 l 676 1219 l 493 1157 l 429 1157 m 483 1358 l 728 1510 q 793 1544 768 1533 q 847 1554 818 1554 q 907 1533 886 1554 q 928 1486 928 1513 q 910 1442 928 1464 q 854 1413 893 1419 l 579 1358 l 483 1358 z "},"Ệ":{"ha":958,"x_min":-18,"x_max":1007,"o":"m 110 0 l 338 1047 l 547 1047 l 314 0 l 110 0 m -18 0 l -18 42 l 542 42 q 656 65 604 42 q 756 148 707 88 q 857 322 804 208 l 913 322 l 829 0 l -18 0 m 617 315 q 600 444 617 400 q 553 503 583 488 q 481 519 522 519 l 360 519 l 360 561 l 503 561 q 588 579 550 561 q 655 638 625 597 q 706 743 685 678 l 754 743 l 664 315 l 617 315 m 901 761 q 881 911 901 858 q 813 985 861 964 q 678 1006 764 1006 l 178 1006 l 178 1047 l 1007 1047 l 957 761 l 901 761 m 399 -324 q 321 -290 354 -324 q 288 -212 288 -257 q 321 -133 288 -167 q 399 -100 354 -100 q 478 -133 444 -100 q 511 -212 511 -167 q 478 -290 511 -257 q 399 -324 444 -324 m 419 1172 l 667 1356 l 744 1356 l 915 1172 l 850 1172 l 681 1235 l 483 1172 l 419 1172 z "},"Ề":{"ha":958,"x_min":-18,"x_max":1007,"o":"m 110 0 l 338 1047 l 547 1047 l 314 0 l 110 0 m -18 0 l -18 42 l 542 42 q 656 65 604 42 q 756 148 707 88 q 857 322 804 208 l 913 322 l 829 0 l -18 0 m 617 315 q 600 444 617 400 q 553 503 583 488 q 481 519 522 519 l 360 519 l 360 561 l 503 561 q 588 579 550 561 q 655 638 625 597 q 706 743 685 678 l 754 743 l 664 315 l 617 315 m 901 761 q 881 911 901 858 q 813 985 861 964 q 678 1006 764 1006 l 178 1006 l 178 1047 l 1007 1047 l 957 761 l 901 761 m 435 1157 l 654 1313 l 732 1313 l 903 1157 l 838 1157 l 682 1219 l 499 1157 l 435 1157 m 867 1350 l 592 1404 q 535 1433 553 1411 q 518 1478 518 1456 q 539 1525 518 1504 q 599 1546 560 1546 q 653 1535 628 1546 q 718 1501 679 1525 l 963 1350 l 867 1350 z "},"Ể":{"ha":958,"x_min":-18,"x_max":1044,"o":"m 110 0 l 338 1047 l 547 1047 l 314 0 l 110 0 m -18 0 l -18 42 l 542 42 q 656 65 604 42 q 756 148 707 88 q 857 322 804 208 l 913 322 l 829 0 l -18 0 m 617 315 q 600 444 617 400 q 553 503 583 488 q 481 519 522 519 l 360 519 l 360 561 l 503 561 q 588 579 550 561 q 655 638 625 597 q 706 743 685 678 l 754 743 l 664 315 l 617 315 m 901 761 q 881 911 901 858 q 813 985 861 964 q 678 1006 764 1006 l 178 1006 l 178 1047 l 1007 1047 l 957 761 l 901 761 m 431 1157 l 650 1313 l 728 1313 l 899 1157 l 833 1157 l 678 1219 l 494 1157 l 431 1157 m 847 1290 q 879 1363 857 1339 q 922 1401 901 1388 q 946 1432 943 1415 q 939 1482 953 1465 q 894 1499 925 1499 q 846 1484 865 1499 q 824 1454 826 1469 q 828 1433 822 1438 q 839 1424 833 1429 q 842 1399 844 1418 q 819 1371 839 1379 q 781 1363 799 1363 q 742 1381 756 1363 q 733 1431 728 1400 q 796 1528 747 1499 q 907 1558 844 1558 q 1014 1526 983 1558 q 1029 1419 1044 1493 q 1005 1372 1024 1388 q 964 1349 986 1357 q 924 1328 942 1340 q 901 1290 907 1317 l 847 1290 z "},"Ễ":{"ha":958,"x_min":-18,"x_max":1010,"o":"m 110 0 l 338 1047 l 547 1047 l 314 0 l 110 0 m -18 0 l -18 42 l 542 42 q 656 65 604 42 q 756 148 707 88 q 857 322 804 208 l 913 322 l 829 0 l -18 0 m 617 315 q 600 444 617 400 q 553 503 583 488 q 481 519 522 519 l 360 519 l 360 561 l 503 561 q 588 579 550 561 q 655 638 625 597 q 706 743 685 678 l 754 743 l 664 315 l 617 315 m 901 761 q 881 911 901 858 q 813 985 861 964 q 678 1006 764 1006 l 178 1006 l 178 1047 l 1007 1047 l 957 761 l 901 761 m 426 1157 l 646 1313 l 724 1313 l 894 1157 l 829 1157 l 674 1219 l 490 1157 l 426 1157 m 468 1340 q 510 1431 483 1389 q 576 1499 536 1472 q 667 1525 615 1525 q 738 1510 711 1525 q 788 1479 764 1494 q 847 1464 813 1464 q 920 1486 890 1464 q 960 1526 950 1508 l 1010 1526 q 931 1392 981 1443 q 808 1342 882 1342 q 738 1357 765 1342 q 687 1388 711 1372 q 625 1403 663 1403 q 558 1385 588 1403 q 515 1340 528 1367 l 468 1340 z "},"Ȅ":{"ha":958,"x_min":-18,"x_max":1007,"o":"m 110 0 l 338 1047 l 547 1047 l 314 0 l 110 0 m -18 0 l -18 42 l 542 42 q 656 65 604 42 q 756 148 707 88 q 857 322 804 208 l 913 322 l 829 0 l -18 0 m 617 315 q 600 444 617 400 q 553 503 583 488 q 481 519 522 519 l 360 519 l 360 561 l 503 561 q 588 579 550 561 q 655 638 625 597 q 706 743 685 678 l 754 743 l 664 315 l 617 315 m 901 761 q 881 911 901 858 q 813 985 861 964 q 678 1006 764 1006 l 178 1006 l 178 1047 l 1007 1047 l 957 761 l 901 761 m 876 1172 l 667 1222 q 615 1250 632 1231 q 599 1290 599 1269 q 617 1333 599 1314 q 671 1353 636 1353 q 724 1345 699 1353 q 782 1313 749 1338 l 964 1172 l 876 1172 m 556 1172 l 346 1222 q 294 1250 311 1231 q 278 1290 278 1269 q 297 1333 278 1314 q 350 1353 315 1353 q 403 1345 378 1353 q 461 1313 428 1338 l 643 1172 l 556 1172 z "},"Ë":{"ha":958,"x_min":-18,"x_max":1007,"o":"m 110 0 l 338 1047 l 547 1047 l 314 0 l 110 0 m -18 0 l -18 42 l 542 42 q 656 65 604 42 q 756 148 707 88 q 857 322 804 208 l 913 322 l 829 0 l -18 0 m 617 315 q 600 444 617 400 q 553 503 583 488 q 481 519 522 519 l 360 519 l 360 561 l 503 561 q 588 579 550 561 q 655 638 625 597 q 706 743 685 678 l 754 743 l 664 315 l 617 315 m 901 761 q 881 911 901 858 q 813 985 861 964 q 678 1006 764 1006 l 178 1006 l 178 1047 l 1007 1047 l 957 761 l 901 761 m 828 1203 q 757 1232 788 1203 q 726 1303 726 1261 q 757 1374 726 1344 q 828 1403 788 1403 q 900 1374 871 1403 q 929 1303 929 1344 q 900 1232 929 1261 q 828 1203 871 1203 m 536 1203 q 464 1232 493 1203 q 435 1303 435 1261 q 464 1374 435 1344 q 536 1403 493 1403 q 607 1374 576 1403 q 638 1303 638 1344 q 607 1232 638 1261 q 536 1203 576 1203 z "},"Ė":{"ha":958,"x_min":-18,"x_max":1007,"o":"m 110 0 l 338 1047 l 547 1047 l 314 0 l 110 0 m -18 0 l -18 42 l 542 42 q 656 65 604 42 q 756 148 707 88 q 857 322 804 208 l 913 322 l 829 0 l -18 0 m 617 315 q 600 444 617 400 q 553 503 583 488 q 481 519 522 519 l 360 519 l 360 561 l 503 561 q 588 579 550 561 q 655 638 625 597 q 706 743 685 678 l 754 743 l 664 315 l 617 315 m 901 761 q 881 911 901 858 q 813 985 861 964 q 678 1006 764 1006 l 178 1006 l 178 1047 l 1007 1047 l 957 761 l 901 761 m 651 1156 q 574 1189 607 1156 q 540 1267 540 1222 q 574 1346 540 1313 q 651 1379 607 1379 q 731 1346 697 1379 q 764 1267 764 1313 q 731 1189 764 1222 q 651 1156 697 1156 z "},"Ẹ":{"ha":958,"x_min":-18,"x_max":1007,"o":"m 110 0 l 338 1047 l 547 1047 l 314 0 l 110 0 m -18 0 l -18 42 l 542 42 q 656 65 604 42 q 756 148 707 88 q 857 322 804 208 l 913 322 l 829 0 l -18 0 m 617 315 q 600 444 617 400 q 553 503 583 488 q 481 519 522 519 l 360 519 l 360 561 l 503 561 q 588 579 550 561 q 655 638 625 597 q 706 743 685 678 l 754 743 l 664 315 l 617 315 m 901 761 q 881 911 901 858 q 813 985 861 964 q 678 1006 764 1006 l 178 1006 l 178 1047 l 1007 1047 l 957 761 l 901 761 m 399 -324 q 321 -290 354 -324 q 288 -212 288 -257 q 321 -133 288 -167 q 399 -100 354 -100 q 478 -133 444 -100 q 511 -212 511 -167 q 478 -290 511 -257 q 399 -324 444 -324 z "},"È":{"ha":958,"x_min":-18,"x_max":1007,"o":"m 110 0 l 338 1047 l 547 1047 l 314 0 l 110 0 m -18 0 l -18 42 l 542 42 q 656 65 604 42 q 756 148 707 88 q 857 322 804 208 l 913 322 l 829 0 l -18 0 m 617 315 q 600 444 617 400 q 553 503 583 488 q 481 519 522 519 l 360 519 l 360 561 l 503 561 q 588 579 550 561 q 655 638 625 597 q 706 743 685 678 l 754 743 l 664 315 l 617 315 m 901 761 q 881 911 901 858 q 813 985 861 964 q 678 1006 764 1006 l 178 1006 l 178 1047 l 1007 1047 l 957 761 l 901 761 m 800 1172 l 525 1226 q 469 1256 486 1233 q 451 1300 451 1278 q 472 1347 451 1326 q 532 1368 493 1368 q 587 1358 561 1368 q 651 1324 613 1347 l 896 1172 l 800 1172 z "},"Ẻ":{"ha":958,"x_min":-18,"x_max":1007,"o":"m 110 0 l 338 1047 l 547 1047 l 314 0 l 110 0 m -18 0 l -18 42 l 542 42 q 656 65 604 42 q 756 148 707 88 q 857 322 804 208 l 913 322 l 829 0 l -18 0 m 617 315 q 600 444 617 400 q 553 503 583 488 q 481 519 522 519 l 360 519 l 360 561 l 503 561 q 588 579 550 561 q 655 638 625 597 q 706 743 685 678 l 754 743 l 664 315 l 617 315 m 901 761 q 881 911 901 858 q 813 985 861 964 q 678 1006 764 1006 l 178 1006 l 178 1047 l 1007 1047 l 957 761 l 901 761 m 663 1143 q 685 1201 669 1179 q 719 1239 701 1224 q 749 1267 736 1254 q 761 1299 761 1281 q 751 1337 761 1322 q 710 1351 740 1351 q 661 1337 681 1351 q 639 1307 642 1322 q 643 1286 638 1290 q 654 1276 649 1282 q 657 1251 660 1271 q 634 1224 654 1232 q 596 1215 614 1215 q 560 1232 571 1215 q 549 1274 549 1249 q 575 1353 549 1324 q 641 1397 601 1383 q 722 1411 681 1411 q 818 1383 792 1411 q 844 1307 844 1356 q 827 1252 844 1272 q 786 1217 810 1232 q 742 1185 763 1201 q 717 1143 722 1169 l 663 1143 z "},"Ȇ":{"ha":958,"x_min":-18,"x_max":1007,"o":"m 110 0 l 338 1047 l 547 1047 l 314 0 l 110 0 m -18 0 l -18 42 l 542 42 q 656 65 604 42 q 756 148 707 88 q 857 322 804 208 l 913 322 l 829 0 l -18 0 m 617 315 q 600 444 617 400 q 553 503 583 488 q 481 519 522 519 l 360 519 l 360 561 l 503 561 q 588 579 550 561 q 655 638 625 597 q 706 743 685 678 l 754 743 l 664 315 l 617 315 m 901 761 q 881 911 901 858 q 813 985 861 964 q 678 1006 764 1006 l 178 1006 l 178 1047 l 1007 1047 l 957 761 l 901 761 m 464 1172 q 548 1319 483 1267 q 710 1372 613 1372 q 835 1340 789 1372 q 881 1233 881 1307 q 872 1172 881 1208 l 818 1172 q 790 1245 831 1222 q 689 1268 750 1268 q 576 1245 624 1268 q 518 1172 529 1222 l 464 1172 z "},"Ē":{"ha":958,"x_min":-18,"x_max":1007,"o":"m 110 0 l 338 1047 l 547 1047 l 314 0 l 110 0 m -18 0 l -18 42 l 542 42 q 656 65 604 42 q 756 148 707 88 q 857 322 804 208 l 913 322 l 829 0 l -18 0 m 617 315 q 600 444 617 400 q 553 503 583 488 q 481 519 522 519 l 360 519 l 360 561 l 503 561 q 588 579 550 561 q 655 638 625 597 q 706 743 685 678 l 754 743 l 664 315 l 617 315 m 901 761 q 881 911 901 858 q 813 985 861 964 q 678 1006 764 1006 l 178 1006 l 178 1047 l 1007 1047 l 957 761 l 901 761 m 461 1210 l 488 1329 l 960 1329 l 933 1210 l 461 1210 z "},"Ę":{"ha":958,"x_min":-18,"x_max":1007,"o":"m 110 0 l 338 1047 l 547 1047 l 314 0 l 110 0 m -18 0 l -18 42 l 542 42 q 656 65 604 42 q 756 148 707 88 q 857 322 804 208 l 913 322 l 829 0 l -18 0 m 617 315 q 600 444 617 400 q 553 503 583 488 q 481 519 522 519 l 360 519 l 360 561 l 503 561 q 588 579 550 561 q 655 638 625 597 q 706 743 685 678 l 754 743 l 664 315 l 617 315 m 901 761 q 881 911 901 858 q 813 985 861 964 q 678 1006 764 1006 l 178 1006 l 178 1047 l 1007 1047 l 957 761 l 901 761 m 539 -329 q 448 -303 481 -329 q 415 -233 415 -278 q 478 -115 415 -174 q 679 17 540 -56 l 743 17 q 599 -86 654 -31 q 544 -189 544 -142 q 563 -230 544 -215 q 613 -244 582 -244 q 658 -237 632 -244 q 718 -215 683 -231 l 739 -258 q 651 -308 710 -287 q 539 -329 593 -329 z "},"Ẽ":{"ha":958,"x_min":-18,"x_max":1007,"o":"m 110 0 l 338 1047 l 547 1047 l 314 0 l 110 0 m -18 0 l -18 42 l 542 42 q 656 65 604 42 q 756 148 707 88 q 857 322 804 208 l 913 322 l 829 0 l -18 0 m 617 315 q 600 444 617 400 q 553 503 583 488 q 481 519 522 519 l 360 519 l 360 561 l 503 561 q 588 579 550 561 q 655 638 625 597 q 706 743 685 678 l 754 743 l 664 315 l 617 315 m 901 761 q 881 911 901 858 q 813 985 861 964 q 678 1006 764 1006 l 178 1006 l 178 1047 l 1007 1047 l 957 761 l 901 761 m 432 1172 q 474 1263 447 1221 q 540 1331 500 1304 q 631 1357 579 1357 q 701 1342 675 1357 q 752 1311 728 1326 q 811 1296 776 1296 q 884 1318 854 1296 q 924 1358 914 1340 l 974 1358 q 895 1224 944 1275 q 772 1174 846 1174 q 702 1189 729 1174 q 651 1219 675 1204 q 589 1235 626 1235 q 522 1217 551 1235 q 479 1172 492 1199 l 432 1172 z "},"Ə":{"ha":1040,"x_min":47,"x_max":1035,"o":"m 403 -15 q 224 19 304 -15 q 95 117 143 54 q 47 265 47 181 q 103 433 47 354 q 269 561 160 511 q 542 611 379 611 q 635 608 585 611 q 731 600 685 604 q 809 592 776 596 q 851 585 842 588 l 840 504 q 752 525 801 522 q 613 528 703 528 q 424 487 497 528 q 316 376 350 446 q 282 222 282 307 q 317 83 282 135 q 426 32 353 32 q 553 74 494 32 q 657 190 611 117 q 735 353 703 263 q 785 542 768 444 q 801 732 801 640 q 782 876 801 825 q 720 948 763 928 q 607 968 678 968 q 461 944 531 968 q 327 861 392 921 q 197 694 263 801 l 140 739 q 346 974 222 888 q 624 1060 469 1060 q 801 1024 724 1060 q 930 928 878 989 q 1008 790 982 867 q 1035 629 1035 713 q 1002 440 1035 533 q 910 265 969 347 q 771 119 850 182 q 598 21 692 57 q 403 -15 504 -15 z "},"F":{"ha":915,"x_min":-28,"x_max":990,"o":"m 93 0 l 321 1047 l 531 1047 l 297 0 l 93 0 m -28 0 l -28 43 l 485 43 l 485 0 l -28 0 m 600 315 q 583 444 600 400 q 536 503 567 488 q 464 519 506 519 l 343 519 l 343 561 l 486 561 q 571 579 533 561 q 638 638 608 597 q 689 743 668 678 l 738 743 l 647 315 l 600 315 m 885 761 q 865 911 885 858 q 796 985 844 964 q 661 1006 747 1006 l 161 1006 l 161 1047 l 990 1047 l 940 761 l 885 761 z "},"G":{"ha":1058,"x_min":100,"x_max":1074,"o":"m 506 -18 q 357 5 422 -18 q 243 67 292 28 q 163 160 194 107 q 116 274 132 213 q 100 399 100 335 q 134 594 100 497 q 228 775 168 690 q 367 924 289 860 q 531 1026 444 989 q 707 1063 618 1063 q 812 1044 765 1063 q 901 982 858 1025 l 963 1047 l 1011 1047 l 946 724 l 904 724 q 876 879 904 814 q 802 980 849 944 q 697 1015 756 1015 q 590 981 639 1015 q 503 886 542 946 q 434 751 464 826 q 384 594 404 676 q 354 433 364 513 q 344 288 344 354 q 363 139 344 194 q 418 58 382 83 q 504 33 454 33 q 594 58 551 33 q 672 148 638 82 q 725 338 706 214 l 969 338 q 876 140 932 219 q 731 22 819 61 q 506 -18 642 -18 m 588 329 l 588 371 l 1074 371 l 1074 329 l 588 329 z "},"Ǵ":{"ha":1058,"x_min":100,"x_max":1074,"o":"m 506 -18 q 357 5 422 -18 q 243 67 292 28 q 163 160 194 107 q 116 274 132 213 q 100 399 100 335 q 134 594 100 497 q 228 775 168 690 q 367 924 289 860 q 531 1026 444 989 q 707 1063 618 1063 q 812 1044 765 1063 q 901 982 858 1025 l 963 1047 l 1011 1047 l 946 724 l 904 724 q 876 879 904 814 q 802 980 849 944 q 697 1015 756 1015 q 590 981 639 1015 q 503 886 542 946 q 434 751 464 826 q 384 594 404 676 q 354 433 364 513 q 344 288 344 354 q 363 139 344 194 q 418 58 382 83 q 504 33 454 33 q 594 58 551 33 q 672 148 638 82 q 725 338 706 214 l 969 338 q 876 140 932 219 q 731 22 819 61 q 506 -18 642 -18 m 588 329 l 588 371 l 1074 371 l 1074 329 l 588 329 m 529 1174 l 774 1325 q 839 1359 814 1349 q 893 1369 864 1369 q 953 1349 932 1369 q 974 1301 974 1328 q 956 1257 974 1279 q 900 1228 939 1235 l 625 1174 l 529 1174 z "},"Ğ":{"ha":1058,"x_min":100,"x_max":1074,"o":"m 506 -18 q 357 5 422 -18 q 243 67 292 28 q 163 160 194 107 q 116 274 132 213 q 100 399 100 335 q 134 594 100 497 q 228 775 168 690 q 367 924 289 860 q 531 1026 444 989 q 707 1063 618 1063 q 812 1044 765 1063 q 901 982 858 1025 l 963 1047 l 1011 1047 l 946 724 l 904 724 q 876 879 904 814 q 802 980 849 944 q 697 1015 756 1015 q 590 981 639 1015 q 503 886 542 946 q 434 751 464 826 q 384 594 404 676 q 354 433 364 513 q 344 288 344 354 q 363 139 344 194 q 418 58 382 83 q 504 33 454 33 q 594 58 551 33 q 672 148 638 82 q 725 338 706 214 l 969 338 q 876 140 932 219 q 731 22 819 61 q 506 -18 642 -18 m 588 329 l 588 371 l 1074 371 l 1074 329 l 588 329 m 714 1174 q 576 1218 624 1174 q 551 1360 529 1263 l 606 1360 q 616 1308 597 1326 q 668 1284 635 1290 q 735 1278 701 1278 q 808 1284 772 1278 q 872 1308 844 1290 q 906 1360 899 1326 l 960 1360 q 872 1219 942 1265 q 714 1174 801 1174 z "},"Ĝ":{"ha":1058,"x_min":100,"x_max":1074,"o":"m 506 -18 q 357 5 422 -18 q 243 67 292 28 q 163 160 194 107 q 116 274 132 213 q 100 399 100 335 q 134 594 100 497 q 228 775 168 690 q 367 924 289 860 q 531 1026 444 989 q 707 1063 618 1063 q 812 1044 765 1063 q 901 982 858 1025 l 963 1047 l 1011 1047 l 946 724 l 904 724 q 876 879 904 814 q 802 980 849 944 q 697 1015 756 1015 q 590 981 639 1015 q 503 886 542 946 q 434 751 464 826 q 384 594 404 676 q 354 433 364 513 q 344 288 344 354 q 363 139 344 194 q 418 58 382 83 q 504 33 454 33 q 594 58 551 33 q 672 148 638 82 q 725 338 706 214 l 969 338 q 876 140 932 219 q 731 22 819 61 q 506 -18 642 -18 m 588 329 l 588 371 l 1074 371 l 1074 329 l 588 329 m 469 1172 l 717 1356 l 794 1356 l 965 1172 l 900 1172 l 731 1235 l 533 1172 l 469 1172 z "},"Ģ":{"ha":1058,"x_min":100,"x_max":1074,"o":"m 506 -18 q 357 5 422 -18 q 243 67 292 28 q 163 160 194 107 q 116 274 132 213 q 100 399 100 335 q 134 594 100 497 q 228 775 168 690 q 367 924 289 860 q 531 1026 444 989 q 707 1063 618 1063 q 812 1044 765 1063 q 901 982 858 1025 l 963 1047 l 1011 1047 l 946 724 l 904 724 q 876 879 904 814 q 802 980 849 944 q 697 1015 756 1015 q 590 981 639 1015 q 503 886 542 946 q 434 751 464 826 q 384 594 404 676 q 354 433 364 513 q 344 288 344 354 q 363 139 344 194 q 418 58 382 83 q 504 33 454 33 q 594 58 551 33 q 672 148 638 82 q 725 338 706 214 l 969 338 q 876 140 932 219 q 731 22 819 61 q 506 -18 642 -18 m 588 329 l 588 371 l 1074 371 l 1074 329 l 588 329 m 325 -437 l 306 -397 q 443 -335 390 -369 q 496 -261 496 -300 q 490 -238 496 -246 q 478 -231 483 -231 q 463 -244 471 -231 q 440 -270 454 -257 q 396 -283 425 -283 q 339 -257 357 -283 q 321 -200 321 -231 q 356 -124 321 -151 q 439 -96 392 -96 q 510 -117 483 -96 q 548 -170 536 -139 q 560 -232 560 -201 q 499 -352 560 -303 q 325 -437 438 -401 z "},"Ġ":{"ha":1058,"x_min":100,"x_max":1074,"o":"m 506 -18 q 357 5 422 -18 q 243 67 292 28 q 163 160 194 107 q 116 274 132 213 q 100 399 100 335 q 134 594 100 497 q 228 775 168 690 q 367 924 289 860 q 531 1026 444 989 q 707 1063 618 1063 q 812 1044 765 1063 q 901 982 858 1025 l 963 1047 l 1011 1047 l 946 724 l 904 724 q 876 879 904 814 q 802 980 849 944 q 697 1015 756 1015 q 590 981 639 1015 q 503 886 542 946 q 434 751 464 826 q 384 594 404 676 q 354 433 364 513 q 344 288 344 354 q 363 139 344 194 q 418 58 382 83 q 504 33 454 33 q 594 58 551 33 q 672 148 638 82 q 725 338 706 214 l 969 338 q 876 140 932 219 q 731 22 819 61 q 506 -18 642 -18 m 588 329 l 588 371 l 1074 371 l 1074 329 l 588 329 m 701 1156 q 624 1189 657 1156 q 590 1267 590 1222 q 624 1346 590 1313 q 701 1379 657 1379 q 781 1346 747 1379 q 814 1267 814 1313 q 781 1189 814 1222 q 701 1156 747 1156 z "},"H":{"ha":1121,"x_min":-18,"x_max":1231,"o":"m 671 0 l 899 1047 l 1108 1047 l 875 0 l 671 0 m -18 0 l -18 43 l 467 43 l 467 0 l -18 0 m 550 0 l 550 43 l 1035 43 l 1035 0 l 550 0 m 103 0 l 331 1047 l 540 1047 l 307 0 l 103 0 m 374 507 l 374 549 l 844 549 l 844 507 l 374 507 m 192 1006 l 192 1047 l 663 1047 l 663 1006 l 192 1006 m 760 1006 l 760 1047 l 1231 1047 l 1231 1006 l 760 1006 z "},"Ħ":{"ha":1121,"x_min":-18,"x_max":1231,"o":"m 139 747 l 139 803 l 1207 803 l 1207 747 l 139 747 m 671 0 l 899 1047 l 1108 1047 l 875 0 l 671 0 m -18 0 l -18 43 l 467 43 l 467 0 l -18 0 m 550 0 l 550 43 l 1035 43 l 1035 0 l 550 0 m 103 0 l 331 1047 l 540 1047 l 307 0 l 103 0 m 374 507 l 374 549 l 844 549 l 844 507 l 374 507 m 192 1006 l 192 1047 l 663 1047 l 663 1006 l 192 1006 m 760 1006 l 760 1047 l 1231 1047 l 1231 1006 l 760 1006 z "},"Ĥ":{"ha":1121,"x_min":-18,"x_max":1231,"o":"m 671 0 l 899 1047 l 1108 1047 l 875 0 l 671 0 m -18 0 l -18 43 l 467 43 l 467 0 l -18 0 m 550 0 l 550 43 l 1035 43 l 1035 0 l 550 0 m 103 0 l 331 1047 l 540 1047 l 307 0 l 103 0 m 374 507 l 374 549 l 844 549 l 844 507 l 374 507 m 192 1006 l 192 1047 l 663 1047 l 663 1006 l 192 1006 m 760 1006 l 760 1047 l 1231 1047 l 1231 1006 l 760 1006 m 501 1172 l 749 1356 l 826 1356 l 997 1172 l 932 1172 l 763 1235 l 565 1172 l 501 1172 z "},"Ḥ":{"ha":1121,"x_min":-18,"x_max":1231,"o":"m 671 0 l 899 1047 l 1108 1047 l 875 0 l 671 0 m -18 0 l -18 43 l 467 43 l 467 0 l -18 0 m 550 0 l 550 43 l 1035 43 l 1035 0 l 550 0 m 103 0 l 331 1047 l 540 1047 l 307 0 l 103 0 m 374 507 l 374 549 l 844 549 l 844 507 l 374 507 m 192 1006 l 192 1047 l 663 1047 l 663 1006 l 192 1006 m 760 1006 l 760 1047 l 1231 1047 l 1231 1006 l 760 1006 m 439 -324 q 361 -290 394 -324 q 328 -212 328 -257 q 361 -133 328 -167 q 439 -100 394 -100 q 518 -133 485 -100 q 551 -212 551 -167 q 518 -290 551 -257 q 439 -324 485 -324 z "},"I":{"ha":542,"x_min":-10,"x_max":615,"o":"m 83 0 l 311 1047 l 521 1047 l 288 0 l 83 0 m -10 0 l -10 43 l 419 43 l 419 0 l -10 0 m 200 1006 l 200 1047 l 615 1047 l 615 1006 l 200 1006 z "},"Ĳ":{"ha":1153,"x_min":-10,"x_max":1224,"o":"m 83 0 l 311 1047 l 521 1047 l 288 0 l 83 0 m -10 0 l -10 43 l 419 43 l 419 0 l -10 0 m 200 1006 l 200 1047 l 615 1047 l 615 1006 l 200 1006 m 599 -165 q 492 -142 536 -165 q 425 -81 449 -118 q 401 -4 401 -44 q 429 78 401 40 q 508 117 457 117 q 577 91 547 117 q 607 17 607 65 q 597 -32 607 -12 q 578 -65 588 -51 q 568 -90 568 -78 q 604 -115 568 -115 q 632 -109 619 -115 q 656 -85 644 -103 q 678 -36 667 -68 q 700 47 689 -4 l 919 1047 l 1129 1047 l 953 197 q 869 -13 926 67 q 740 -129 811 -93 q 599 -165 668 -165 m 767 1006 l 767 1047 l 1224 1047 l 1224 1006 l 767 1006 z "},"Í":{"ha":542,"x_min":-10,"x_max":715,"o":"m 83 0 l 311 1047 l 521 1047 l 288 0 l 83 0 m -10 0 l -10 43 l 419 43 l 419 0 l -10 0 m 200 1006 l 200 1047 l 615 1047 l 615 1006 l 200 1006 m 271 1174 l 515 1325 q 581 1359 556 1349 q 635 1369 606 1369 q 694 1349 674 1369 q 715 1301 715 1328 q 698 1257 715 1279 q 642 1228 681 1235 l 367 1174 l 271 1174 z "},"Ĭ":{"ha":542,"x_min":-10,"x_max":701,"o":"m 83 0 l 311 1047 l 521 1047 l 288 0 l 83 0 m -10 0 l -10 43 l 419 43 l 419 0 l -10 0 m 200 1006 l 200 1047 l 615 1047 l 615 1006 l 200 1006 m 456 1174 q 318 1218 365 1174 q 293 1360 271 1263 l 347 1360 q 358 1308 339 1326 q 410 1284 376 1290 q 476 1278 443 1278 q 550 1284 514 1278 q 613 1308 586 1290 q 647 1360 640 1326 l 701 1360 q 613 1219 683 1265 q 456 1174 543 1174 z "},"Î":{"ha":542,"x_min":-10,"x_max":707,"o":"m 83 0 l 311 1047 l 521 1047 l 288 0 l 83 0 m -10 0 l -10 43 l 419 43 l 419 0 l -10 0 m 200 1006 l 200 1047 l 615 1047 l 615 1006 l 200 1006 m 211 1172 l 458 1356 l 536 1356 l 707 1172 l 642 1172 l 472 1235 l 275 1172 l 211 1172 z "},"Ȉ":{"ha":542,"x_min":-10,"x_max":756,"o":"m 83 0 l 311 1047 l 521 1047 l 288 0 l 83 0 m -10 0 l -10 43 l 419 43 l 419 0 l -10 0 m 200 1006 l 200 1047 l 615 1047 l 615 1006 l 200 1006 m 668 1172 l 458 1222 q 407 1250 424 1231 q 390 1290 390 1269 q 409 1333 390 1314 q 463 1353 428 1353 q 515 1345 490 1353 q 574 1313 540 1338 l 756 1172 l 668 1172 m 347 1172 l 138 1222 q 86 1250 103 1231 q 69 1290 69 1269 q 88 1333 69 1314 q 142 1353 107 1353 q 194 1345 169 1353 q 253 1313 219 1338 l 435 1172 l 347 1172 z "},"Ï":{"ha":542,"x_min":-10,"x_max":721,"o":"m 83 0 l 311 1047 l 521 1047 l 288 0 l 83 0 m -10 0 l -10 43 l 419 43 l 419 0 l -10 0 m 200 1006 l 200 1047 l 615 1047 l 615 1006 l 200 1006 m 619 1203 q 549 1232 579 1203 q 518 1303 518 1261 q 549 1374 518 1344 q 619 1403 579 1403 q 692 1374 663 1403 q 721 1303 721 1344 q 692 1232 721 1261 q 619 1203 663 1203 m 328 1203 q 256 1232 285 1203 q 226 1303 226 1261 q 256 1374 226 1344 q 328 1403 285 1403 q 399 1374 368 1403 q 429 1303 429 1344 q 399 1232 429 1261 q 328 1203 368 1203 z "},"İ":{"ha":542,"x_min":-10,"x_max":615,"o":"m 83 0 l 311 1047 l 521 1047 l 288 0 l 83 0 m -10 0 l -10 43 l 419 43 l 419 0 l -10 0 m 200 1006 l 200 1047 l 615 1047 l 615 1006 l 200 1006 m 443 1156 q 365 1189 399 1156 q 332 1267 332 1222 q 365 1346 332 1313 q 443 1379 399 1379 q 522 1346 489 1379 q 556 1267 556 1313 q 522 1189 556 1222 q 443 1156 489 1156 z "},"Ị":{"ha":542,"x_min":-10,"x_max":615,"o":"m 83 0 l 311 1047 l 521 1047 l 288 0 l 83 0 m -10 0 l -10 43 l 419 43 l 419 0 l -10 0 m 200 1006 l 200 1047 l 615 1047 l 615 1006 l 200 1006 m 149 -324 q 71 -290 104 -324 q 38 -212 38 -257 q 71 -133 38 -167 q 149 -100 104 -100 q 228 -133 194 -100 q 261 -212 261 -167 q 228 -290 261 -257 q 149 -324 194 -324 z "},"Ì":{"ha":542,"x_min":-10,"x_max":688,"o":"m 83 0 l 311 1047 l 521 1047 l 288 0 l 83 0 m -10 0 l -10 43 l 419 43 l 419 0 l -10 0 m 200 1006 l 200 1047 l 615 1047 l 615 1006 l 200 1006 m 592 1172 l 317 1226 q 260 1256 278 1233 q 243 1300 243 1278 q 264 1347 243 1326 q 324 1368 285 1368 q 378 1358 353 1368 q 443 1324 404 1347 l 688 1172 l 592 1172 z "},"Ỉ":{"ha":542,"x_min":-10,"x_max":636,"o":"m 83 0 l 311 1047 l 521 1047 l 288 0 l 83 0 m -10 0 l -10 43 l 419 43 l 419 0 l -10 0 m 200 1006 l 200 1047 l 615 1047 l 615 1006 l 200 1006 m 454 1143 q 477 1201 461 1179 q 510 1239 493 1224 q 540 1267 528 1254 q 553 1299 553 1281 q 542 1337 553 1322 q 501 1351 532 1351 q 453 1337 472 1351 q 431 1307 433 1322 q 435 1286 429 1290 q 446 1276 440 1282 q 449 1251 451 1271 q 426 1224 446 1232 q 388 1215 406 1215 q 351 1232 363 1215 q 340 1274 340 1249 q 367 1353 340 1324 q 433 1397 393 1383 q 514 1411 472 1411 q 610 1383 583 1411 q 636 1307 636 1356 q 619 1252 636 1272 q 578 1217 601 1232 q 534 1185 554 1201 q 508 1143 514 1169 l 454 1143 z "},"Ȋ":{"ha":542,"x_min":-10,"x_max":672,"o":"m 83 0 l 311 1047 l 521 1047 l 288 0 l 83 0 m -10 0 l -10 43 l 419 43 l 419 0 l -10 0 m 200 1006 l 200 1047 l 615 1047 l 615 1006 l 200 1006 m 256 1172 q 340 1319 275 1267 q 501 1372 404 1372 q 626 1340 581 1372 q 672 1233 672 1307 q 664 1172 672 1208 l 610 1172 q 582 1245 622 1222 q 481 1268 542 1268 q 368 1245 415 1268 q 310 1172 321 1222 l 256 1172 z "},"Ī":{"ha":542,"x_min":-10,"x_max":751,"o":"m 83 0 l 311 1047 l 521 1047 l 288 0 l 83 0 m -10 0 l -10 43 l 419 43 l 419 0 l -10 0 m 200 1006 l 200 1047 l 615 1047 l 615 1006 l 200 1006 m 253 1210 l 279 1329 l 751 1329 l 725 1210 l 253 1210 z "},"Į":{"ha":542,"x_min":-28,"x_max":615,"o":"m 83 0 l 311 1047 l 521 1047 l 288 0 l 83 0 m -10 0 l -10 43 l 419 43 l 419 0 l -10 0 m 200 1006 l 200 1047 l 615 1047 l 615 1006 l 200 1006 m 96 -329 q 5 -303 38 -329 q -28 -233 -28 -278 q 35 -115 -28 -174 q 236 17 97 -56 l 300 17 q 156 -86 211 -31 q 101 -189 101 -142 q 120 -230 101 -215 q 169 -244 139 -244 q 215 -237 189 -244 q 275 -215 240 -231 l 296 -258 q 208 -308 267 -287 q 96 -329 150 -329 z "},"Ĩ":{"ha":542,"x_min":-10,"x_max":765,"o":"m 83 0 l 311 1047 l 521 1047 l 288 0 l 83 0 m -10 0 l -10 43 l 419 43 l 419 0 l -10 0 m 200 1006 l 200 1047 l 615 1047 l 615 1006 l 200 1006 m 224 1172 q 265 1263 239 1221 q 331 1331 292 1304 q 422 1357 371 1357 q 493 1342 467 1357 q 544 1311 519 1326 q 603 1296 568 1296 q 676 1318 646 1296 q 715 1358 706 1340 l 765 1358 q 687 1224 736 1275 q 564 1174 638 1174 q 494 1189 521 1174 q 442 1219 467 1204 q 381 1235 418 1235 q 313 1217 343 1235 q 271 1172 283 1199 l 224 1172 z "},"J":{"ha":611,"x_min":-140,"x_max":682,"o":"m 57 -165 q -49 -142 -6 -165 q -117 -81 -93 -118 q -140 -4 -140 -44 q -112 78 -140 40 q -33 117 -85 117 q 35 91 6 117 q 65 17 65 65 q 56 -32 65 -12 q 36 -65 46 -51 q 26 -90 26 -78 q 63 -115 26 -115 q 90 -109 78 -115 q 114 -85 103 -103 q 136 -36 125 -68 q 158 47 147 -4 l 378 1047 l 588 1047 l 411 197 q 327 -13 385 67 q 198 -129 269 -93 q 57 -165 126 -165 m 225 1006 l 225 1047 l 682 1047 l 682 1006 l 225 1006 z "},"Ĵ":{"ha":611,"x_min":-140,"x_max":742,"o":"m 57 -165 q -49 -142 -6 -165 q -117 -81 -93 -118 q -140 -4 -140 -44 q -112 78 -140 40 q -33 117 -85 117 q 35 91 6 117 q 65 17 65 65 q 56 -32 65 -12 q 36 -65 46 -51 q 26 -90 26 -78 q 63 -115 26 -115 q 90 -109 78 -115 q 114 -85 103 -103 q 136 -36 125 -68 q 158 47 147 -4 l 378 1047 l 588 1047 l 411 197 q 327 -13 385 67 q 198 -129 269 -93 q 57 -165 126 -165 m 225 1006 l 225 1047 l 682 1047 l 682 1006 l 225 1006 m 246 1172 l 493 1356 l 571 1356 l 742 1172 l 676 1172 l 507 1235 l 310 1172 l 246 1172 z "},"K":{"ha":1025,"x_min":10,"x_max":1133,"o":"m 103 0 l 331 1047 l 540 1047 l 307 0 l 103 0 m 10 0 l 10 43 l 439 43 l 439 0 l 10 0 m 547 0 l 547 42 l 1042 42 l 1042 0 l 547 0 m 690 13 l 456 549 l 635 656 l 936 13 l 690 13 m 219 1006 l 219 1047 l 635 1047 l 635 1006 l 219 1006 m 456 549 l 990 1019 l 1063 1019 l 528 549 l 456 549 m 765 1006 l 765 1047 l 1133 1047 l 1133 1006 l 765 1006 z "},"Ķ":{"ha":1025,"x_min":10,"x_max":1133,"o":"m 103 0 l 331 1047 l 540 1047 l 307 0 l 103 0 m 10 0 l 10 43 l 439 43 l 439 0 l 10 0 m 547 0 l 547 42 l 1042 42 l 1042 0 l 547 0 m 690 13 l 456 549 l 635 656 l 936 13 l 690 13 m 219 1006 l 219 1047 l 635 1047 l 635 1006 l 219 1006 m 456 549 l 990 1019 l 1063 1019 l 528 549 l 456 549 m 765 1006 l 765 1047 l 1133 1047 l 1133 1006 l 765 1006 m 308 -437 l 289 -397 q 426 -335 374 -369 q 479 -261 479 -300 q 473 -238 479 -246 q 461 -231 467 -231 q 446 -244 454 -231 q 423 -270 438 -257 q 379 -283 408 -283 q 322 -257 340 -283 q 304 -200 304 -231 q 340 -124 304 -151 q 422 -96 375 -96 q 493 -117 467 -96 q 531 -170 519 -139 q 543 -232 543 -201 q 482 -352 543 -303 q 308 -437 421 -401 z "},"L":{"ha":869,"x_min":-40,"x_max":863,"o":"m 88 0 l 315 1047 l 525 1047 l 292 0 l 88 0 m -40 0 l -40 42 l 478 42 q 589 67 533 42 q 699 154 644 93 q 807 322 754 215 l 863 322 l 779 0 l -40 0 m 149 1006 l 149 1047 l 675 1047 l 675 1006 l 149 1006 z "},"Ǉ":{"ha":1481,"x_min":-40,"x_max":1551,"o":"m 88 0 l 315 1047 l 525 1047 l 292 0 l 88 0 m -40 0 l -40 42 l 478 42 q 589 67 533 42 q 699 154 644 93 q 807 322 754 215 l 863 322 l 779 0 l -40 0 m 149 1006 l 149 1047 l 675 1047 l 675 1006 l 149 1006 m 926 -165 q 820 -142 864 -165 q 753 -81 776 -118 q 729 -4 729 -44 q 757 78 729 40 q 836 117 785 117 q 905 91 875 117 q 935 17 935 65 q 925 -32 935 -12 q 906 -65 915 -51 q 896 -90 896 -78 q 932 -115 896 -115 q 960 -109 947 -115 q 983 -85 972 -103 q 1006 -36 994 -68 q 1028 47 1017 -4 l 1247 1047 l 1457 1047 l 1281 197 q 1197 -13 1254 67 q 1067 -129 1139 -93 q 926 -165 996 -165 m 1094 1006 l 1094 1047 l 1551 1047 l 1551 1006 l 1094 1006 z "},"Ĺ":{"ha":869,"x_min":-40,"x_max":879,"o":"m 88 0 l 315 1047 l 525 1047 l 292 0 l 88 0 m -40 0 l -40 42 l 478 42 q 589 67 533 42 q 699 154 644 93 q 807 322 754 215 l 863 322 l 779 0 l -40 0 m 149 1006 l 149 1047 l 675 1047 l 675 1006 l 149 1006 m 435 1174 l 679 1325 q 744 1359 719 1349 q 799 1369 769 1369 q 858 1349 838 1369 q 879 1301 879 1328 q 862 1257 879 1279 q 806 1228 844 1235 l 531 1174 l 435 1174 z "},"Ľ":{"ha":869,"x_min":-40,"x_max":1040,"o":"m 88 0 l 315 1047 l 525 1047 l 292 0 l 88 0 m -40 0 l -40 42 l 478 42 q 589 67 533 42 q 699 154 644 93 q 807 322 754 215 l 863 322 l 779 0 l -40 0 m 149 1006 l 149 1047 l 675 1047 l 675 1006 l 149 1006 m 772 668 l 754 700 q 915 808 857 753 q 972 917 972 864 q 965 947 972 938 q 951 956 958 956 q 934 942 942 956 q 912 914 926 928 q 865 900 897 900 q 794 935 817 900 q 772 1004 772 969 q 810 1085 772 1056 q 897 1115 849 1115 q 980 1088 949 1115 q 1026 1020 1011 1060 q 1040 947 1040 981 q 970 796 1040 871 q 772 668 900 721 z "},"Ļ":{"ha":869,"x_min":-40,"x_max":863,"o":"m 88 0 l 315 1047 l 525 1047 l 292 0 l 88 0 m -40 0 l -40 42 l 478 42 q 589 67 533 42 q 699 154 644 93 q 807 322 754 215 l 863 322 l 779 0 l -40 0 m 149 1006 l 149 1047 l 675 1047 l 675 1006 l 149 1006 m 231 -437 l 211 -397 q 349 -335 296 -369 q 401 -261 401 -300 q 395 -238 401 -246 q 383 -231 389 -231 q 368 -244 376 -231 q 345 -270 360 -257 q 301 -283 331 -283 q 244 -257 263 -283 q 226 -200 226 -231 q 262 -124 226 -151 q 344 -96 297 -96 q 415 -117 389 -96 q 453 -170 442 -139 q 465 -232 465 -201 q 404 -352 465 -303 q 231 -437 343 -401 z "},"Ŀ":{"ha":869,"x_min":-40,"x_max":863,"o":"m 88 0 l 315 1047 l 525 1047 l 292 0 l 88 0 m -40 0 l -40 42 l 478 42 q 589 67 533 42 q 699 154 644 93 q 807 322 754 215 l 863 322 l 779 0 l -40 0 m 149 1006 l 149 1047 l 675 1047 l 675 1006 l 149 1006 m 714 429 q 628 465 664 429 q 593 550 593 500 q 628 635 593 600 q 714 671 664 671 q 799 635 764 671 q 835 550 835 600 q 799 465 835 500 q 714 429 764 429 z "},"ǈ":{"ha":1268,"x_min":-40,"x_max":1307,"o":"m 88 0 l 315 1047 l 525 1047 l 292 0 l 88 0 m -40 0 l -40 42 l 478 42 q 589 67 533 42 q 699 154 644 93 q 807 322 754 215 l 863 322 l 779 0 l -40 0 m 149 1006 l 149 1047 l 675 1047 l 675 1006 l 149 1006 m 765 -450 q 654 -417 701 -450 q 607 -329 607 -383 q 630 -272 607 -293 q 693 -250 653 -250 q 750 -269 729 -250 q 771 -328 771 -287 q 768 -356 771 -344 q 765 -378 765 -368 q 788 -399 765 -399 q 802 -393 793 -399 q 823 -365 811 -387 q 851 -292 835 -342 q 886 -153 867 -242 l 1060 625 l 1250 625 l 1110 -4 q 1040 -223 1081 -136 q 952 -359 999 -310 q 858 -429 906 -408 q 765 -450 810 -450 m 929 583 l 929 625 l 1233 625 l 1233 583 l 929 583 m 1194 799 q 1117 832 1150 799 q 1083 910 1083 865 q 1117 989 1083 956 q 1194 1022 1150 1022 q 1274 989 1240 1022 q 1307 910 1307 956 q 1274 832 1307 865 q 1194 799 1240 799 z "},"Ł":{"ha":869,"x_min":-40,"x_max":863,"o":"m 25 315 l 40 385 l 643 699 l 628 629 l 25 315 m 88 0 l 315 1047 l 525 1047 l 292 0 l 88 0 m -40 0 l -40 42 l 478 42 q 589 67 533 42 q 699 154 644 93 q 807 322 754 215 l 863 322 l 779 0 l -40 0 m 149 1006 l 149 1047 l 675 1047 l 675 1006 l 149 1006 z "},"M":{"ha":1260,"x_min":17,"x_max":1382,"o":"m 508 0 l 667 378 l 1038 1047 l 1106 1047 l 508 0 m 17 0 l 17 42 l 325 42 l 325 0 l 17 0 m 124 0 l 351 1047 l 407 1047 l 179 0 l 124 0 m 701 0 l 701 43 l 1186 43 l 1186 0 l 701 0 m 479 0 l 374 869 l 368 869 l 392 1047 l 583 1047 l 661 378 l 667 378 l 508 0 l 479 0 m 228 1006 l 228 1047 l 583 1047 l 583 1006 l 228 1006 m 822 0 l 1050 1047 l 1260 1047 l 1026 0 l 822 0 m 1092 1006 l 1092 1047 l 1382 1047 l 1382 1006 l 1092 1006 z "},"N":{"ha":1040,"x_min":-21,"x_max":1153,"o":"m 771 -18 l 354 885 l 349 885 l 375 1047 l 533 1047 l 854 371 l 860 371 l 799 -18 l 771 -18 m -21 0 l -21 42 l 308 42 l 308 0 l -21 0 m 100 0 l 328 1047 l 383 1047 l 156 0 l 100 0 m 176 1006 l 176 1047 l 533 1047 l 533 1006 l 176 1006 m 783 -18 l 990 1047 l 1046 1047 l 814 -18 l 783 -18 m 850 1006 l 850 1047 l 1153 1047 l 1153 1006 l 850 1006 z "},"Ǌ":{"ha":1651,"x_min":-21,"x_max":1722,"o":"m 771 -18 l 354 885 l 349 885 l 375 1047 l 533 1047 l 854 371 l 860 371 l 799 -18 l 771 -18 m -21 0 l -21 42 l 308 42 l 308 0 l -21 0 m 100 0 l 328 1047 l 383 1047 l 156 0 l 100 0 m 176 1006 l 176 1047 l 533 1047 l 533 1006 l 176 1006 m 783 -18 l 990 1047 l 1046 1047 l 814 -18 l 783 -18 m 850 1006 l 850 1047 l 1153 1047 l 1153 1006 l 850 1006 m 1097 -165 q 991 -142 1035 -165 q 924 -81 947 -118 q 900 -4 900 -44 q 928 78 900 40 q 1007 117 956 117 q 1076 91 1046 117 q 1106 17 1106 65 q 1096 -32 1106 -12 q 1076 -65 1086 -51 q 1067 -90 1067 -78 q 1103 -115 1067 -115 q 1131 -109 1118 -115 q 1154 -85 1143 -103 q 1176 -36 1165 -68 q 1199 47 1188 -4 l 1418 1047 l 1628 1047 l 1451 197 q 1367 -13 1425 67 q 1238 -129 1310 -93 q 1097 -165 1167 -165 m 1265 1006 l 1265 1047 l 1722 1047 l 1722 1006 l 1265 1006 z "},"Ń":{"ha":1040,"x_min":-21,"x_max":1153,"o":"m 771 -18 l 354 885 l 349 885 l 375 1047 l 533 1047 l 854 371 l 860 371 l 799 -18 l 771 -18 m -21 0 l -21 42 l 308 42 l 308 0 l -21 0 m 100 0 l 328 1047 l 383 1047 l 156 0 l 100 0 m 176 1006 l 176 1047 l 533 1047 l 533 1006 l 176 1006 m 783 -18 l 990 1047 l 1046 1047 l 814 -18 l 783 -18 m 850 1006 l 850 1047 l 1153 1047 l 1153 1006 l 850 1006 m 521 1174 l 765 1325 q 831 1359 806 1349 q 885 1369 856 1369 q 944 1349 924 1369 q 965 1301 965 1328 q 948 1257 965 1279 q 892 1228 931 1235 l 617 1174 l 521 1174 z "},"Ň":{"ha":1040,"x_min":-21,"x_max":1153,"o":"m 771 -18 l 354 885 l 349 885 l 375 1047 l 533 1047 l 854 371 l 860 371 l 799 -18 l 771 -18 m -21 0 l -21 42 l 308 42 l 308 0 l -21 0 m 100 0 l 328 1047 l 383 1047 l 156 0 l 100 0 m 176 1006 l 176 1047 l 533 1047 l 533 1006 l 176 1006 m 783 -18 l 990 1047 l 1046 1047 l 814 -18 l 783 -18 m 850 1006 l 850 1047 l 1153 1047 l 1153 1006 l 850 1006 m 668 1172 l 497 1356 l 563 1356 l 732 1293 l 929 1356 l 993 1356 l 746 1172 l 668 1172 z "},"Ņ":{"ha":1040,"x_min":-21,"x_max":1153,"o":"m 771 -18 l 354 885 l 349 885 l 375 1047 l 533 1047 l 854 371 l 860 371 l 799 -18 l 771 -18 m -21 0 l -21 42 l 308 42 l 308 0 l -21 0 m 100 0 l 328 1047 l 383 1047 l 156 0 l 100 0 m 176 1006 l 176 1047 l 533 1047 l 533 1006 l 176 1006 m 783 -18 l 990 1047 l 1046 1047 l 814 -18 l 783 -18 m 850 1006 l 850 1047 l 1153 1047 l 1153 1006 l 850 1006 m 317 -437 l 297 -397 q 435 -335 382 -369 q 488 -261 488 -300 q 481 -238 488 -246 q 469 -231 475 -231 q 454 -244 463 -231 q 431 -270 446 -257 q 388 -283 417 -283 q 331 -257 349 -283 q 313 -200 313 -231 q 348 -124 313 -151 q 431 -96 383 -96 q 501 -117 475 -96 q 540 -170 528 -139 q 551 -232 551 -201 q 490 -352 551 -303 q 317 -437 429 -401 z "},"Ṅ":{"ha":1040,"x_min":-21,"x_max":1153,"o":"m 771 -18 l 354 885 l 349 885 l 375 1047 l 533 1047 l 854 371 l 860 371 l 799 -18 l 771 -18 m -21 0 l -21 42 l 308 42 l 308 0 l -21 0 m 100 0 l 328 1047 l 383 1047 l 156 0 l 100 0 m 176 1006 l 176 1047 l 533 1047 l 533 1006 l 176 1006 m 783 -18 l 990 1047 l 1046 1047 l 814 -18 l 783 -18 m 850 1006 l 850 1047 l 1153 1047 l 1153 1006 l 850 1006 m 693 1156 q 615 1189 649 1156 q 582 1267 582 1222 q 615 1346 582 1313 q 693 1379 649 1379 q 772 1346 739 1379 q 806 1267 806 1313 q 772 1189 806 1222 q 693 1156 739 1156 z "},"ǋ":{"ha":1439,"x_min":-21,"x_max":1478,"o":"m 771 -18 l 354 885 l 349 885 l 375 1047 l 533 1047 l 854 371 l 860 371 l 799 -18 l 771 -18 m -21 0 l -21 42 l 308 42 l 308 0 l -21 0 m 100 0 l 328 1047 l 383 1047 l 156 0 l 100 0 m 176 1006 l 176 1047 l 533 1047 l 533 1006 l 176 1006 m 783 -18 l 990 1047 l 1046 1047 l 814 -18 l 783 -18 m 850 1006 l 850 1047 l 1153 1047 l 1153 1006 l 850 1006 m 936 -450 q 825 -417 872 -450 q 778 -329 778 -383 q 801 -272 778 -293 q 864 -250 824 -250 q 921 -269 900 -250 q 942 -328 942 -287 q 939 -356 942 -344 q 936 -378 936 -368 q 958 -399 936 -399 q 973 -393 964 -399 q 994 -365 982 -387 q 1022 -292 1006 -342 q 1057 -153 1038 -242 l 1231 625 l 1421 625 l 1281 -4 q 1210 -223 1251 -136 q 1123 -359 1169 -310 q 1028 -429 1076 -408 q 936 -450 981 -450 m 1100 583 l 1100 625 l 1404 625 l 1404 583 l 1100 583 m 1365 799 q 1288 832 1321 799 q 1254 910 1254 865 q 1288 989 1254 956 q 1365 1022 1321 1022 q 1444 989 1411 1022 q 1478 910 1478 956 q 1444 832 1478 865 q 1365 799 1411 799 z "},"Ñ":{"ha":1040,"x_min":-21,"x_max":1153,"o":"m 771 -18 l 354 885 l 349 885 l 375 1047 l 533 1047 l 854 371 l 860 371 l 799 -18 l 771 -18 m -21 0 l -21 42 l 308 42 l 308 0 l -21 0 m 100 0 l 328 1047 l 383 1047 l 156 0 l 100 0 m 176 1006 l 176 1047 l 533 1047 l 533 1006 l 176 1006 m 783 -18 l 990 1047 l 1046 1047 l 814 -18 l 783 -18 m 850 1006 l 850 1047 l 1153 1047 l 1153 1006 l 850 1006 m 474 1172 q 515 1263 489 1221 q 581 1331 542 1304 q 672 1357 621 1357 q 743 1342 717 1357 q 794 1311 769 1326 q 853 1296 818 1296 q 926 1318 896 1296 q 965 1358 956 1340 l 1015 1358 q 937 1224 986 1275 q 814 1174 888 1174 q 744 1189 771 1174 q 692 1219 717 1204 q 631 1235 668 1235 q 563 1217 593 1235 q 521 1172 533 1199 l 474 1172 z "},"Ŋ":{"ha":1043,"x_min":-21,"x_max":1153,"o":"m 626 -218 q 540 -193 576 -218 q 483 -131 503 -168 q 463 -57 463 -94 q 490 26 463 -12 q 569 64 518 64 q 638 38 608 64 q 668 -36 668 13 q 655 -84 668 -71 q 628 -105 642 -97 q 615 -132 615 -112 q 624 -150 615 -142 q 654 -158 632 -158 q 692 -146 674 -158 q 729 -100 711 -133 q 761 -6 747 -67 l 988 1024 l 1043 1024 l 825 22 q 786 -99 811 -44 q 722 -186 761 -154 q 626 -218 683 -218 m -21 0 l -21 42 l 308 42 l 308 0 l -21 0 m 100 0 l 328 1047 l 383 1047 l 156 0 l 100 0 m 788 54 l 354 885 l 349 885 l 375 1047 l 533 1047 l 860 468 l 865 468 l 815 54 l 788 54 m 176 1006 l 176 1047 l 533 1047 l 533 1006 l 176 1006 m 850 1006 l 850 1047 l 1153 1047 l 1153 1006 l 850 1006 z "},"O":{"ha":1096,"x_min":90,"x_max":1108,"o":"m 504 -15 q 338 19 414 -15 q 207 113 263 53 q 121 251 151 172 q 90 422 90 331 q 122 608 90 515 q 212 781 154 700 q 345 925 269 863 q 510 1024 421 988 q 694 1060 600 1060 q 860 1027 785 1060 q 991 937 935 994 q 1078 801 1047 879 q 1108 631 1108 722 q 1076 443 1108 536 q 986 267 1043 350 q 853 121 929 185 q 688 21 776 57 q 504 -15 599 -15 m 496 29 q 624 65 568 29 q 720 163 679 101 q 790 302 761 225 q 835 463 818 379 q 859 624 851 546 q 867 765 867 701 q 862 851 867 807 q 840 932 857 894 q 790 992 824 969 q 699 1015 756 1015 q 572 979 628 1015 q 476 881 517 943 q 408 742 436 819 q 363 580 379 664 q 338 416 346 496 q 331 269 331 336 q 368 94 331 160 q 496 29 406 29 z "},"Ó":{"ha":1096,"x_min":90,"x_max":1108,"o":"m 504 -15 q 338 19 414 -15 q 207 113 263 53 q 121 251 151 172 q 90 422 90 331 q 122 608 90 515 q 212 781 154 700 q 345 925 269 863 q 510 1024 421 988 q 694 1060 600 1060 q 860 1027 785 1060 q 991 937 935 994 q 1078 801 1047 879 q 1108 631 1108 722 q 1076 443 1108 536 q 986 267 1043 350 q 853 121 929 185 q 688 21 776 57 q 504 -15 599 -15 m 496 29 q 624 65 568 29 q 720 163 679 101 q 790 302 761 225 q 835 463 818 379 q 859 624 851 546 q 867 765 867 701 q 862 851 867 807 q 840 932 857 894 q 790 992 824 969 q 699 1015 756 1015 q 572 979 628 1015 q 476 881 517 943 q 408 742 436 819 q 363 580 379 664 q 338 416 346 496 q 331 269 331 336 q 368 94 331 160 q 496 29 406 29 m 549 1174 l 793 1325 q 858 1359 833 1349 q 913 1369 883 1369 q 972 1349 951 1369 q 993 1301 993 1328 q 976 1257 993 1279 q 919 1228 958 1235 l 644 1174 l 549 1174 z "},"Ŏ":{"ha":1096,"x_min":90,"x_max":1108,"o":"m 504 -15 q 338 19 414 -15 q 207 113 263 53 q 121 251 151 172 q 90 422 90 331 q 122 608 90 515 q 212 781 154 700 q 345 925 269 863 q 510 1024 421 988 q 694 1060 600 1060 q 860 1027 785 1060 q 991 937 935 994 q 1078 801 1047 879 q 1108 631 1108 722 q 1076 443 1108 536 q 986 267 1043 350 q 853 121 929 185 q 688 21 776 57 q 504 -15 599 -15 m 496 29 q 624 65 568 29 q 720 163 679 101 q 790 302 761 225 q 835 463 818 379 q 859 624 851 546 q 867 765 867 701 q 862 851 867 807 q 840 932 857 894 q 790 992 824 969 q 699 1015 756 1015 q 572 979 628 1015 q 476 881 517 943 q 408 742 436 819 q 363 580 379 664 q 338 416 346 496 q 331 269 331 336 q 368 94 331 160 q 496 29 406 29 m 733 1174 q 596 1218 643 1174 q 571 1360 549 1263 l 625 1360 q 635 1308 617 1326 q 688 1284 654 1290 q 754 1278 721 1278 q 828 1284 792 1278 q 891 1308 864 1290 q 925 1360 918 1326 l 979 1360 q 891 1219 961 1265 q 733 1174 821 1174 z "},"Ô":{"ha":1096,"x_min":90,"x_max":1108,"o":"m 504 -15 q 338 19 414 -15 q 207 113 263 53 q 121 251 151 172 q 90 422 90 331 q 122 608 90 515 q 212 781 154 700 q 345 925 269 863 q 510 1024 421 988 q 694 1060 600 1060 q 860 1027 785 1060 q 991 937 935 994 q 1078 801 1047 879 q 1108 631 1108 722 q 1076 443 1108 536 q 986 267 1043 350 q 853 121 929 185 q 688 21 776 57 q 504 -15 599 -15 m 496 29 q 624 65 568 29 q 720 163 679 101 q 790 302 761 225 q 835 463 818 379 q 859 624 851 546 q 867 765 867 701 q 862 851 867 807 q 840 932 857 894 q 790 992 824 969 q 699 1015 756 1015 q 572 979 628 1015 q 476 881 517 943 q 408 742 436 819 q 363 580 379 664 q 338 416 346 496 q 331 269 331 336 q 368 94 331 160 q 496 29 406 29 m 489 1172 l 736 1356 l 814 1356 l 985 1172 l 919 1172 l 750 1235 l 553 1172 l 489 1172 z "},"Ố":{"ha":1096,"x_min":90,"x_max":1108,"o":"m 504 -15 q 338 19 414 -15 q 207 113 263 53 q 121 251 151 172 q 90 422 90 331 q 122 608 90 515 q 212 781 154 700 q 345 925 269 863 q 510 1024 421 988 q 694 1060 600 1060 q 860 1027 785 1060 q 991 937 935 994 q 1078 801 1047 879 q 1108 631 1108 722 q 1076 443 1108 536 q 986 267 1043 350 q 853 121 929 185 q 688 21 776 57 q 504 -15 599 -15 m 496 29 q 624 65 568 29 q 720 163 679 101 q 790 302 761 225 q 835 463 818 379 q 859 624 851 546 q 867 765 867 701 q 862 851 867 807 q 840 932 857 894 q 790 992 824 969 q 699 1015 756 1015 q 572 979 628 1015 q 476 881 517 943 q 408 742 436 819 q 363 580 379 664 q 338 416 346 496 q 331 269 331 336 q 368 94 331 160 q 496 29 406 29 m 499 1157 l 718 1313 l 796 1313 l 967 1157 l 901 1157 l 746 1219 l 563 1157 l 499 1157 m 553 1358 l 797 1510 q 863 1544 838 1533 q 917 1554 888 1554 q 976 1533 956 1554 q 997 1486 997 1513 q 980 1442 997 1464 q 924 1413 963 1419 l 649 1358 l 553 1358 z "},"Ộ":{"ha":1096,"x_min":90,"x_max":1108,"o":"m 504 -15 q 338 19 414 -15 q 207 113 263 53 q 121 251 151 172 q 90 422 90 331 q 122 608 90 515 q 212 781 154 700 q 345 925 269 863 q 510 1024 421 988 q 694 1060 600 1060 q 860 1027 785 1060 q 991 937 935 994 q 1078 801 1047 879 q 1108 631 1108 722 q 1076 443 1108 536 q 986 267 1043 350 q 853 121 929 185 q 688 21 776 57 q 504 -15 599 -15 m 496 29 q 624 65 568 29 q 720 163 679 101 q 790 302 761 225 q 835 463 818 379 q 859 624 851 546 q 867 765 867 701 q 862 851 867 807 q 840 932 857 894 q 790 992 824 969 q 699 1015 756 1015 q 572 979 628 1015 q 476 881 517 943 q 408 742 436 819 q 363 580 379 664 q 338 416 346 496 q 331 269 331 336 q 368 94 331 160 q 496 29 406 29 m 426 -324 q 349 -290 382 -324 q 315 -212 315 -257 q 349 -133 315 -167 q 426 -100 382 -100 q 506 -133 472 -100 q 539 -212 539 -167 q 506 -290 539 -257 q 426 -324 472 -324 m 489 1172 l 736 1356 l 814 1356 l 985 1172 l 919 1172 l 750 1235 l 553 1172 l 489 1172 z "},"Ồ":{"ha":1096,"x_min":90,"x_max":1108,"o":"m 504 -15 q 338 19 414 -15 q 207 113 263 53 q 121 251 151 172 q 90 422 90 331 q 122 608 90 515 q 212 781 154 700 q 345 925 269 863 q 510 1024 421 988 q 694 1060 600 1060 q 860 1027 785 1060 q 991 937 935 994 q 1078 801 1047 879 q 1108 631 1108 722 q 1076 443 1108 536 q 986 267 1043 350 q 853 121 929 185 q 688 21 776 57 q 504 -15 599 -15 m 496 29 q 624 65 568 29 q 720 163 679 101 q 790 302 761 225 q 835 463 818 379 q 859 624 851 546 q 867 765 867 701 q 862 851 867 807 q 840 932 857 894 q 790 992 824 969 q 699 1015 756 1015 q 572 979 628 1015 q 476 881 517 943 q 408 742 436 819 q 363 580 379 664 q 338 416 346 496 q 331 269 331 336 q 368 94 331 160 q 496 29 406 29 m 504 1157 l 724 1313 l 801 1313 l 972 1157 l 907 1157 l 751 1219 l 568 1157 l 504 1157 m 936 1350 l 661 1404 q 605 1433 622 1411 q 588 1478 588 1456 q 608 1525 588 1504 q 668 1546 629 1546 q 723 1535 697 1546 q 788 1501 749 1525 l 1032 1350 l 936 1350 z "},"Ổ":{"ha":1096,"x_min":90,"x_max":1114,"o":"m 504 -15 q 338 19 414 -15 q 207 113 263 53 q 121 251 151 172 q 90 422 90 331 q 122 608 90 515 q 212 781 154 700 q 345 925 269 863 q 510 1024 421 988 q 694 1060 600 1060 q 860 1027 785 1060 q 991 937 935 994 q 1078 801 1047 879 q 1108 631 1108 722 q 1076 443 1108 536 q 986 267 1043 350 q 853 121 929 185 q 688 21 776 57 q 504 -15 599 -15 m 496 29 q 624 65 568 29 q 720 163 679 101 q 790 302 761 225 q 835 463 818 379 q 859 624 851 546 q 867 765 867 701 q 862 851 867 807 q 840 932 857 894 q 790 992 824 969 q 699 1015 756 1015 q 572 979 628 1015 q 476 881 517 943 q 408 742 436 819 q 363 580 379 664 q 338 416 346 496 q 331 269 331 336 q 368 94 331 160 q 496 29 406 29 m 500 1157 l 719 1313 l 797 1313 l 968 1157 l 903 1157 l 747 1219 l 564 1157 l 500 1157 m 917 1290 q 949 1363 926 1339 q 992 1401 971 1388 q 1015 1432 1013 1415 q 1008 1482 1022 1465 q 964 1499 994 1499 q 915 1484 935 1499 q 893 1454 896 1469 q 897 1433 892 1438 q 908 1424 903 1429 q 911 1399 914 1418 q 888 1371 908 1379 q 850 1363 868 1363 q 811 1381 825 1363 q 803 1431 797 1400 q 865 1528 817 1499 q 976 1558 914 1558 q 1083 1526 1053 1558 q 1099 1419 1114 1493 q 1074 1372 1093 1388 q 1033 1349 1056 1357 q 994 1328 1011 1340 q 971 1290 976 1317 l 917 1290 z "},"Ỗ":{"ha":1096,"x_min":90,"x_max":1108,"o":"m 504 -15 q 338 19 414 -15 q 207 113 263 53 q 121 251 151 172 q 90 422 90 331 q 122 608 90 515 q 212 781 154 700 q 345 925 269 863 q 510 1024 421 988 q 694 1060 600 1060 q 860 1027 785 1060 q 991 937 935 994 q 1078 801 1047 879 q 1108 631 1108 722 q 1076 443 1108 536 q 986 267 1043 350 q 853 121 929 185 q 688 21 776 57 q 504 -15 599 -15 m 496 29 q 624 65 568 29 q 720 163 679 101 q 790 302 761 225 q 835 463 818 379 q 859 624 851 546 q 867 765 867 701 q 862 851 867 807 q 840 932 857 894 q 790 992 824 969 q 699 1015 756 1015 q 572 979 628 1015 q 476 881 517 943 q 408 742 436 819 q 363 580 379 664 q 338 416 346 496 q 331 269 331 336 q 368 94 331 160 q 496 29 406 29 m 496 1157 l 715 1313 l 793 1313 l 964 1157 l 899 1157 l 743 1219 l 560 1157 l 496 1157 m 538 1340 q 579 1431 553 1389 q 645 1499 606 1472 q 736 1525 685 1525 q 807 1510 781 1525 q 858 1479 833 1494 q 917 1464 882 1464 q 990 1486 960 1464 q 1029 1526 1019 1508 l 1079 1526 q 1001 1392 1050 1443 q 878 1342 951 1342 q 808 1357 835 1342 q 756 1388 781 1372 q 694 1403 732 1403 q 627 1385 657 1403 q 585 1340 597 1367 l 538 1340 z "},"Ȍ":{"ha":1096,"x_min":90,"x_max":1108,"o":"m 504 -15 q 338 19 414 -15 q 207 113 263 53 q 121 251 151 172 q 90 422 90 331 q 122 608 90 515 q 212 781 154 700 q 345 925 269 863 q 510 1024 421 988 q 694 1060 600 1060 q 860 1027 785 1060 q 991 937 935 994 q 1078 801 1047 879 q 1108 631 1108 722 q 1076 443 1108 536 q 986 267 1043 350 q 853 121 929 185 q 688 21 776 57 q 504 -15 599 -15 m 496 29 q 624 65 568 29 q 720 163 679 101 q 790 302 761 225 q 835 463 818 379 q 859 624 851 546 q 867 765 867 701 q 862 851 867 807 q 840 932 857 894 q 790 992 824 969 q 699 1015 756 1015 q 572 979 628 1015 q 476 881 517 943 q 408 742 436 819 q 363 580 379 664 q 338 416 346 496 q 331 269 331 336 q 368 94 331 160 q 496 29 406 29 m 946 1172 l 736 1222 q 685 1250 701 1231 q 668 1290 668 1269 q 687 1333 668 1314 q 740 1353 706 1353 q 793 1345 768 1353 q 851 1313 818 1338 l 1033 1172 l 946 1172 m 625 1172 l 415 1222 q 364 1250 381 1231 q 347 1290 347 1269 q 366 1333 347 1314 q 419 1353 385 1353 q 472 1345 447 1353 q 531 1313 497 1338 l 713 1172 l 625 1172 z "},"Ö":{"ha":1096,"x_min":90,"x_max":1108,"o":"m 504 -15 q 338 19 414 -15 q 207 113 263 53 q 121 251 151 172 q 90 422 90 331 q 122 608 90 515 q 212 781 154 700 q 345 925 269 863 q 510 1024 421 988 q 694 1060 600 1060 q 860 1027 785 1060 q 991 937 935 994 q 1078 801 1047 879 q 1108 631 1108 722 q 1076 443 1108 536 q 986 267 1043 350 q 853 121 929 185 q 688 21 776 57 q 504 -15 599 -15 m 496 29 q 624 65 568 29 q 720 163 679 101 q 790 302 761 225 q 835 463 818 379 q 859 624 851 546 q 867 765 867 701 q 862 851 867 807 q 840 932 857 894 q 790 992 824 969 q 699 1015 756 1015 q 572 979 628 1015 q 476 881 517 943 q 408 742 436 819 q 363 580 379 664 q 338 416 346 496 q 331 269 331 336 q 368 94 331 160 q 496 29 406 29 m 897 1203 q 826 1232 857 1203 q 796 1303 796 1261 q 826 1374 796 1344 q 897 1403 857 1403 q 969 1374 940 1403 q 999 1303 999 1344 q 969 1232 999 1261 q 897 1203 940 1203 m 606 1203 q 533 1232 563 1203 q 504 1303 504 1261 q 533 1374 504 1344 q 606 1403 563 1403 q 676 1374 646 1403 q 707 1303 707 1344 q 676 1232 707 1261 q 606 1203 646 1203 z "},"Ọ":{"ha":1096,"x_min":90,"x_max":1108,"o":"m 504 -15 q 338 19 414 -15 q 207 113 263 53 q 121 251 151 172 q 90 422 90 331 q 122 608 90 515 q 212 781 154 700 q 345 925 269 863 q 510 1024 421 988 q 694 1060 600 1060 q 860 1027 785 1060 q 991 937 935 994 q 1078 801 1047 879 q 1108 631 1108 722 q 1076 443 1108 536 q 986 267 1043 350 q 853 121 929 185 q 688 21 776 57 q 504 -15 599 -15 m 496 29 q 624 65 568 29 q 720 163 679 101 q 790 302 761 225 q 835 463 818 379 q 859 624 851 546 q 867 765 867 701 q 862 851 867 807 q 840 932 857 894 q 790 992 824 969 q 699 1015 756 1015 q 572 979 628 1015 q 476 881 517 943 q 408 742 436 819 q 363 580 379 664 q 338 416 346 496 q 331 269 331 336 q 368 94 331 160 q 496 29 406 29 m 426 -324 q 349 -290 382 -324 q 315 -212 315 -257 q 349 -133 315 -167 q 426 -100 382 -100 q 506 -133 472 -100 q 539 -212 539 -167 q 506 -290 539 -257 q 426 -324 472 -324 z "},"Ò":{"ha":1096,"x_min":90,"x_max":1108,"o":"m 504 -15 q 338 19 414 -15 q 207 113 263 53 q 121 251 151 172 q 90 422 90 331 q 122 608 90 515 q 212 781 154 700 q 345 925 269 863 q 510 1024 421 988 q 694 1060 600 1060 q 860 1027 785 1060 q 991 937 935 994 q 1078 801 1047 879 q 1108 631 1108 722 q 1076 443 1108 536 q 986 267 1043 350 q 853 121 929 185 q 688 21 776 57 q 504 -15 599 -15 m 496 29 q 624 65 568 29 q 720 163 679 101 q 790 302 761 225 q 835 463 818 379 q 859 624 851 546 q 867 765 867 701 q 862 851 867 807 q 840 932 857 894 q 790 992 824 969 q 699 1015 756 1015 q 572 979 628 1015 q 476 881 517 943 q 408 742 436 819 q 363 580 379 664 q 338 416 346 496 q 331 269 331 336 q 368 94 331 160 q 496 29 406 29 m 869 1172 l 594 1226 q 538 1256 556 1233 q 521 1300 521 1278 q 542 1347 521 1326 q 601 1368 563 1368 q 656 1358 631 1368 q 721 1324 682 1347 l 965 1172 l 869 1172 z "},"Ỏ":{"ha":1096,"x_min":90,"x_max":1108,"o":"m 504 -15 q 338 19 414 -15 q 207 113 263 53 q 121 251 151 172 q 90 422 90 331 q 122 608 90 515 q 212 781 154 700 q 345 925 269 863 q 510 1024 421 988 q 694 1060 600 1060 q 860 1027 785 1060 q 991 937 935 994 q 1078 801 1047 879 q 1108 631 1108 722 q 1076 443 1108 536 q 986 267 1043 350 q 853 121 929 185 q 688 21 776 57 q 504 -15 599 -15 m 496 29 q 624 65 568 29 q 720 163 679 101 q 790 302 761 225 q 835 463 818 379 q 859 624 851 546 q 867 765 867 701 q 862 851 867 807 q 840 932 857 894 q 790 992 824 969 q 699 1015 756 1015 q 572 979 628 1015 q 476 881 517 943 q 408 742 436 819 q 363 580 379 664 q 338 416 346 496 q 331 269 331 336 q 368 94 331 160 q 496 29 406 29 m 732 1143 q 755 1201 739 1179 q 788 1239 771 1224 q 818 1267 806 1254 q 831 1299 831 1281 q 820 1337 831 1322 q 779 1351 810 1351 q 731 1337 750 1351 q 708 1307 711 1322 q 713 1286 707 1290 q 724 1276 718 1282 q 726 1251 729 1271 q 703 1224 724 1232 q 665 1215 683 1215 q 629 1232 640 1215 q 618 1274 618 1249 q 644 1353 618 1324 q 710 1397 671 1383 q 792 1411 750 1411 q 888 1383 861 1411 q 914 1307 914 1356 q 897 1252 914 1272 q 856 1217 879 1232 q 812 1185 832 1201 q 786 1143 792 1169 l 732 1143 z "},"Ơ":{"ha":1096,"x_min":90,"x_max":1108,"o":"m 504 -15 q 338 19 414 -15 q 207 113 263 53 q 121 251 151 172 q 90 422 90 331 q 122 608 90 515 q 212 781 154 700 q 345 925 269 863 q 510 1024 421 988 q 694 1060 600 1060 q 860 1027 785 1060 q 991 937 935 994 q 1078 801 1047 879 q 1108 631 1108 722 q 1076 443 1108 536 q 986 267 1043 350 q 853 121 929 185 q 688 21 776 57 q 504 -15 599 -15 m 496 29 q 624 65 568 29 q 720 163 679 101 q 790 302 761 225 q 835 463 818 379 q 859 624 851 546 q 867 765 867 701 q 862 851 867 807 q 840 932 857 894 q 790 992 824 969 q 699 1015 756 1015 q 572 979 628 1015 q 476 881 517 943 q 408 742 436 819 q 363 580 379 664 q 338 416 346 496 q 331 269 331 336 q 368 94 331 160 q 496 29 406 29 m 842 994 l 753 1047 q 874 1047 829 1042 q 942 1068 919 1053 q 976 1106 965 1083 q 993 1157 986 1128 l 1099 1157 q 1056 1052 1086 1088 q 973 1006 1025 1017 q 842 994 921 994 z "},"Ớ":{"ha":1096,"x_min":90,"x_max":1108,"o":"m 504 -15 q 338 19 414 -15 q 207 113 263 53 q 121 251 151 172 q 90 422 90 331 q 122 608 90 515 q 212 781 154 700 q 345 925 269 863 q 510 1024 421 988 q 694 1060 600 1060 q 860 1027 785 1060 q 991 937 935 994 q 1078 801 1047 879 q 1108 631 1108 722 q 1076 443 1108 536 q 986 267 1043 350 q 853 121 929 185 q 688 21 776 57 q 504 -15 599 -15 m 496 29 q 624 65 568 29 q 720 163 679 101 q 790 302 761 225 q 835 463 818 379 q 859 624 851 546 q 867 765 867 701 q 862 851 867 807 q 840 932 857 894 q 790 992 824 969 q 699 1015 756 1015 q 572 979 628 1015 q 476 881 517 943 q 408 742 436 819 q 363 580 379 664 q 338 416 346 496 q 331 269 331 336 q 368 94 331 160 q 496 29 406 29 m 842 994 l 753 1047 q 874 1047 829 1042 q 942 1068 919 1053 q 976 1106 965 1083 q 993 1157 986 1128 l 1099 1157 q 1056 1052 1086 1088 q 973 1006 1025 1017 q 842 994 921 994 m 535 1174 l 779 1325 q 844 1359 819 1349 q 899 1369 869 1369 q 958 1349 938 1369 q 979 1301 979 1328 q 962 1257 979 1279 q 906 1228 944 1235 l 631 1174 l 535 1174 z "},"Ợ":{"ha":1096,"x_min":90,"x_max":1108,"o":"m 504 -15 q 338 19 414 -15 q 207 113 263 53 q 121 251 151 172 q 90 422 90 331 q 122 608 90 515 q 212 781 154 700 q 345 925 269 863 q 510 1024 421 988 q 694 1060 600 1060 q 860 1027 785 1060 q 991 937 935 994 q 1078 801 1047 879 q 1108 631 1108 722 q 1076 443 1108 536 q 986 267 1043 350 q 853 121 929 185 q 688 21 776 57 q 504 -15 599 -15 m 496 29 q 624 65 568 29 q 720 163 679 101 q 790 302 761 225 q 835 463 818 379 q 859 624 851 546 q 867 765 867 701 q 862 851 867 807 q 840 932 857 894 q 790 992 824 969 q 699 1015 756 1015 q 572 979 628 1015 q 476 881 517 943 q 408 742 436 819 q 363 580 379 664 q 338 416 346 496 q 331 269 331 336 q 368 94 331 160 q 496 29 406 29 m 842 994 l 753 1047 q 874 1047 829 1042 q 942 1068 919 1053 q 976 1106 965 1083 q 993 1157 986 1128 l 1099 1157 q 1056 1052 1086 1088 q 973 1006 1025 1017 q 842 994 921 994 m 426 -324 q 349 -290 382 -324 q 315 -212 315 -257 q 349 -133 315 -167 q 426 -100 382 -100 q 506 -133 472 -100 q 539 -212 539 -167 q 506 -290 539 -257 q 426 -324 472 -324 z "},"Ờ":{"ha":1096,"x_min":90,"x_max":1108,"o":"m 504 -15 q 338 19 414 -15 q 207 113 263 53 q 121 251 151 172 q 90 422 90 331 q 122 608 90 515 q 212 781 154 700 q 345 925 269 863 q 510 1024 421 988 q 694 1060 600 1060 q 860 1027 785 1060 q 991 937 935 994 q 1078 801 1047 879 q 1108 631 1108 722 q 1076 443 1108 536 q 986 267 1043 350 q 853 121 929 185 q 688 21 776 57 q 504 -15 599 -15 m 496 29 q 624 65 568 29 q 720 163 679 101 q 790 302 761 225 q 835 463 818 379 q 859 624 851 546 q 867 765 867 701 q 862 851 867 807 q 840 932 857 894 q 790 992 824 969 q 699 1015 756 1015 q 572 979 628 1015 q 476 881 517 943 q 408 742 436 819 q 363 580 379 664 q 338 416 346 496 q 331 269 331 336 q 368 94 331 160 q 496 29 406 29 m 842 994 l 753 1047 q 874 1047 829 1042 q 942 1068 919 1053 q 976 1106 965 1083 q 993 1157 986 1128 l 1099 1157 q 1056 1052 1086 1088 q 973 1006 1025 1017 q 842 994 921 994 m 856 1172 l 581 1226 q 524 1256 542 1233 q 507 1300 507 1278 q 528 1347 507 1326 q 588 1368 549 1368 q 642 1358 617 1368 q 707 1324 668 1347 l 951 1172 l 856 1172 z "},"Ở":{"ha":1096,"x_min":90,"x_max":1108,"o":"m 504 -15 q 338 19 414 -15 q 207 113 263 53 q 121 251 151 172 q 90 422 90 331 q 122 608 90 515 q 212 781 154 700 q 345 925 269 863 q 510 1024 421 988 q 694 1060 600 1060 q 860 1027 785 1060 q 991 937 935 994 q 1078 801 1047 879 q 1108 631 1108 722 q 1076 443 1108 536 q 986 267 1043 350 q 853 121 929 185 q 688 21 776 57 q 504 -15 599 -15 m 496 29 q 624 65 568 29 q 720 163 679 101 q 790 302 761 225 q 835 463 818 379 q 859 624 851 546 q 867 765 867 701 q 862 851 867 807 q 840 932 857 894 q 790 992 824 969 q 699 1015 756 1015 q 572 979 628 1015 q 476 881 517 943 q 408 742 436 819 q 363 580 379 664 q 338 416 346 496 q 331 269 331 336 q 368 94 331 160 q 496 29 406 29 m 842 994 l 753 1047 q 874 1047 829 1042 q 942 1068 919 1053 q 976 1106 965 1083 q 993 1157 986 1128 l 1099 1157 q 1056 1052 1086 1088 q 973 1006 1025 1017 q 842 994 921 994 m 718 1143 q 741 1201 725 1179 q 774 1239 757 1224 q 804 1267 792 1254 q 817 1299 817 1281 q 806 1337 817 1322 q 765 1351 796 1351 q 717 1337 736 1351 q 694 1307 697 1322 q 699 1286 693 1290 q 710 1276 704 1282 q 713 1251 715 1271 q 690 1224 710 1232 q 651 1215 669 1215 q 615 1232 626 1215 q 604 1274 604 1249 q 631 1353 604 1324 q 697 1397 657 1383 q 778 1411 736 1411 q 874 1383 847 1411 q 900 1307 900 1356 q 883 1252 900 1272 q 842 1217 865 1232 q 798 1185 818 1201 q 772 1143 778 1169 l 718 1143 z "},"Ỡ":{"ha":1096,"x_min":90,"x_max":1108,"o":"m 504 -15 q 338 19 414 -15 q 207 113 263 53 q 121 251 151 172 q 90 422 90 331 q 122 608 90 515 q 212 781 154 700 q 345 925 269 863 q 510 1024 421 988 q 694 1060 600 1060 q 860 1027 785 1060 q 991 937 935 994 q 1078 801 1047 879 q 1108 631 1108 722 q 1076 443 1108 536 q 986 267 1043 350 q 853 121 929 185 q 688 21 776 57 q 504 -15 599 -15 m 496 29 q 624 65 568 29 q 720 163 679 101 q 790 302 761 225 q 835 463 818 379 q 859 624 851 546 q 867 765 867 701 q 862 851 867 807 q 840 932 857 894 q 790 992 824 969 q 699 1015 756 1015 q 572 979 628 1015 q 476 881 517 943 q 408 742 436 819 q 363 580 379 664 q 338 416 346 496 q 331 269 331 336 q 368 94 331 160 q 496 29 406 29 m 842 994 l 753 1047 q 874 1047 829 1042 q 942 1068 919 1053 q 976 1106 965 1083 q 993 1157 986 1128 l 1099 1157 q 1056 1052 1086 1088 q 973 1006 1025 1017 q 842 994 921 994 m 488 1172 q 529 1263 503 1221 q 595 1331 556 1304 q 686 1357 635 1357 q 757 1342 731 1357 q 808 1311 783 1326 q 867 1296 832 1296 q 940 1318 910 1296 q 979 1358 969 1340 l 1029 1358 q 951 1224 1000 1275 q 828 1174 901 1174 q 758 1189 785 1174 q 706 1219 731 1204 q 644 1235 682 1235 q 577 1217 607 1235 q 535 1172 547 1199 l 488 1172 z "},"Ő":{"ha":1096,"x_min":90,"x_max":1108,"o":"m 504 -15 q 338 19 414 -15 q 207 113 263 53 q 121 251 151 172 q 90 422 90 331 q 122 608 90 515 q 212 781 154 700 q 345 925 269 863 q 510 1024 421 988 q 694 1060 600 1060 q 860 1027 785 1060 q 991 937 935 994 q 1078 801 1047 879 q 1108 631 1108 722 q 1076 443 1108 536 q 986 267 1043 350 q 853 121 929 185 q 688 21 776 57 q 504 -15 599 -15 m 496 29 q 624 65 568 29 q 720 163 679 101 q 790 302 761 225 q 835 463 818 379 q 859 624 851 546 q 867 765 867 701 q 862 851 867 807 q 840 932 857 894 q 790 992 824 969 q 699 1015 756 1015 q 572 979 628 1015 q 476 881 517 943 q 408 742 436 819 q 363 580 379 664 q 338 416 346 496 q 331 269 331 336 q 368 94 331 160 q 496 29 406 29 m 722 1172 l 904 1313 q 963 1345 938 1338 q 1015 1353 989 1353 q 1069 1333 1050 1353 q 1088 1290 1088 1314 q 1072 1250 1088 1269 q 1019 1222 1056 1231 l 810 1172 l 722 1172 m 401 1172 l 583 1313 q 642 1345 617 1338 q 694 1353 668 1353 q 748 1333 729 1353 q 767 1290 767 1314 q 751 1250 767 1269 q 699 1222 735 1231 l 489 1172 l 401 1172 z "},"Ȏ":{"ha":1096,"x_min":90,"x_max":1108,"o":"m 504 -15 q 338 19 414 -15 q 207 113 263 53 q 121 251 151 172 q 90 422 90 331 q 122 608 90 515 q 212 781 154 700 q 345 925 269 863 q 510 1024 421 988 q 694 1060 600 1060 q 860 1027 785 1060 q 991 937 935 994 q 1078 801 1047 879 q 1108 631 1108 722 q 1076 443 1108 536 q 986 267 1043 350 q 853 121 929 185 q 688 21 776 57 q 504 -15 599 -15 m 496 29 q 624 65 568 29 q 720 163 679 101 q 790 302 761 225 q 835 463 818 379 q 859 624 851 546 q 867 765 867 701 q 862 851 867 807 q 840 932 857 894 q 790 992 824 969 q 699 1015 756 1015 q 572 979 628 1015 q 476 881 517 943 q 408 742 436 819 q 363 580 379 664 q 338 416 346 496 q 331 269 331 336 q 368 94 331 160 q 496 29 406 29 m 533 1172 q 617 1319 553 1267 q 779 1372 682 1372 q 904 1340 858 1372 q 950 1233 950 1307 q 942 1172 950 1208 l 888 1172 q 860 1245 900 1222 q 758 1268 819 1268 q 646 1245 693 1268 q 588 1172 599 1222 l 533 1172 z "},"Ō":{"ha":1096,"x_min":90,"x_max":1108,"o":"m 504 -15 q 338 19 414 -15 q 207 113 263 53 q 121 251 151 172 q 90 422 90 331 q 122 608 90 515 q 212 781 154 700 q 345 925 269 863 q 510 1024 421 988 q 694 1060 600 1060 q 860 1027 785 1060 q 991 937 935 994 q 1078 801 1047 879 q 1108 631 1108 722 q 1076 443 1108 536 q 986 267 1043 350 q 853 121 929 185 q 688 21 776 57 q 504 -15 599 -15 m 496 29 q 624 65 568 29 q 720 163 679 101 q 790 302 761 225 q 835 463 818 379 q 859 624 851 546 q 867 765 867 701 q 862 851 867 807 q 840 932 857 894 q 790 992 824 969 q 699 1015 756 1015 q 572 979 628 1015 q 476 881 517 943 q 408 742 436 819 q 363 580 379 664 q 338 416 346 496 q 331 269 331 336 q 368 94 331 160 q 496 29 406 29 m 531 1210 l 557 1329 l 1029 1329 l 1003 1210 l 531 1210 z "},"Ǫ":{"ha":1096,"x_min":90,"x_max":1108,"o":"m 504 -15 q 338 19 414 -15 q 207 113 263 53 q 121 251 151 172 q 90 422 90 331 q 122 608 90 515 q 212 781 154 700 q 345 925 269 863 q 510 1024 421 988 q 694 1060 600 1060 q 860 1027 785 1060 q 991 937 935 994 q 1078 801 1047 879 q 1108 631 1108 722 q 1076 443 1108 536 q 986 267 1043 350 q 853 121 929 185 q 688 21 776 57 q 504 -15 599 -15 m 496 29 q 624 65 568 29 q 720 163 679 101 q 790 302 761 225 q 835 463 818 379 q 859 624 851 546 q 867 765 867 701 q 862 851 867 807 q 840 932 857 894 q 790 992 824 969 q 699 1015 756 1015 q 572 979 628 1015 q 476 881 517 943 q 408 742 436 819 q 363 580 379 664 q 338 416 346 496 q 331 269 331 336 q 368 94 331 160 q 496 29 406 29 m 376 -329 q 285 -303 318 -329 q 253 -233 253 -278 q 315 -115 253 -174 q 517 17 378 -56 l 581 17 q 437 -86 492 -31 q 382 -189 382 -142 q 401 -230 382 -215 q 450 -244 419 -244 q 495 -237 469 -244 q 556 -215 521 -231 l 576 -258 q 489 -308 547 -287 q 376 -329 431 -329 z "},"Ø":{"ha":1096,"x_min":75,"x_max":1181,"o":"m 75 -74 l 222 97 q 125 241 160 157 q 90 422 90 325 q 122 608 90 515 q 212 781 154 700 q 345 925 269 863 q 510 1024 421 988 q 694 1060 600 1060 q 843 1034 774 1060 q 965 961 913 1008 l 1100 1117 l 1181 1117 l 1008 917 q 1082 788 1056 861 q 1108 631 1108 714 q 1076 443 1108 536 q 986 267 1043 350 q 853 121 929 185 q 688 21 776 57 q 504 -15 599 -15 q 376 4 436 -15 q 268 58 317 24 l 156 -74 l 75 -74 m 496 29 q 643 78 581 29 q 748 209 706 128 q 816 387 790 290 q 853 579 842 483 q 867 751 865 675 l 346 147 q 397 59 361 89 q 496 29 433 29 m 332 225 l 863 842 q 842 926 858 886 q 792 990 826 965 q 699 1015 758 1015 q 572 979 628 1015 q 476 881 517 943 q 408 742 436 819 q 363 580 379 664 q 338 416 346 496 q 331 269 331 336 q 331 249 331 267 q 332 225 332 232 z "},"Ǿ":{"ha":1096,"x_min":75,"x_max":1181,"o":"m 75 -74 l 222 97 q 125 241 160 157 q 90 422 90 325 q 122 608 90 515 q 212 781 154 700 q 345 925 269 863 q 510 1024 421 988 q 694 1060 600 1060 q 843 1034 774 1060 q 965 961 913 1008 l 1100 1117 l 1181 1117 l 1008 917 q 1082 788 1056 861 q 1108 631 1108 714 q 1076 443 1108 536 q 986 267 1043 350 q 853 121 929 185 q 688 21 776 57 q 504 -15 599 -15 q 376 4 436 -15 q 268 58 317 24 l 156 -74 l 75 -74 m 496 29 q 643 78 581 29 q 748 209 706 128 q 816 387 790 290 q 853 579 842 483 q 867 751 865 675 l 346 147 q 397 59 361 89 q 496 29 433 29 m 332 225 l 863 842 q 842 926 858 886 q 792 990 826 965 q 699 1015 758 1015 q 572 979 628 1015 q 476 881 517 943 q 408 742 436 819 q 363 580 379 664 q 338 416 346 496 q 331 269 331 336 q 331 249 331 267 q 332 225 332 232 m 549 1174 l 793 1325 q 858 1359 833 1349 q 913 1369 883 1369 q 972 1349 951 1369 q 993 1301 993 1328 q 976 1257 993 1279 q 919 1228 958 1235 l 644 1174 l 549 1174 z "},"Õ":{"ha":1096,"x_min":90,"x_max":1108,"o":"m 504 -15 q 338 19 414 -15 q 207 113 263 53 q 121 251 151 172 q 90 422 90 331 q 122 608 90 515 q 212 781 154 700 q 345 925 269 863 q 510 1024 421 988 q 694 1060 600 1060 q 860 1027 785 1060 q 991 937 935 994 q 1078 801 1047 879 q 1108 631 1108 722 q 1076 443 1108 536 q 986 267 1043 350 q 853 121 929 185 q 688 21 776 57 q 504 -15 599 -15 m 496 29 q 624 65 568 29 q 720 163 679 101 q 790 302 761 225 q 835 463 818 379 q 859 624 851 546 q 867 765 867 701 q 862 851 867 807 q 840 932 857 894 q 790 992 824 969 q 699 1015 756 1015 q 572 979 628 1015 q 476 881 517 943 q 408 742 436 819 q 363 580 379 664 q 338 416 346 496 q 331 269 331 336 q 368 94 331 160 q 496 29 406 29 m 501 1172 q 543 1263 517 1221 q 609 1331 569 1304 q 700 1357 649 1357 q 771 1342 744 1357 q 822 1311 797 1326 q 881 1296 846 1296 q 953 1318 924 1296 q 993 1358 983 1340 l 1043 1358 q 965 1224 1014 1275 q 842 1174 915 1174 q 772 1189 799 1174 q 720 1219 744 1204 q 658 1235 696 1235 q 591 1217 621 1235 q 549 1172 561 1199 l 501 1172 z "},"Œ":{"ha":1547,"x_min":90,"x_max":1596,"o":"m 468 0 q 311 32 381 0 q 192 119 242 64 q 117 247 143 175 q 90 397 90 318 q 124 584 90 490 q 217 761 158 678 q 355 909 276 844 q 522 1010 433 974 q 704 1047 611 1047 q 840 1015 779 1047 q 942 927 900 983 q 1008 799 985 871 q 1031 647 1031 726 q 999 461 1031 554 q 914 285 968 368 q 788 138 860 201 q 635 37 717 74 q 468 0 553 0 m 460 44 q 588 85 532 44 q 688 195 644 126 q 760 349 731 264 q 809 521 790 433 q 837 687 828 608 q 846 821 846 765 q 836 912 846 871 q 797 978 826 953 q 710 1003 768 1003 q 581 962 638 1003 q 481 852 524 921 q 408 699 439 783 q 359 529 378 615 q 332 366 340 443 q 324 236 324 289 q 360 86 324 128 q 460 44 396 44 m 488 0 l 606 42 l 715 139 l 794 42 l 1131 42 q 1244 65 1193 42 q 1344 148 1296 88 q 1446 322 1393 208 l 1501 322 l 1418 0 l 488 0 m 699 0 l 926 1047 l 1136 1047 l 903 0 l 699 0 m 1206 315 q 1189 444 1206 400 q 1142 503 1172 488 q 1069 519 1111 519 l 949 519 l 949 561 l 1092 561 q 1176 579 1139 561 q 1244 638 1214 597 q 1294 743 1274 678 l 1343 743 l 1253 315 l 1206 315 m 1490 761 q 1470 911 1490 858 q 1401 985 1450 964 q 1267 1006 1353 1006 l 979 1006 l 911 893 l 836 1006 l 711 1047 l 1596 1047 l 1546 761 l 1490 761 z "},"P":{"ha":949,"x_min":-7,"x_max":993,"o":"m 247 483 l 247 518 l 514 518 q 698 597 633 518 q 763 839 763 676 q 750 935 763 899 q 702 989 738 972 q 597 1006 667 1006 l 168 1006 l 168 1047 l 614 1047 q 897 979 801 1047 q 993 793 993 911 q 933 630 993 700 q 757 522 872 560 q 475 483 642 483 l 247 483 m -7 0 l -7 43 l 422 43 l 422 0 l -7 0 m 86 0 l 314 1047 l 524 1047 l 290 0 l 86 0 z "},"Þ":{"ha":892,"x_min":-14,"x_max":939,"o":"m 79 0 l 307 1047 l 517 1047 l 283 0 l 79 0 m -14 0 l -14 43 l 415 43 l 415 0 l -14 0 m 193 243 l 193 278 l 460 278 q 644 357 579 278 q 708 599 708 436 q 696 695 708 658 q 648 749 683 732 q 543 765 613 765 l 308 765 l 308 807 l 560 807 q 843 739 747 807 q 939 553 939 671 q 878 390 939 460 q 703 281 818 319 q 421 243 588 243 l 193 243 m 200 1004 l 200 1047 l 629 1047 l 629 1004 l 200 1004 z "},"Q":{"ha":1096,"x_min":94,"x_max":1125,"o":"m 490 -15 q 326 18 399 -15 q 201 109 253 51 q 122 241 149 167 q 94 397 94 315 q 129 588 94 493 q 226 768 164 683 q 368 919 288 853 q 541 1022 449 985 q 729 1060 633 1060 q 894 1026 821 1060 q 1019 935 967 993 q 1098 803 1071 878 q 1125 647 1125 729 q 1090 456 1125 551 q 994 276 1056 361 q 851 126 932 192 q 678 22 771 60 q 490 -15 586 -15 m 682 -336 q 431 -265 519 -336 q 343 -56 343 -194 q 345 -18 343 -40 q 349 21 347 4 l 578 17 q 570 -47 572 -14 q 568 -118 568 -79 q 611 -240 568 -201 q 731 -278 654 -278 q 776 -275 751 -278 q 828 -267 801 -272 l 838 -322 q 756 -333 794 -329 q 682 -336 717 -336 m 485 29 q 620 71 561 29 q 724 183 679 113 q 801 340 769 254 q 853 515 833 425 q 883 684 874 604 q 892 821 892 764 q 880 917 892 874 q 835 988 868 961 q 735 1015 801 1015 q 599 974 658 1015 q 494 862 539 932 q 417 707 449 792 q 366 534 386 622 q 337 368 346 446 q 328 236 328 290 q 370 74 328 118 q 485 29 413 29 z "},"R":{"ha":1004,"x_min":-1,"x_max":1017,"o":"m 92 0 l 319 1047 l 529 1047 l 296 0 l 92 0 m -1 0 l -1 43 l 428 43 l 428 0 l -1 0 m 850 -15 q 741 3 783 -15 q 674 55 699 22 q 637 131 649 88 q 622 223 625 174 q 615 324 618 272 q 606 426 614 378 q 566 504 597 474 q 464 535 535 535 l 635 543 l 635 538 q 738 492 697 519 q 802 428 778 465 q 838 340 826 390 q 854 224 850 289 q 860 138 858 176 q 876 76 863 99 q 925 53 889 53 q 960 59 944 53 q 994 75 976 65 l 1017 35 q 950 -1 992 13 q 850 -15 908 -15 m 253 535 l 253 576 l 519 576 q 703 651 639 576 q 768 853 768 725 q 754 940 768 906 q 705 990 740 974 q 603 1006 669 1006 l 174 1006 l 174 1047 l 619 1047 q 903 978 807 1047 q 999 803 999 910 q 865 604 999 674 q 481 535 731 535 l 253 535 z "},"Ŕ":{"ha":1004,"x_min":-1,"x_max":1017,"o":"m 92 0 l 319 1047 l 529 1047 l 296 0 l 92 0 m -1 0 l -1 43 l 428 43 l 428 0 l -1 0 m 850 -15 q 741 3 783 -15 q 674 55 699 22 q 637 131 649 88 q 622 223 625 174 q 615 324 618 272 q 606 426 614 378 q 566 504 597 474 q 464 535 535 535 l 635 543 l 635 538 q 738 492 697 519 q 802 428 778 465 q 838 340 826 390 q 854 224 850 289 q 860 138 858 176 q 876 76 863 99 q 925 53 889 53 q 960 59 944 53 q 994 75 976 65 l 1017 35 q 950 -1 992 13 q 850 -15 908 -15 m 253 535 l 253 576 l 519 576 q 703 651 639 576 q 768 853 768 725 q 754 940 768 906 q 705 990 740 974 q 603 1006 669 1006 l 174 1006 l 174 1047 l 619 1047 q 903 978 807 1047 q 999 803 999 910 q 865 604 999 674 q 481 535 731 535 l 253 535 m 503 1174 l 747 1325 q 813 1359 788 1349 q 867 1369 838 1369 q 926 1349 906 1369 q 947 1301 947 1328 q 930 1257 947 1279 q 874 1228 913 1235 l 599 1174 l 503 1174 z "},"Ř":{"ha":1004,"x_min":-1,"x_max":1017,"o":"m 92 0 l 319 1047 l 529 1047 l 296 0 l 92 0 m -1 0 l -1 43 l 428 43 l 428 0 l -1 0 m 850 -15 q 741 3 783 -15 q 674 55 699 22 q 637 131 649 88 q 622 223 625 174 q 615 324 618 272 q 606 426 614 378 q 566 504 597 474 q 464 535 535 535 l 635 543 l 635 538 q 738 492 697 519 q 802 428 778 465 q 838 340 826 390 q 854 224 850 289 q 860 138 858 176 q 876 76 863 99 q 925 53 889 53 q 960 59 944 53 q 994 75 976 65 l 1017 35 q 950 -1 992 13 q 850 -15 908 -15 m 253 535 l 253 576 l 519 576 q 703 651 639 576 q 768 853 768 725 q 754 940 768 906 q 705 990 740 974 q 603 1006 669 1006 l 174 1006 l 174 1047 l 619 1047 q 903 978 807 1047 q 999 803 999 910 q 865 604 999 674 q 481 535 731 535 l 253 535 m 650 1172 l 479 1356 l 544 1356 l 714 1293 l 911 1356 l 975 1356 l 728 1172 l 650 1172 z "},"Ŗ":{"ha":1004,"x_min":-1,"x_max":1017,"o":"m 92 0 l 319 1047 l 529 1047 l 296 0 l 92 0 m -1 0 l -1 43 l 428 43 l 428 0 l -1 0 m 850 -15 q 741 3 783 -15 q 674 55 699 22 q 637 131 649 88 q 622 223 625 174 q 615 324 618 272 q 606 426 614 378 q 566 504 597 474 q 464 535 535 535 l 635 543 l 635 538 q 738 492 697 519 q 802 428 778 465 q 838 340 826 390 q 854 224 850 289 q 860 138 858 176 q 876 76 863 99 q 925 53 889 53 q 960 59 944 53 q 994 75 976 65 l 1017 35 q 950 -1 992 13 q 850 -15 908 -15 m 253 535 l 253 576 l 519 576 q 703 651 639 576 q 768 853 768 725 q 754 940 768 906 q 705 990 740 974 q 603 1006 669 1006 l 174 1006 l 174 1047 l 619 1047 q 903 978 807 1047 q 999 803 999 910 q 865 604 999 674 q 481 535 731 535 l 253 535 m 299 -437 l 279 -397 q 417 -335 364 -369 q 469 -261 469 -300 q 463 -238 469 -246 q 451 -231 457 -231 q 436 -244 444 -231 q 413 -270 428 -257 q 369 -283 399 -283 q 313 -257 331 -283 q 294 -200 294 -231 q 330 -124 294 -151 q 413 -96 365 -96 q 483 -117 457 -96 q 522 -170 510 -139 q 533 -232 533 -201 q 472 -352 533 -303 q 299 -437 411 -401 z "},"Ȑ":{"ha":1004,"x_min":-1,"x_max":1017,"o":"m 92 0 l 319 1047 l 529 1047 l 296 0 l 92 0 m -1 0 l -1 43 l 428 43 l 428 0 l -1 0 m 850 -15 q 741 3 783 -15 q 674 55 699 22 q 637 131 649 88 q 622 223 625 174 q 615 324 618 272 q 606 426 614 378 q 566 504 597 474 q 464 535 535 535 l 635 543 l 635 538 q 738 492 697 519 q 802 428 778 465 q 838 340 826 390 q 854 224 850 289 q 860 138 858 176 q 876 76 863 99 q 925 53 889 53 q 960 59 944 53 q 994 75 976 65 l 1017 35 q 950 -1 992 13 q 850 -15 908 -15 m 253 535 l 253 576 l 519 576 q 703 651 639 576 q 768 853 768 725 q 754 940 768 906 q 705 990 740 974 q 603 1006 669 1006 l 174 1006 l 174 1047 l 619 1047 q 903 978 807 1047 q 999 803 999 910 q 865 604 999 674 q 481 535 731 535 l 253 535 m 900 1172 l 690 1222 q 639 1250 656 1231 q 622 1290 622 1269 q 641 1333 622 1314 q 694 1353 660 1353 q 747 1345 722 1353 q 806 1313 772 1338 l 988 1172 l 900 1172 m 579 1172 l 369 1222 q 318 1250 335 1231 q 301 1290 301 1269 q 320 1333 301 1314 q 374 1353 339 1353 q 426 1345 401 1353 q 485 1313 451 1338 l 667 1172 l 579 1172 z "},"Ṛ":{"ha":1004,"x_min":-1,"x_max":1017,"o":"m 92 0 l 319 1047 l 529 1047 l 296 0 l 92 0 m -1 0 l -1 43 l 428 43 l 428 0 l -1 0 m 850 -15 q 741 3 783 -15 q 674 55 699 22 q 637 131 649 88 q 622 223 625 174 q 615 324 618 272 q 606 426 614 378 q 566 504 597 474 q 464 535 535 535 l 635 543 l 635 538 q 738 492 697 519 q 802 428 778 465 q 838 340 826 390 q 854 224 850 289 q 860 138 858 176 q 876 76 863 99 q 925 53 889 53 q 960 59 944 53 q 994 75 976 65 l 1017 35 q 950 -1 992 13 q 850 -15 908 -15 m 253 535 l 253 576 l 519 576 q 703 651 639 576 q 768 853 768 725 q 754 940 768 906 q 705 990 740 974 q 603 1006 669 1006 l 174 1006 l 174 1047 l 619 1047 q 903 978 807 1047 q 999 803 999 910 q 865 604 999 674 q 481 535 731 535 l 253 535 m 381 -324 q 303 -290 336 -324 q 269 -212 269 -257 q 303 -133 269 -167 q 381 -100 336 -100 q 460 -133 426 -100 q 493 -212 493 -167 q 460 -290 493 -257 q 381 -324 426 -324 z "},"Ȓ":{"ha":1004,"x_min":-1,"x_max":1017,"o":"m 92 0 l 319 1047 l 529 1047 l 296 0 l 92 0 m -1 0 l -1 43 l 428 43 l 428 0 l -1 0 m 850 -15 q 741 3 783 -15 q 674 55 699 22 q 637 131 649 88 q 622 223 625 174 q 615 324 618 272 q 606 426 614 378 q 566 504 597 474 q 464 535 535 535 l 635 543 l 635 538 q 738 492 697 519 q 802 428 778 465 q 838 340 826 390 q 854 224 850 289 q 860 138 858 176 q 876 76 863 99 q 925 53 889 53 q 960 59 944 53 q 994 75 976 65 l 1017 35 q 950 -1 992 13 q 850 -15 908 -15 m 253 535 l 253 576 l 519 576 q 703 651 639 576 q 768 853 768 725 q 754 940 768 906 q 705 990 740 974 q 603 1006 669 1006 l 174 1006 l 174 1047 l 619 1047 q 903 978 807 1047 q 999 803 999 910 q 865 604 999 674 q 481 535 731 535 l 253 535 m 488 1172 q 572 1319 507 1267 q 733 1372 636 1372 q 858 1340 813 1372 q 904 1233 904 1307 q 896 1172 904 1208 l 842 1172 q 814 1245 854 1222 q 713 1268 774 1268 q 600 1245 647 1268 q 542 1172 553 1222 l 488 1172 z "},"S":{"ha":807,"x_min":21,"x_max":815,"o":"m 381 -18 q 242 6 303 -18 q 139 68 182 29 l 69 0 l 21 0 l 72 296 l 114 296 q 381 31 164 31 q 510 60 458 31 q 590 133 563 89 q 617 224 617 176 q 585 313 617 278 q 502 375 553 349 q 394 428 451 401 q 287 490 338 454 q 204 579 236 525 q 172 715 172 633 q 213 883 172 804 q 330 1010 254 961 q 508 1060 406 1060 q 633 1038 576 1060 q 725 983 690 1017 l 781 1047 l 815 1047 l 768 771 l 726 771 q 694 903 726 850 q 610 984 663 957 q 493 1011 557 1011 q 393 990 435 1011 q 329 935 351 969 q 307 858 307 900 q 340 772 307 806 q 424 714 372 739 q 532 663 475 689 q 640 598 589 636 q 724 501 692 560 q 757 351 757 442 q 708 160 757 243 q 574 29 658 76 q 381 -18 489 -18 z "},"Ś":{"ha":807,"x_min":21,"x_max":849,"o":"m 381 -18 q 242 6 303 -18 q 139 68 182 29 l 69 0 l 21 0 l 72 296 l 114 296 q 381 31 164 31 q 510 60 458 31 q 590 133 563 89 q 617 224 617 176 q 585 313 617 278 q 502 375 553 349 q 394 428 451 401 q 287 490 338 454 q 204 579 236 525 q 172 715 172 633 q 213 883 172 804 q 330 1010 254 961 q 508 1060 406 1060 q 633 1038 576 1060 q 725 983 690 1017 l 781 1047 l 815 1047 l 768 771 l 726 771 q 694 903 726 850 q 610 984 663 957 q 493 1011 557 1011 q 393 990 435 1011 q 329 935 351 969 q 307 858 307 900 q 340 772 307 806 q 424 714 372 739 q 532 663 475 689 q 640 598 589 636 q 724 501 692 560 q 757 351 757 442 q 708 160 757 243 q 574 29 658 76 q 381 -18 489 -18 m 404 1174 l 649 1325 q 714 1359 689 1349 q 768 1369 739 1369 q 828 1349 807 1369 q 849 1301 849 1328 q 831 1257 849 1279 q 775 1228 814 1235 l 500 1174 l 404 1174 z "},"Š":{"ha":807,"x_min":21,"x_max":876,"o":"m 381 -18 q 242 6 303 -18 q 139 68 182 29 l 69 0 l 21 0 l 72 296 l 114 296 q 381 31 164 31 q 510 60 458 31 q 590 133 563 89 q 617 224 617 176 q 585 313 617 278 q 502 375 553 349 q 394 428 451 401 q 287 490 338 454 q 204 579 236 525 q 172 715 172 633 q 213 883 172 804 q 330 1010 254 961 q 508 1060 406 1060 q 633 1038 576 1060 q 725 983 690 1017 l 781 1047 l 815 1047 l 768 771 l 726 771 q 694 903 726 850 q 610 984 663 957 q 493 1011 557 1011 q 393 990 435 1011 q 329 935 351 969 q 307 858 307 900 q 340 772 307 806 q 424 714 372 739 q 532 663 475 689 q 640 598 589 636 q 724 501 692 560 q 757 351 757 442 q 708 160 757 243 q 574 29 658 76 q 381 -18 489 -18 m 551 1172 l 381 1356 l 446 1356 l 615 1293 l 813 1356 l 876 1356 l 629 1172 l 551 1172 z "},"Ş":{"ha":807,"x_min":21,"x_max":815,"o":"m 381 -18 q 242 6 303 -18 q 139 68 182 29 l 69 0 l 21 0 l 72 296 l 114 296 q 381 31 164 31 q 510 60 458 31 q 590 133 563 89 q 617 224 617 176 q 585 313 617 278 q 502 375 553 349 q 394 428 451 401 q 287 490 338 454 q 204 579 236 525 q 172 715 172 633 q 213 883 172 804 q 330 1010 254 961 q 508 1060 406 1060 q 633 1038 576 1060 q 725 983 690 1017 l 781 1047 l 815 1047 l 768 771 l 726 771 q 694 903 726 850 q 610 984 663 957 q 493 1011 557 1011 q 393 990 435 1011 q 329 935 351 969 q 307 858 307 900 q 340 772 307 806 q 424 714 372 739 q 532 663 475 689 q 640 598 589 636 q 724 501 692 560 q 757 351 757 442 q 708 160 757 243 q 574 29 658 76 q 381 -18 489 -18 m 281 -339 q 211 -331 238 -339 q 174 -315 185 -322 l 197 -261 q 227 -272 204 -267 q 274 -276 250 -276 q 347 -258 319 -276 q 374 -207 374 -240 q 353 -168 374 -183 q 276 -151 333 -153 l 368 1 l 433 1 l 374 -104 l 400 -104 q 485 -128 456 -104 q 514 -194 514 -153 q 477 -276 514 -243 q 387 -324 440 -308 q 281 -339 333 -339 z "},"Ŝ":{"ha":807,"x_min":21,"x_max":840,"o":"m 381 -18 q 242 6 303 -18 q 139 68 182 29 l 69 0 l 21 0 l 72 296 l 114 296 q 381 31 164 31 q 510 60 458 31 q 590 133 563 89 q 617 224 617 176 q 585 313 617 278 q 502 375 553 349 q 394 428 451 401 q 287 490 338 454 q 204 579 236 525 q 172 715 172 633 q 213 883 172 804 q 330 1010 254 961 q 508 1060 406 1060 q 633 1038 576 1060 q 725 983 690 1017 l 781 1047 l 815 1047 l 768 771 l 726 771 q 694 903 726 850 q 610 984 663 957 q 493 1011 557 1011 q 393 990 435 1011 q 329 935 351 969 q 307 858 307 900 q 340 772 307 806 q 424 714 372 739 q 532 663 475 689 q 640 598 589 636 q 724 501 692 560 q 757 351 757 442 q 708 160 757 243 q 574 29 658 76 q 381 -18 489 -18 m 344 1172 l 592 1356 l 669 1356 l 840 1172 l 775 1172 l 606 1235 l 408 1172 l 344 1172 z "},"Ș":{"ha":807,"x_min":21,"x_max":815,"o":"m 381 -18 q 242 6 303 -18 q 139 68 182 29 l 69 0 l 21 0 l 72 296 l 114 296 q 381 31 164 31 q 510 60 458 31 q 590 133 563 89 q 617 224 617 176 q 585 313 617 278 q 502 375 553 349 q 394 428 451 401 q 287 490 338 454 q 204 579 236 525 q 172 715 172 633 q 213 883 172 804 q 330 1010 254 961 q 508 1060 406 1060 q 633 1038 576 1060 q 725 983 690 1017 l 781 1047 l 815 1047 l 768 771 l 726 771 q 694 903 726 850 q 610 984 663 957 q 493 1011 557 1011 q 393 990 435 1011 q 329 935 351 969 q 307 858 307 900 q 340 772 307 806 q 424 714 372 739 q 532 663 475 689 q 640 598 589 636 q 724 501 692 560 q 757 351 757 442 q 708 160 757 243 q 574 29 658 76 q 381 -18 489 -18 m 258 -450 l 239 -410 q 376 -347 324 -382 q 429 -274 429 -312 q 423 -251 429 -258 q 411 -243 417 -243 q 396 -256 404 -243 q 373 -283 388 -269 q 329 -296 358 -296 q 272 -269 290 -296 q 254 -212 254 -243 q 290 -136 254 -164 q 372 -108 325 -108 q 443 -130 417 -108 q 481 -183 469 -151 q 493 -244 493 -214 q 432 -365 493 -315 q 258 -450 371 -414 z "},"Ṣ":{"ha":807,"x_min":21,"x_max":815,"o":"m 381 -18 q 242 6 303 -18 q 139 68 182 29 l 69 0 l 21 0 l 72 296 l 114 296 q 381 31 164 31 q 510 60 458 31 q 590 133 563 89 q 617 224 617 176 q 585 313 617 278 q 502 375 553 349 q 394 428 451 401 q 287 490 338 454 q 204 579 236 525 q 172 715 172 633 q 213 883 172 804 q 330 1010 254 961 q 508 1060 406 1060 q 633 1038 576 1060 q 725 983 690 1017 l 781 1047 l 815 1047 l 768 771 l 726 771 q 694 903 726 850 q 610 984 663 957 q 493 1011 557 1011 q 393 990 435 1011 q 329 935 351 969 q 307 858 307 900 q 340 772 307 806 q 424 714 372 739 q 532 663 475 689 q 640 598 589 636 q 724 501 692 560 q 757 351 757 442 q 708 160 757 243 q 574 29 658 76 q 381 -18 489 -18 m 340 -336 q 263 -303 296 -336 q 229 -225 229 -269 q 263 -146 229 -179 q 340 -112 296 -112 q 419 -146 386 -112 q 453 -225 453 -179 q 419 -303 453 -269 q 340 -336 386 -336 z "},"T":{"ha":974,"x_min":122,"x_max":1075,"o":"m 319 0 l 547 1047 l 757 1047 l 524 0 l 319 0 m 185 0 l 185 43 l 711 43 l 711 0 l 185 0 m 122 713 l 222 1047 l 1075 1047 l 1029 713 l 981 713 q 966 892 981 829 q 909 981 951 956 q 785 1006 867 1006 l 478 1006 q 314 935 397 1006 q 171 713 231 864 l 122 713 z "},"Ŧ":{"ha":974,"x_min":122,"x_max":1075,"o":"m 319 0 l 547 1047 l 757 1047 l 524 0 l 319 0 m 185 0 l 185 43 l 711 43 l 711 0 l 185 0 m 122 713 l 222 1047 l 1075 1047 l 1029 713 l 981 713 q 966 892 981 829 q 909 981 951 956 q 785 1006 867 1006 l 478 1006 q 314 935 397 1006 q 171 713 231 864 l 122 713 m 282 496 l 282 551 l 789 551 l 789 496 l 282 496 z "},"Ť":{"ha":974,"x_min":122,"x_max":1075,"o":"m 319 0 l 547 1047 l 757 1047 l 524 0 l 319 0 m 185 0 l 185 43 l 711 43 l 711 0 l 185 0 m 122 713 l 222 1047 l 1075 1047 l 1029 713 l 981 713 q 966 892 981 829 q 909 981 951 956 q 785 1006 867 1006 l 478 1006 q 314 935 397 1006 q 171 713 231 864 l 122 713 m 635 1172 l 464 1356 l 529 1356 l 699 1293 l 896 1356 l 960 1356 l 713 1172 l 635 1172 z "},"Ţ":{"ha":974,"x_min":122,"x_max":1075,"o":"m 319 0 l 547 1047 l 757 1047 l 524 0 l 319 0 m 185 0 l 185 43 l 711 43 l 711 0 l 185 0 m 122 713 l 222 1047 l 1075 1047 l 1029 713 l 981 713 q 966 892 981 829 q 909 981 951 956 q 785 1006 867 1006 l 478 1006 q 314 935 397 1006 q 171 713 231 864 l 122 713 m 313 -326 q 243 -318 269 -326 q 206 -303 217 -310 l 229 -249 q 259 -259 236 -254 q 306 -264 282 -264 q 378 -246 351 -264 q 406 -194 406 -228 q 385 -156 406 -171 q 308 -139 365 -140 l 400 14 l 465 14 l 406 -92 l 432 -92 q 517 -116 488 -92 q 546 -182 546 -140 q 509 -263 546 -231 q 419 -311 472 -296 q 313 -326 365 -326 z "},"Ț":{"ha":974,"x_min":122,"x_max":1075,"o":"m 319 0 l 547 1047 l 757 1047 l 524 0 l 319 0 m 185 0 l 185 43 l 711 43 l 711 0 l 185 0 m 122 713 l 222 1047 l 1075 1047 l 1029 713 l 981 713 q 966 892 981 829 q 909 981 951 956 q 785 1006 867 1006 l 478 1006 q 314 935 397 1006 q 171 713 231 864 l 122 713 m 290 -437 l 271 -397 q 408 -335 356 -369 q 461 -261 461 -300 q 455 -238 461 -246 q 443 -231 449 -231 q 428 -244 436 -231 q 405 -270 419 -257 q 361 -283 390 -283 q 304 -257 322 -283 q 286 -200 286 -231 q 322 -124 286 -151 q 404 -96 357 -96 q 475 -117 449 -96 q 513 -170 501 -139 q 525 -232 525 -201 q 464 -352 525 -303 q 290 -437 403 -401 z "},"Ṭ":{"ha":974,"x_min":122,"x_max":1075,"o":"m 319 0 l 547 1047 l 757 1047 l 524 0 l 319 0 m 185 0 l 185 43 l 711 43 l 711 0 l 185 0 m 122 713 l 222 1047 l 1075 1047 l 1029 713 l 981 713 q 966 892 981 829 q 909 981 951 956 q 785 1006 867 1006 l 478 1006 q 314 935 397 1006 q 171 713 231 864 l 122 713 m 372 -324 q 294 -290 328 -324 q 261 -212 261 -257 q 294 -133 261 -167 q 372 -100 328 -100 q 451 -133 418 -100 q 485 -212 485 -167 q 451 -290 485 -257 q 372 -324 418 -324 z "},"U":{"ha":1044,"x_min":158,"x_max":1164,"o":"m 507 -15 q 244 56 331 -15 q 158 236 158 126 q 160 274 158 254 q 167 314 163 293 l 325 1047 l 535 1047 l 371 314 q 364 272 367 293 q 361 233 361 251 q 414 92 361 140 q 553 43 467 43 q 729 108 650 43 q 839 314 808 172 l 997 1047 l 1053 1047 l 894 314 q 826 132 871 206 q 705 22 782 58 q 507 -15 628 -15 m 158 1006 l 158 1047 l 657 1047 l 657 1006 l 158 1006 m 849 1006 l 849 1047 l 1164 1047 l 1164 1006 l 849 1006 z "},"Ú":{"ha":1044,"x_min":158,"x_max":1164,"o":"m 507 -15 q 244 56 331 -15 q 158 236 158 126 q 160 274 158 254 q 167 314 163 293 l 325 1047 l 535 1047 l 371 314 q 364 272 367 293 q 361 233 361 251 q 414 92 361 140 q 553 43 467 43 q 729 108 650 43 q 839 314 808 172 l 997 1047 l 1053 1047 l 894 314 q 826 132 871 206 q 705 22 782 58 q 507 -15 628 -15 m 158 1006 l 158 1047 l 657 1047 l 657 1006 l 158 1006 m 849 1006 l 849 1047 l 1164 1047 l 1164 1006 l 849 1006 m 583 1174 l 828 1325 q 893 1359 868 1349 q 947 1369 918 1369 q 1007 1349 986 1369 q 1028 1301 1028 1328 q 1010 1257 1028 1279 q 954 1228 993 1235 l 679 1174 l 583 1174 z "},"Ŭ":{"ha":1044,"x_min":158,"x_max":1164,"o":"m 507 -15 q 244 56 331 -15 q 158 236 158 126 q 160 274 158 254 q 167 314 163 293 l 325 1047 l 535 1047 l 371 314 q 364 272 367 293 q 361 233 361 251 q 414 92 361 140 q 553 43 467 43 q 729 108 650 43 q 839 314 808 172 l 997 1047 l 1053 1047 l 894 314 q 826 132 871 206 q 705 22 782 58 q 507 -15 628 -15 m 158 1006 l 158 1047 l 657 1047 l 657 1006 l 158 1006 m 849 1006 l 849 1047 l 1164 1047 l 1164 1006 l 849 1006 m 768 1174 q 631 1218 678 1174 q 606 1360 583 1263 l 660 1360 q 670 1308 651 1326 q 722 1284 689 1290 q 789 1278 756 1278 q 863 1284 826 1278 q 926 1308 899 1290 q 960 1360 953 1326 l 1014 1360 q 926 1219 996 1265 q 768 1174 856 1174 z "},"Û":{"ha":1044,"x_min":158,"x_max":1164,"o":"m 507 -15 q 244 56 331 -15 q 158 236 158 126 q 160 274 158 254 q 167 314 163 293 l 325 1047 l 535 1047 l 371 314 q 364 272 367 293 q 361 233 361 251 q 414 92 361 140 q 553 43 467 43 q 729 108 650 43 q 839 314 808 172 l 997 1047 l 1053 1047 l 894 314 q 826 132 871 206 q 705 22 782 58 q 507 -15 628 -15 m 158 1006 l 158 1047 l 657 1047 l 657 1006 l 158 1006 m 849 1006 l 849 1047 l 1164 1047 l 1164 1006 l 849 1006 m 524 1172 l 771 1356 l 849 1356 l 1019 1172 l 954 1172 l 785 1235 l 588 1172 l 524 1172 z "},"Ȕ":{"ha":1044,"x_min":158,"x_max":1164,"o":"m 507 -15 q 244 56 331 -15 q 158 236 158 126 q 160 274 158 254 q 167 314 163 293 l 325 1047 l 535 1047 l 371 314 q 364 272 367 293 q 361 233 361 251 q 414 92 361 140 q 553 43 467 43 q 729 108 650 43 q 839 314 808 172 l 997 1047 l 1053 1047 l 894 314 q 826 132 871 206 q 705 22 782 58 q 507 -15 628 -15 m 158 1006 l 158 1047 l 657 1047 l 657 1006 l 158 1006 m 849 1006 l 849 1047 l 1164 1047 l 1164 1006 l 849 1006 m 981 1172 l 771 1222 q 719 1250 736 1231 q 703 1290 703 1269 q 722 1333 703 1314 q 775 1353 740 1353 q 828 1345 803 1353 q 886 1313 853 1338 l 1068 1172 l 981 1172 m 660 1172 l 450 1222 q 399 1250 415 1231 q 382 1290 382 1269 q 401 1333 382 1314 q 454 1353 419 1353 q 507 1345 482 1353 q 565 1313 532 1338 l 747 1172 l 660 1172 z "},"Ü":{"ha":1044,"x_min":158,"x_max":1164,"o":"m 507 -15 q 244 56 331 -15 q 158 236 158 126 q 160 274 158 254 q 167 314 163 293 l 325 1047 l 535 1047 l 371 314 q 364 272 367 293 q 361 233 361 251 q 414 92 361 140 q 553 43 467 43 q 729 108 650 43 q 839 314 808 172 l 997 1047 l 1053 1047 l 894 314 q 826 132 871 206 q 705 22 782 58 q 507 -15 628 -15 m 158 1006 l 158 1047 l 657 1047 l 657 1006 l 158 1006 m 849 1006 l 849 1047 l 1164 1047 l 1164 1006 l 849 1006 m 932 1203 q 861 1232 892 1203 q 831 1303 831 1261 q 861 1374 831 1344 q 932 1403 892 1403 q 1004 1374 975 1403 q 1033 1303 1033 1344 q 1004 1232 1033 1261 q 932 1203 975 1203 m 640 1203 q 568 1232 597 1203 q 539 1303 539 1261 q 568 1374 539 1344 q 640 1403 597 1403 q 711 1374 681 1403 q 742 1303 742 1344 q 711 1232 742 1261 q 640 1203 681 1203 z "},"Ụ":{"ha":1044,"x_min":158,"x_max":1164,"o":"m 507 -15 q 244 56 331 -15 q 158 236 158 126 q 160 274 158 254 q 167 314 163 293 l 325 1047 l 535 1047 l 371 314 q 364 272 367 293 q 361 233 361 251 q 414 92 361 140 q 553 43 467 43 q 729 108 650 43 q 839 314 808 172 l 997 1047 l 1053 1047 l 894 314 q 826 132 871 206 q 705 22 782 58 q 507 -15 628 -15 m 158 1006 l 158 1047 l 657 1047 l 657 1006 l 158 1006 m 849 1006 l 849 1047 l 1164 1047 l 1164 1006 l 849 1006 m 400 -324 q 322 -290 356 -324 q 289 -212 289 -257 q 322 -133 289 -167 q 400 -100 356 -100 q 479 -133 446 -100 q 513 -212 513 -167 q 479 -290 513 -257 q 400 -324 446 -324 z "},"Ù":{"ha":1044,"x_min":158,"x_max":1164,"o":"m 507 -15 q 244 56 331 -15 q 158 236 158 126 q 160 274 158 254 q 167 314 163 293 l 325 1047 l 535 1047 l 371 314 q 364 272 367 293 q 361 233 361 251 q 414 92 361 140 q 553 43 467 43 q 729 108 650 43 q 839 314 808 172 l 997 1047 l 1053 1047 l 894 314 q 826 132 871 206 q 705 22 782 58 q 507 -15 628 -15 m 158 1006 l 158 1047 l 657 1047 l 657 1006 l 158 1006 m 849 1006 l 849 1047 l 1164 1047 l 1164 1006 l 849 1006 m 904 1172 l 629 1226 q 573 1256 590 1233 q 556 1300 556 1278 q 576 1347 556 1326 q 636 1368 597 1368 q 691 1358 665 1368 q 756 1324 717 1347 l 1000 1172 l 904 1172 z "},"Ủ":{"ha":1044,"x_min":158,"x_max":1164,"o":"m 507 -15 q 244 56 331 -15 q 158 236 158 126 q 160 274 158 254 q 167 314 163 293 l 325 1047 l 535 1047 l 371 314 q 364 272 367 293 q 361 233 361 251 q 414 92 361 140 q 553 43 467 43 q 729 108 650 43 q 839 314 808 172 l 997 1047 l 1053 1047 l 894 314 q 826 132 871 206 q 705 22 782 58 q 507 -15 628 -15 m 158 1006 l 158 1047 l 657 1047 l 657 1006 l 158 1006 m 849 1006 l 849 1047 l 1164 1047 l 1164 1006 l 849 1006 m 767 1143 q 790 1201 774 1179 q 823 1239 806 1224 q 853 1267 840 1254 q 865 1299 865 1281 q 855 1337 865 1322 q 814 1351 844 1351 q 765 1337 785 1351 q 743 1307 746 1322 q 747 1286 742 1290 q 758 1276 753 1282 q 761 1251 764 1271 q 738 1224 758 1232 q 700 1215 718 1215 q 664 1232 675 1215 q 653 1274 653 1249 q 679 1353 653 1324 q 745 1397 706 1383 q 826 1411 785 1411 q 922 1383 896 1411 q 949 1307 949 1356 q 931 1252 949 1272 q 890 1217 914 1232 q 847 1185 867 1201 q 821 1143 826 1169 l 767 1143 z "},"Ư":{"ha":1044,"x_min":158,"x_max":1293,"o":"m 507 -15 q 244 56 331 -15 q 158 236 158 126 q 160 274 158 254 q 167 314 163 293 l 325 1047 l 535 1047 l 371 314 q 364 272 367 293 q 361 233 361 251 q 414 92 361 140 q 553 43 467 43 q 729 108 650 43 q 839 314 808 172 l 997 1047 l 1053 1047 l 894 314 q 826 132 871 206 q 705 22 782 58 q 507 -15 628 -15 m 158 1006 l 158 1047 l 657 1047 l 657 1006 l 158 1006 m 849 1006 l 849 1047 l 1164 1047 l 1164 1006 l 849 1006 m 1036 994 l 1043 1047 q 1145 1074 1117 1047 q 1188 1157 1174 1100 l 1293 1157 q 1250 1052 1281 1088 q 1167 1006 1219 1017 q 1036 994 1115 994 z "},"Ứ":{"ha":1044,"x_min":158,"x_max":1293,"o":"m 507 -15 q 244 56 331 -15 q 158 236 158 126 q 160 274 158 254 q 167 314 163 293 l 325 1047 l 535 1047 l 371 314 q 364 272 367 293 q 361 233 361 251 q 414 92 361 140 q 553 43 467 43 q 729 108 650 43 q 839 314 808 172 l 997 1047 l 1053 1047 l 894 314 q 826 132 871 206 q 705 22 782 58 q 507 -15 628 -15 m 158 1006 l 158 1047 l 657 1047 l 657 1006 l 158 1006 m 849 1006 l 849 1047 l 1164 1047 l 1164 1006 l 849 1006 m 1036 994 l 1043 1047 q 1145 1074 1117 1047 q 1188 1157 1174 1100 l 1293 1157 q 1250 1052 1281 1088 q 1167 1006 1219 1017 q 1036 994 1115 994 m 522 1132 l 767 1283 q 832 1317 807 1307 q 886 1328 857 1328 q 946 1307 925 1328 q 967 1260 967 1286 q 949 1215 967 1238 q 893 1186 932 1193 l 618 1132 l 522 1132 z "},"Ự":{"ha":1044,"x_min":158,"x_max":1293,"o":"m 507 -15 q 244 56 331 -15 q 158 236 158 126 q 160 274 158 254 q 167 314 163 293 l 325 1047 l 535 1047 l 371 314 q 364 272 367 293 q 361 233 361 251 q 414 92 361 140 q 553 43 467 43 q 729 108 650 43 q 839 314 808 172 l 997 1047 l 1053 1047 l 894 314 q 826 132 871 206 q 705 22 782 58 q 507 -15 628 -15 m 158 1006 l 158 1047 l 657 1047 l 657 1006 l 158 1006 m 849 1006 l 849 1047 l 1164 1047 l 1164 1006 l 849 1006 m 1036 994 l 1043 1047 q 1145 1074 1117 1047 q 1188 1157 1174 1100 l 1293 1157 q 1250 1052 1281 1088 q 1167 1006 1219 1017 q 1036 994 1115 994 m 400 -324 q 322 -290 356 -324 q 289 -212 289 -257 q 322 -133 289 -167 q 400 -100 356 -100 q 479 -133 446 -100 q 513 -212 513 -167 q 479 -290 513 -257 q 400 -324 446 -324 z "},"Ừ":{"ha":1044,"x_min":158,"x_max":1293,"o":"m 507 -15 q 244 56 331 -15 q 158 236 158 126 q 160 274 158 254 q 167 314 163 293 l 325 1047 l 535 1047 l 371 314 q 364 272 367 293 q 361 233 361 251 q 414 92 361 140 q 553 43 467 43 q 729 108 650 43 q 839 314 808 172 l 997 1047 l 1053 1047 l 894 314 q 826 132 871 206 q 705 22 782 58 q 507 -15 628 -15 m 158 1006 l 158 1047 l 657 1047 l 657 1006 l 158 1006 m 849 1006 l 849 1047 l 1164 1047 l 1164 1006 l 849 1006 m 1036 994 l 1043 1047 q 1145 1074 1117 1047 q 1188 1157 1174 1100 l 1293 1157 q 1250 1052 1281 1088 q 1167 1006 1219 1017 q 1036 994 1115 994 m 843 1172 l 568 1226 q 512 1256 529 1233 q 494 1300 494 1278 q 515 1347 494 1326 q 575 1368 536 1368 q 630 1358 604 1368 q 694 1324 656 1347 l 939 1172 l 843 1172 z "},"Ử":{"ha":1044,"x_min":158,"x_max":1293,"o":"m 507 -15 q 244 56 331 -15 q 158 236 158 126 q 160 274 158 254 q 167 314 163 293 l 325 1047 l 535 1047 l 371 314 q 364 272 367 293 q 361 233 361 251 q 414 92 361 140 q 553 43 467 43 q 729 108 650 43 q 839 314 808 172 l 997 1047 l 1053 1047 l 894 314 q 826 132 871 206 q 705 22 782 58 q 507 -15 628 -15 m 158 1006 l 158 1047 l 657 1047 l 657 1006 l 158 1006 m 849 1006 l 849 1047 l 1164 1047 l 1164 1006 l 849 1006 m 1036 994 l 1043 1047 q 1145 1074 1117 1047 q 1188 1157 1174 1100 l 1293 1157 q 1250 1052 1281 1088 q 1167 1006 1219 1017 q 1036 994 1115 994 m 706 1143 q 728 1201 713 1179 q 762 1239 744 1224 q 792 1267 779 1254 q 804 1299 804 1281 q 794 1337 804 1322 q 753 1351 783 1351 q 704 1337 724 1351 q 682 1307 685 1322 q 686 1286 681 1290 q 697 1276 692 1282 q 700 1251 703 1271 q 677 1224 697 1232 q 639 1215 657 1215 q 603 1232 614 1215 q 592 1274 592 1249 q 618 1353 592 1324 q 684 1397 644 1383 q 765 1411 724 1411 q 861 1383 835 1411 q 888 1307 888 1356 q 870 1252 888 1272 q 829 1217 853 1232 q 785 1185 806 1201 q 760 1143 765 1169 l 706 1143 z "},"Ữ":{"ha":1044,"x_min":158,"x_max":1293,"o":"m 507 -15 q 244 56 331 -15 q 158 236 158 126 q 160 274 158 254 q 167 314 163 293 l 325 1047 l 535 1047 l 371 314 q 364 272 367 293 q 361 233 361 251 q 414 92 361 140 q 553 43 467 43 q 729 108 650 43 q 839 314 808 172 l 997 1047 l 1053 1047 l 894 314 q 826 132 871 206 q 705 22 782 58 q 507 -15 628 -15 m 158 1006 l 158 1047 l 657 1047 l 657 1006 l 158 1006 m 849 1006 l 849 1047 l 1164 1047 l 1164 1006 l 849 1006 m 1036 994 l 1043 1047 q 1145 1074 1117 1047 q 1188 1157 1174 1100 l 1293 1157 q 1250 1052 1281 1088 q 1167 1006 1219 1017 q 1036 994 1115 994 m 475 1172 q 517 1263 490 1221 q 583 1331 543 1304 q 674 1357 622 1357 q 744 1342 718 1357 q 795 1311 771 1326 q 854 1296 819 1296 q 927 1318 897 1296 q 967 1358 957 1340 l 1017 1358 q 938 1224 988 1275 q 815 1174 889 1174 q 745 1189 772 1174 q 694 1219 718 1204 q 632 1235 669 1235 q 565 1217 594 1235 q 522 1172 535 1199 l 475 1172 z "},"Ű":{"ha":1044,"x_min":158,"x_max":1164,"o":"m 507 -15 q 244 56 331 -15 q 158 236 158 126 q 160 274 158 254 q 167 314 163 293 l 325 1047 l 535 1047 l 371 314 q 364 272 367 293 q 361 233 361 251 q 414 92 361 140 q 553 43 467 43 q 729 108 650 43 q 839 314 808 172 l 997 1047 l 1053 1047 l 894 314 q 826 132 871 206 q 705 22 782 58 q 507 -15 628 -15 m 158 1006 l 158 1047 l 657 1047 l 657 1006 l 158 1006 m 849 1006 l 849 1047 l 1164 1047 l 1164 1006 l 849 1006 m 757 1172 l 939 1313 q 998 1345 972 1338 q 1050 1353 1024 1353 q 1103 1333 1085 1353 q 1122 1290 1122 1314 q 1106 1250 1122 1269 q 1054 1222 1090 1231 l 844 1172 l 757 1172 m 436 1172 l 618 1313 q 677 1345 651 1338 q 729 1353 703 1353 q 783 1333 764 1353 q 801 1290 801 1314 q 785 1250 801 1269 q 733 1222 769 1231 l 524 1172 l 436 1172 z "},"Ȗ":{"ha":1044,"x_min":158,"x_max":1164,"o":"m 507 -15 q 244 56 331 -15 q 158 236 158 126 q 160 274 158 254 q 167 314 163 293 l 325 1047 l 535 1047 l 371 314 q 364 272 367 293 q 361 233 361 251 q 414 92 361 140 q 553 43 467 43 q 729 108 650 43 q 839 314 808 172 l 997 1047 l 1053 1047 l 894 314 q 826 132 871 206 q 705 22 782 58 q 507 -15 628 -15 m 158 1006 l 158 1047 l 657 1047 l 657 1006 l 158 1006 m 849 1006 l 849 1047 l 1164 1047 l 1164 1006 l 849 1006 m 568 1172 q 652 1319 588 1267 q 814 1372 717 1372 q 939 1340 893 1372 q 985 1233 985 1307 q 976 1172 985 1208 l 922 1172 q 894 1245 935 1222 q 793 1268 854 1268 q 681 1245 728 1268 q 622 1172 633 1222 l 568 1172 z "},"Ū":{"ha":1044,"x_min":158,"x_max":1164,"o":"m 507 -15 q 244 56 331 -15 q 158 236 158 126 q 160 274 158 254 q 167 314 163 293 l 325 1047 l 535 1047 l 371 314 q 364 272 367 293 q 361 233 361 251 q 414 92 361 140 q 553 43 467 43 q 729 108 650 43 q 839 314 808 172 l 997 1047 l 1053 1047 l 894 314 q 826 132 871 206 q 705 22 782 58 q 507 -15 628 -15 m 158 1006 l 158 1047 l 657 1047 l 657 1006 l 158 1006 m 849 1006 l 849 1047 l 1164 1047 l 1164 1006 l 849 1006 m 565 1210 l 592 1329 l 1064 1329 l 1038 1210 l 565 1210 z "},"Ų":{"ha":1044,"x_min":158,"x_max":1164,"o":"m 507 -15 q 244 56 331 -15 q 158 236 158 126 q 160 274 158 254 q 167 314 163 293 l 325 1047 l 535 1047 l 371 314 q 364 272 367 293 q 361 233 361 251 q 414 92 361 140 q 553 43 467 43 q 729 108 650 43 q 839 314 808 172 l 997 1047 l 1053 1047 l 894 314 q 826 132 871 206 q 705 22 782 58 q 507 -15 628 -15 m 158 1006 l 158 1047 l 657 1047 l 657 1006 l 158 1006 m 849 1006 l 849 1047 l 1164 1047 l 1164 1006 l 849 1006 m 401 -337 q 310 -312 343 -337 q 278 -242 278 -286 q 340 -123 278 -182 q 542 8 403 -64 l 606 8 q 462 -94 517 -39 q 407 -197 407 -150 q 426 -238 407 -224 q 475 -253 444 -253 q 520 -246 494 -253 q 581 -224 546 -239 l 601 -267 q 514 -317 572 -296 q 401 -337 456 -337 z "},"Ů":{"ha":1044,"x_min":158,"x_max":1164,"o":"m 507 -15 q 244 56 331 -15 q 158 236 158 126 q 160 274 158 254 q 167 314 163 293 l 325 1047 l 535 1047 l 371 314 q 364 272 367 293 q 361 233 361 251 q 414 92 361 140 q 553 43 467 43 q 729 108 650 43 q 839 314 808 172 l 997 1047 l 1053 1047 l 894 314 q 826 132 871 206 q 705 22 782 58 q 507 -15 628 -15 m 158 1006 l 158 1047 l 657 1047 l 657 1006 l 158 1006 m 849 1006 l 849 1047 l 1164 1047 l 1164 1006 l 849 1006 m 785 1181 q 713 1207 739 1181 q 686 1279 686 1233 q 713 1351 686 1325 q 785 1376 739 1376 q 857 1351 831 1376 q 883 1279 883 1325 q 857 1207 883 1233 q 785 1181 831 1181 m 785 1222 q 822 1238 810 1222 q 835 1279 835 1254 q 822 1319 835 1304 q 785 1333 810 1333 q 747 1319 760 1333 q 735 1279 735 1304 q 747 1238 735 1254 q 785 1222 760 1222 z "},"Ũ":{"ha":1044,"x_min":158,"x_max":1164,"o":"m 507 -15 q 244 56 331 -15 q 158 236 158 126 q 160 274 158 254 q 167 314 163 293 l 325 1047 l 535 1047 l 371 314 q 364 272 367 293 q 361 233 361 251 q 414 92 361 140 q 553 43 467 43 q 729 108 650 43 q 839 314 808 172 l 997 1047 l 1053 1047 l 894 314 q 826 132 871 206 q 705 22 782 58 q 507 -15 628 -15 m 158 1006 l 158 1047 l 657 1047 l 657 1006 l 158 1006 m 849 1006 l 849 1047 l 1164 1047 l 1164 1006 l 849 1006 m 536 1172 q 578 1263 551 1221 q 644 1331 604 1304 q 735 1357 683 1357 q 806 1342 779 1357 q 856 1311 832 1326 q 915 1296 881 1296 q 988 1318 958 1296 q 1028 1358 1018 1340 l 1078 1358 q 999 1224 1049 1275 q 876 1174 950 1174 q 806 1189 833 1174 q 755 1219 779 1204 q 693 1235 731 1235 q 626 1217 656 1235 q 583 1172 596 1199 l 536 1172 z "},"V":{"ha":856,"x_min":135,"x_max":1114,"o":"m 228 -18 l 424 306 l 964 1019 l 1015 1019 l 242 -18 l 228 -18 m 196 -18 l 244 1033 l 471 1033 l 422 311 l 428 311 l 239 -18 l 196 -18 m 135 1006 l 135 1047 l 578 1047 l 578 1006 l 135 1006 m 808 1006 l 808 1047 l 1114 1047 l 1114 1006 l 808 1006 z "},"W":{"ha":1281,"x_min":94,"x_max":1504,"o":"m 614 -18 l 806 292 l 1375 1019 l 1429 1019 l 628 -18 l 614 -18 m 194 -18 l 390 286 l 646 589 l 664 539 l 208 -18 l 194 -18 m 163 -18 l 211 1033 l 438 1033 l 389 292 l 394 292 l 206 -18 l 163 -18 m 574 -18 l 622 1033 l 849 1033 l 800 292 l 806 292 l 617 -18 l 574 -18 m 94 1006 l 94 1047 l 1147 1047 l 1147 1006 l 94 1006 m 793 644 l 778 696 l 1025 1019 l 1076 1019 l 793 644 m 1199 1006 l 1199 1047 l 1504 1047 l 1504 1006 l 1199 1006 z "},"Ẃ":{"ha":1281,"x_min":94,"x_max":1504,"o":"m 614 -18 l 806 292 l 1375 1019 l 1429 1019 l 628 -18 l 614 -18 m 194 -18 l 390 286 l 646 589 l 664 539 l 208 -18 l 194 -18 m 163 -18 l 211 1033 l 438 1033 l 389 292 l 394 292 l 206 -18 l 163 -18 m 574 -18 l 622 1033 l 849 1033 l 800 292 l 806 292 l 617 -18 l 574 -18 m 94 1006 l 94 1047 l 1147 1047 l 1147 1006 l 94 1006 m 793 644 l 778 696 l 1025 1019 l 1076 1019 l 793 644 m 1199 1006 l 1199 1047 l 1504 1047 l 1504 1006 l 1199 1006 m 640 1174 l 885 1325 q 950 1359 925 1349 q 1004 1369 975 1369 q 1064 1349 1043 1369 q 1085 1301 1085 1328 q 1067 1257 1085 1279 q 1011 1228 1050 1235 l 736 1174 l 640 1174 z "},"Ŵ":{"ha":1281,"x_min":94,"x_max":1504,"o":"m 614 -18 l 806 292 l 1375 1019 l 1429 1019 l 628 -18 l 614 -18 m 194 -18 l 390 286 l 646 589 l 664 539 l 208 -18 l 194 -18 m 163 -18 l 211 1033 l 438 1033 l 389 292 l 394 292 l 206 -18 l 163 -18 m 574 -18 l 622 1033 l 849 1033 l 800 292 l 806 292 l 617 -18 l 574 -18 m 94 1006 l 94 1047 l 1147 1047 l 1147 1006 l 94 1006 m 793 644 l 778 696 l 1025 1019 l 1076 1019 l 793 644 m 1199 1006 l 1199 1047 l 1504 1047 l 1504 1006 l 1199 1006 m 581 1172 l 828 1356 l 906 1356 l 1076 1172 l 1011 1172 l 842 1235 l 644 1172 l 581 1172 z "},"Ẅ":{"ha":1281,"x_min":94,"x_max":1504,"o":"m 614 -18 l 806 292 l 1375 1019 l 1429 1019 l 628 -18 l 614 -18 m 194 -18 l 390 286 l 646 589 l 664 539 l 208 -18 l 194 -18 m 163 -18 l 211 1033 l 438 1033 l 389 292 l 394 292 l 206 -18 l 163 -18 m 574 -18 l 622 1033 l 849 1033 l 800 292 l 806 292 l 617 -18 l 574 -18 m 94 1006 l 94 1047 l 1147 1047 l 1147 1006 l 94 1006 m 793 644 l 778 696 l 1025 1019 l 1076 1019 l 793 644 m 1199 1006 l 1199 1047 l 1504 1047 l 1504 1006 l 1199 1006 m 989 1203 q 918 1232 949 1203 q 888 1303 888 1261 q 918 1374 888 1344 q 989 1403 949 1403 q 1061 1374 1032 1403 q 1090 1303 1090 1344 q 1061 1232 1090 1261 q 989 1203 1032 1203 m 697 1203 q 625 1232 654 1203 q 596 1303 596 1261 q 625 1374 596 1344 q 697 1403 654 1403 q 768 1374 738 1403 q 799 1303 799 1344 q 768 1232 799 1261 q 697 1203 738 1203 z "},"Ẁ":{"ha":1281,"x_min":94,"x_max":1504,"o":"m 614 -18 l 806 292 l 1375 1019 l 1429 1019 l 628 -18 l 614 -18 m 194 -18 l 390 286 l 646 589 l 664 539 l 208 -18 l 194 -18 m 163 -18 l 211 1033 l 438 1033 l 389 292 l 394 292 l 206 -18 l 163 -18 m 574 -18 l 622 1033 l 849 1033 l 800 292 l 806 292 l 617 -18 l 574 -18 m 94 1006 l 94 1047 l 1147 1047 l 1147 1006 l 94 1006 m 793 644 l 778 696 l 1025 1019 l 1076 1019 l 793 644 m 1199 1006 l 1199 1047 l 1504 1047 l 1504 1006 l 1199 1006 m 961 1172 l 686 1226 q 630 1256 647 1233 q 613 1300 613 1278 q 633 1347 613 1326 q 693 1368 654 1368 q 748 1358 722 1368 q 813 1324 774 1347 l 1057 1172 l 961 1172 z "},"X":{"ha":882,"x_min":-75,"x_max":1018,"o":"m 578 0 l 181 1047 l 410 1047 l 801 0 l 578 0 m -75 0 l -75 42 l 282 42 l 282 0 l -75 0 m 47 28 l 444 540 l 504 540 l 418 425 l 413 425 l 103 28 l 47 28 m 447 0 l 447 42 l 904 42 l 904 0 l 447 0 m 88 1006 l 88 1047 l 531 1047 l 531 1006 l 88 1006 m 479 567 l 551 665 l 557 665 l 843 1019 l 892 1019 l 532 567 l 479 567 m 678 1006 l 678 1047 l 1018 1047 l 1018 1006 l 678 1006 z "},"Y":{"ha":899,"x_min":93,"x_max":1072,"o":"m 415 408 l 193 1047 l 408 1047 l 618 483 l 415 408 m 533 417 l 604 519 l 610 519 l 925 1019 l 974 1019 l 597 417 l 533 417 m 304 0 l 408 482 l 618 482 l 508 0 l 304 0 m 156 0 l 156 43 l 682 43 l 682 0 l 156 0 m 93 1006 l 93 1047 l 585 1047 l 585 1006 l 93 1006 m 760 1006 l 760 1047 l 1072 1047 l 1072 1006 l 760 1006 z "},"Ý":{"ha":899,"x_min":93,"x_max":1072,"o":"m 415 408 l 193 1047 l 408 1047 l 618 483 l 415 408 m 533 417 l 604 519 l 610 519 l 925 1019 l 974 1019 l 597 417 l 533 417 m 304 0 l 408 482 l 618 482 l 508 0 l 304 0 m 156 0 l 156 43 l 682 43 l 682 0 l 156 0 m 93 1006 l 93 1047 l 585 1047 l 585 1006 l 93 1006 m 760 1006 l 760 1047 l 1072 1047 l 1072 1006 l 760 1006 m 450 1174 l 694 1325 q 760 1359 735 1349 q 814 1369 785 1369 q 874 1349 853 1369 q 894 1301 894 1328 q 877 1257 894 1279 q 821 1228 860 1235 l 546 1174 l 450 1174 z "},"Ŷ":{"ha":899,"x_min":93,"x_max":1072,"o":"m 415 408 l 193 1047 l 408 1047 l 618 483 l 415 408 m 533 417 l 604 519 l 610 519 l 925 1019 l 974 1019 l 597 417 l 533 417 m 304 0 l 408 482 l 618 482 l 508 0 l 304 0 m 156 0 l 156 43 l 682 43 l 682 0 l 156 0 m 93 1006 l 93 1047 l 585 1047 l 585 1006 l 93 1006 m 760 1006 l 760 1047 l 1072 1047 l 1072 1006 l 760 1006 m 390 1172 l 638 1356 l 715 1356 l 886 1172 l 821 1172 l 651 1235 l 454 1172 l 390 1172 z "},"Ÿ":{"ha":899,"x_min":93,"x_max":1072,"o":"m 415 408 l 193 1047 l 408 1047 l 618 483 l 415 408 m 533 417 l 604 519 l 610 519 l 925 1019 l 974 1019 l 597 417 l 533 417 m 304 0 l 408 482 l 618 482 l 508 0 l 304 0 m 156 0 l 156 43 l 682 43 l 682 0 l 156 0 m 93 1006 l 93 1047 l 585 1047 l 585 1006 l 93 1006 m 760 1006 l 760 1047 l 1072 1047 l 1072 1006 l 760 1006 m 799 1203 q 728 1232 758 1203 q 697 1303 697 1261 q 728 1374 697 1344 q 799 1403 758 1403 q 871 1374 842 1403 q 900 1303 900 1344 q 871 1232 900 1261 q 799 1203 842 1203 m 507 1203 q 435 1232 464 1203 q 406 1303 406 1261 q 435 1374 406 1344 q 507 1403 464 1403 q 578 1374 547 1403 q 608 1303 608 1344 q 578 1232 608 1261 q 507 1203 547 1203 z "},"Ỵ":{"ha":899,"x_min":93,"x_max":1072,"o":"m 415 408 l 193 1047 l 408 1047 l 618 483 l 415 408 m 533 417 l 604 519 l 610 519 l 925 1019 l 974 1019 l 597 417 l 533 417 m 304 0 l 408 482 l 618 482 l 508 0 l 304 0 m 156 0 l 156 43 l 682 43 l 682 0 l 156 0 m 93 1006 l 93 1047 l 585 1047 l 585 1006 l 93 1006 m 760 1006 l 760 1047 l 1072 1047 l 1072 1006 l 760 1006 m 328 -324 q 250 -290 283 -324 q 217 -212 217 -257 q 250 -133 217 -167 q 328 -100 283 -100 q 407 -133 374 -100 q 440 -212 440 -167 q 407 -290 440 -257 q 328 -324 374 -324 z "},"Ỳ":{"ha":899,"x_min":93,"x_max":1072,"o":"m 415 408 l 193 1047 l 408 1047 l 618 483 l 415 408 m 533 417 l 604 519 l 610 519 l 925 1019 l 974 1019 l 597 417 l 533 417 m 304 0 l 408 482 l 618 482 l 508 0 l 304 0 m 156 0 l 156 43 l 682 43 l 682 0 l 156 0 m 93 1006 l 93 1047 l 585 1047 l 585 1006 l 93 1006 m 760 1006 l 760 1047 l 1072 1047 l 1072 1006 l 760 1006 m 771 1172 l 496 1226 q 440 1256 457 1233 q 422 1300 422 1278 q 443 1347 422 1326 q 503 1368 464 1368 q 558 1358 532 1368 q 622 1324 583 1347 l 867 1172 l 771 1172 z "},"Ỷ":{"ha":899,"x_min":93,"x_max":1072,"o":"m 415 408 l 193 1047 l 408 1047 l 618 483 l 415 408 m 533 417 l 604 519 l 610 519 l 925 1019 l 974 1019 l 597 417 l 533 417 m 304 0 l 408 482 l 618 482 l 508 0 l 304 0 m 156 0 l 156 43 l 682 43 l 682 0 l 156 0 m 93 1006 l 93 1047 l 585 1047 l 585 1006 l 93 1006 m 760 1006 l 760 1047 l 1072 1047 l 1072 1006 l 760 1006 m 633 1143 q 656 1201 640 1179 q 690 1239 672 1224 q 719 1267 707 1254 q 732 1299 732 1281 q 722 1337 732 1322 q 681 1351 711 1351 q 632 1337 651 1351 q 610 1307 613 1322 q 614 1286 608 1290 q 625 1276 619 1282 q 628 1251 631 1271 q 605 1224 625 1232 q 567 1215 585 1215 q 531 1232 542 1215 q 519 1274 519 1249 q 546 1353 519 1324 q 612 1397 572 1383 q 693 1411 651 1411 q 789 1383 763 1411 q 815 1307 815 1356 q 798 1252 815 1272 q 757 1217 781 1232 q 713 1185 733 1201 q 688 1143 693 1169 l 633 1143 z "},"Ỹ":{"ha":899,"x_min":93,"x_max":1072,"o":"m 415 408 l 193 1047 l 408 1047 l 618 483 l 415 408 m 533 417 l 604 519 l 610 519 l 925 1019 l 974 1019 l 597 417 l 533 417 m 304 0 l 408 482 l 618 482 l 508 0 l 304 0 m 156 0 l 156 43 l 682 43 l 682 0 l 156 0 m 93 1006 l 93 1047 l 585 1047 l 585 1006 l 93 1006 m 760 1006 l 760 1047 l 1072 1047 l 1072 1006 l 760 1006 m 403 1172 q 444 1263 418 1221 q 510 1331 471 1304 q 601 1357 550 1357 q 672 1342 646 1357 q 723 1311 699 1326 q 782 1296 747 1296 q 855 1318 825 1296 q 894 1358 885 1340 l 944 1358 q 866 1224 915 1275 q 743 1174 817 1174 q 673 1189 700 1174 q 622 1219 646 1204 q 560 1235 597 1235 q 492 1217 522 1235 q 450 1172 463 1199 l 403 1172 z "},"Z":{"ha":929,"x_min":-1,"x_max":1000,"o":"m -1 42 l 754 1000 l 754 1006 l 1000 1006 l 264 49 l 264 42 l -1 42 m -1 0 l -1 42 l 485 42 q 599 65 547 42 q 699 148 650 88 q 800 322 747 208 l 856 322 l 772 0 l -1 0 m 203 740 l 289 1047 l 1000 1047 l 1000 1006 l 544 1006 q 440 977 493 1006 q 338 890 386 949 q 251 740 289 832 l 203 740 z "},"Ź":{"ha":929,"x_min":-1,"x_max":1000,"o":"m -1 42 l 754 1000 l 754 1006 l 1000 1006 l 264 49 l 264 42 l -1 42 m -1 0 l -1 42 l 485 42 q 599 65 547 42 q 699 148 650 88 q 800 322 747 208 l 856 322 l 772 0 l -1 0 m 203 740 l 289 1047 l 1000 1047 l 1000 1006 l 544 1006 q 440 977 493 1006 q 338 890 386 949 q 251 740 289 832 l 203 740 m 465 1174 l 710 1325 q 775 1359 750 1349 q 829 1369 800 1369 q 889 1349 868 1369 q 910 1301 910 1328 q 892 1257 910 1279 q 836 1228 875 1235 l 561 1174 l 465 1174 z "},"Ž":{"ha":929,"x_min":-1,"x_max":1000,"o":"m -1 42 l 754 1000 l 754 1006 l 1000 1006 l 264 49 l 264 42 l -1 42 m -1 0 l -1 42 l 485 42 q 599 65 547 42 q 699 148 650 88 q 800 322 747 208 l 856 322 l 772 0 l -1 0 m 203 740 l 289 1047 l 1000 1047 l 1000 1006 l 544 1006 q 440 977 493 1006 q 338 890 386 949 q 251 740 289 832 l 203 740 m 613 1172 l 442 1356 l 507 1356 l 676 1293 l 874 1356 l 938 1356 l 690 1172 l 613 1172 z "},"Ż":{"ha":929,"x_min":-1,"x_max":1000,"o":"m -1 42 l 754 1000 l 754 1006 l 1000 1006 l 264 49 l 264 42 l -1 42 m -1 0 l -1 42 l 485 42 q 599 65 547 42 q 699 148 650 88 q 800 322 747 208 l 856 322 l 772 0 l -1 0 m 203 740 l 289 1047 l 1000 1047 l 1000 1006 l 544 1006 q 440 977 493 1006 q 338 890 386 949 q 251 740 289 832 l 203 740 m 638 1156 q 560 1189 593 1156 q 526 1267 526 1222 q 560 1346 526 1313 q 638 1379 593 1379 q 717 1346 683 1379 q 750 1267 750 1313 q 717 1189 750 1222 q 638 1156 683 1156 z "},"Ẓ":{"ha":929,"x_min":-1,"x_max":1000,"o":"m -1 42 l 754 1000 l 754 1006 l 1000 1006 l 264 49 l 264 42 l -1 42 m -1 0 l -1 42 l 485 42 q 599 65 547 42 q 699 148 650 88 q 800 322 747 208 l 856 322 l 772 0 l -1 0 m 203 740 l 289 1047 l 1000 1047 l 1000 1006 l 544 1006 q 440 977 493 1006 q 338 890 386 949 q 251 740 289 832 l 203 740 m 343 -324 q 265 -290 299 -324 q 232 -212 232 -257 q 265 -133 232 -167 q 343 -100 299 -100 q 422 -133 389 -100 q 456 -212 456 -167 q 422 -290 456 -257 q 343 -324 389 -324 z "},"a":{"ha":814,"x_min":40,"x_max":838,"o":"m 267 -15 q 156 14 208 -15 q 72 98 104 43 q 40 231 40 153 q 74 385 40 311 q 164 516 108 458 q 288 608 219 574 q 424 642 356 642 q 508 617 475 642 q 563 542 540 593 l 572 542 l 540 415 q 543 441 542 429 q 544 463 544 453 q 515 552 544 517 q 453 588 486 588 q 387 562 418 588 q 328 492 356 536 q 281 392 301 449 q 249 274 260 336 q 238 149 238 211 q 251 65 238 88 q 296 42 265 42 q 369 65 328 42 q 450 143 411 89 q 511 289 489 197 l 467 97 l 457 97 q 383 22 432 58 q 267 -15 335 -15 m 588 -15 q 524 -3 551 -15 q 482 35 497 10 q 467 97 467 60 q 471 135 467 114 q 489 213 475 157 l 592 625 l 778 625 l 657 121 q 651 91 653 103 q 650 75 650 79 q 667 57 650 57 q 726 92 688 57 q 803 224 764 128 l 838 211 q 785 102 819 154 q 701 17 750 50 q 588 -15 651 -15 z "},"á":{"ha":814,"x_min":40,"x_max":838,"o":"m 267 -15 q 156 14 208 -15 q 72 98 104 43 q 40 231 40 153 q 74 385 40 311 q 164 516 108 458 q 288 608 219 574 q 424 642 356 642 q 508 617 475 642 q 563 542 540 593 l 572 542 l 540 415 q 543 441 542 429 q 544 463 544 453 q 515 552 544 517 q 453 588 486 588 q 387 562 418 588 q 328 492 356 536 q 281 392 301 449 q 249 274 260 336 q 238 149 238 211 q 251 65 238 88 q 296 42 265 42 q 369 65 328 42 q 450 143 411 89 q 511 289 489 197 l 467 97 l 457 97 q 383 22 432 58 q 267 -15 335 -15 m 588 -15 q 524 -3 551 -15 q 482 35 497 10 q 467 97 467 60 q 471 135 467 114 q 489 213 475 157 l 592 625 l 778 625 l 657 121 q 651 91 653 103 q 650 75 650 79 q 667 57 650 57 q 726 92 688 57 q 803 224 764 128 l 838 211 q 785 102 819 154 q 701 17 750 50 q 588 -15 651 -15 m 433 728 l 647 956 q 708 1003 683 993 q 751 1014 732 1014 q 813 990 792 1014 q 833 933 833 967 q 818 889 833 907 q 763 851 803 871 l 519 728 l 433 728 z "},"ă":{"ha":814,"x_min":40,"x_max":838,"o":"m 267 -15 q 156 14 208 -15 q 72 98 104 43 q 40 231 40 153 q 74 385 40 311 q 164 516 108 458 q 288 608 219 574 q 424 642 356 642 q 508 617 475 642 q 563 542 540 593 l 572 542 l 540 415 q 543 441 542 429 q 544 463 544 453 q 515 552 544 517 q 453 588 486 588 q 387 562 418 588 q 328 492 356 536 q 281 392 301 449 q 249 274 260 336 q 238 149 238 211 q 251 65 238 88 q 296 42 265 42 q 369 65 328 42 q 450 143 411 89 q 511 289 489 197 l 467 97 l 457 97 q 383 22 432 58 q 267 -15 335 -15 m 588 -15 q 524 -3 551 -15 q 482 35 497 10 q 467 97 467 60 q 471 135 467 114 q 489 213 475 157 l 592 625 l 778 625 l 657 121 q 651 91 653 103 q 650 75 650 79 q 667 57 650 57 q 726 92 688 57 q 803 224 764 128 l 838 211 q 785 102 819 154 q 701 17 750 50 q 588 -15 651 -15 m 481 728 q 340 776 392 728 q 288 904 288 824 q 290 938 288 919 q 296 974 292 956 l 357 974 q 356 965 356 969 q 356 954 356 960 q 397 885 356 907 q 501 864 438 864 q 623 889 569 864 q 692 974 676 914 l 758 974 q 706 847 744 903 q 611 760 668 792 q 481 728 554 728 z "},"ắ":{"ha":814,"x_min":40,"x_max":899,"o":"m 267 -15 q 156 14 208 -15 q 72 98 104 43 q 40 231 40 153 q 74 385 40 311 q 164 516 108 458 q 288 608 219 574 q 424 642 356 642 q 508 617 475 642 q 563 542 540 593 l 572 542 l 540 415 q 543 441 542 429 q 544 463 544 453 q 515 552 544 517 q 453 588 486 588 q 387 562 418 588 q 328 492 356 536 q 281 392 301 449 q 249 274 260 336 q 238 149 238 211 q 251 65 238 88 q 296 42 265 42 q 369 65 328 42 q 450 143 411 89 q 511 289 489 197 l 467 97 l 457 97 q 383 22 432 58 q 267 -15 335 -15 m 588 -15 q 524 -3 551 -15 q 482 35 497 10 q 467 97 467 60 q 471 135 467 114 q 489 213 475 157 l 592 625 l 778 625 l 657 121 q 651 91 653 103 q 650 75 650 79 q 667 57 650 57 q 726 92 688 57 q 803 224 764 128 l 838 211 q 785 102 819 154 q 701 17 750 50 q 588 -15 651 -15 m 513 735 q 375 779 422 735 q 350 921 328 824 l 404 921 q 415 869 396 888 q 467 845 433 851 q 533 839 500 839 q 607 845 571 839 q 670 869 643 851 q 704 921 697 888 l 758 921 q 670 781 740 826 q 513 735 600 735 m 454 979 l 699 1131 q 764 1165 739 1154 q 818 1175 789 1175 q 878 1154 857 1175 q 899 1107 899 1133 q 881 1063 899 1085 q 825 1033 864 1040 l 550 979 l 454 979 z "},"ặ":{"ha":814,"x_min":40,"x_max":838,"o":"m 267 -15 q 156 14 208 -15 q 72 98 104 43 q 40 231 40 153 q 74 385 40 311 q 164 516 108 458 q 288 608 219 574 q 424 642 356 642 q 508 617 475 642 q 563 542 540 593 l 572 542 l 540 415 q 543 441 542 429 q 544 463 544 453 q 515 552 544 517 q 453 588 486 588 q 387 562 418 588 q 328 492 356 536 q 281 392 301 449 q 249 274 260 336 q 238 149 238 211 q 251 65 238 88 q 296 42 265 42 q 369 65 328 42 q 450 143 411 89 q 511 289 489 197 l 467 97 l 457 97 q 383 22 432 58 q 267 -15 335 -15 m 588 -15 q 524 -3 551 -15 q 482 35 497 10 q 467 97 467 60 q 471 135 467 114 q 489 213 475 157 l 592 625 l 778 625 l 657 121 q 651 91 653 103 q 650 75 650 79 q 667 57 650 57 q 726 92 688 57 q 803 224 764 128 l 838 211 q 785 102 819 154 q 701 17 750 50 q 588 -15 651 -15 m 285 -324 q 207 -290 240 -324 q 174 -212 174 -257 q 207 -133 174 -167 q 285 -100 240 -100 q 364 -133 331 -100 q 397 -212 397 -167 q 364 -290 397 -257 q 285 -324 331 -324 m 481 728 q 340 776 392 728 q 288 904 288 824 q 290 938 288 919 q 296 974 292 956 l 357 974 q 356 965 356 969 q 356 954 356 960 q 397 885 356 907 q 501 864 438 864 q 623 889 569 864 q 692 974 676 914 l 758 974 q 706 847 744 903 q 611 760 668 792 q 481 728 554 728 z "},"ằ":{"ha":814,"x_min":40,"x_max":838,"o":"m 267 -15 q 156 14 208 -15 q 72 98 104 43 q 40 231 40 153 q 74 385 40 311 q 164 516 108 458 q 288 608 219 574 q 424 642 356 642 q 508 617 475 642 q 563 542 540 593 l 572 542 l 540 415 q 543 441 542 429 q 544 463 544 453 q 515 552 544 517 q 453 588 486 588 q 387 562 418 588 q 328 492 356 536 q 281 392 301 449 q 249 274 260 336 q 238 149 238 211 q 251 65 238 88 q 296 42 265 42 q 369 65 328 42 q 450 143 411 89 q 511 289 489 197 l 467 97 l 457 97 q 383 22 432 58 q 267 -15 335 -15 m 588 -15 q 524 -3 551 -15 q 482 35 497 10 q 467 97 467 60 q 471 135 467 114 q 489 213 475 157 l 592 625 l 778 625 l 657 121 q 651 91 653 103 q 650 75 650 79 q 667 57 650 57 q 726 92 688 57 q 803 224 764 128 l 838 211 q 785 102 819 154 q 701 17 750 50 q 588 -15 651 -15 m 496 735 q 358 779 406 735 q 333 921 311 824 l 388 921 q 398 869 379 888 q 450 845 417 851 q 517 839 483 839 q 590 845 554 839 q 653 869 626 851 q 688 921 681 888 l 742 921 q 653 781 724 826 q 496 735 583 735 m 592 975 l 317 1029 q 260 1058 278 1036 q 243 1103 243 1081 q 264 1150 243 1129 q 324 1171 285 1171 q 378 1160 353 1171 q 443 1126 404 1150 l 688 975 l 592 975 z "},"ẳ":{"ha":814,"x_min":40,"x_max":838,"o":"m 267 -15 q 156 14 208 -15 q 72 98 104 43 q 40 231 40 153 q 74 385 40 311 q 164 516 108 458 q 288 608 219 574 q 424 642 356 642 q 508 617 475 642 q 563 542 540 593 l 572 542 l 540 415 q 543 441 542 429 q 544 463 544 453 q 515 552 544 517 q 453 588 486 588 q 387 562 418 588 q 328 492 356 536 q 281 392 301 449 q 249 274 260 336 q 238 149 238 211 q 251 65 238 88 q 296 42 265 42 q 369 65 328 42 q 450 143 411 89 q 511 289 489 197 l 467 97 l 457 97 q 383 22 432 58 q 267 -15 335 -15 m 588 -15 q 524 -3 551 -15 q 482 35 497 10 q 467 97 467 60 q 471 135 467 114 q 489 213 475 157 l 592 625 l 778 625 l 657 121 q 651 91 653 103 q 650 75 650 79 q 667 57 650 57 q 726 92 688 57 q 803 224 764 128 l 838 211 q 785 102 819 154 q 701 17 750 50 q 588 -15 651 -15 m 524 735 q 386 779 433 735 q 361 921 339 824 l 415 921 q 426 869 407 888 q 478 845 444 851 q 544 839 511 839 q 618 845 582 839 q 681 869 654 851 q 715 921 708 888 l 769 921 q 681 781 751 826 q 524 735 611 735 m 539 931 q 571 1003 549 979 q 614 1042 593 1028 q 638 1072 635 1056 q 631 1122 644 1106 q 586 1139 617 1139 q 538 1124 557 1139 q 515 1094 518 1110 q 519 1074 514 1078 q 531 1064 525 1069 q 533 1039 536 1058 q 510 1011 531 1019 q 472 1003 490 1003 q 433 1022 447 1003 q 425 1071 419 1040 q 488 1169 439 1139 q 599 1199 536 1199 q 706 1166 675 1199 q 721 1060 736 1133 q 697 1013 715 1028 q 656 989 678 997 q 616 969 633 981 q 593 931 599 957 l 539 931 z "},"ẵ":{"ha":814,"x_min":40,"x_max":869,"o":"m 267 -15 q 156 14 208 -15 q 72 98 104 43 q 40 231 40 153 q 74 385 40 311 q 164 516 108 458 q 288 608 219 574 q 424 642 356 642 q 508 617 475 642 q 563 542 540 593 l 572 542 l 540 415 q 543 441 542 429 q 544 463 544 453 q 515 552 544 517 q 453 588 486 588 q 387 562 418 588 q 328 492 356 536 q 281 392 301 449 q 249 274 260 336 q 238 149 238 211 q 251 65 238 88 q 296 42 265 42 q 369 65 328 42 q 450 143 411 89 q 511 289 489 197 l 467 97 l 457 97 q 383 22 432 58 q 267 -15 335 -15 m 588 -15 q 524 -3 551 -15 q 482 35 497 10 q 467 97 467 60 q 471 135 467 114 q 489 213 475 157 l 592 625 l 778 625 l 657 121 q 651 91 653 103 q 650 75 650 79 q 667 57 650 57 q 726 92 688 57 q 803 224 764 128 l 838 211 q 785 102 819 154 q 701 17 750 50 q 588 -15 651 -15 m 508 735 q 371 779 418 735 q 346 921 324 824 l 400 921 q 410 869 392 888 q 463 845 429 851 q 529 839 496 839 q 603 845 567 839 q 666 869 639 851 q 700 921 693 888 l 754 921 q 666 781 736 826 q 508 735 596 735 m 328 976 q 369 1067 343 1025 q 435 1135 396 1108 q 526 1161 475 1161 q 597 1146 571 1161 q 648 1115 624 1131 q 707 1100 672 1100 q 780 1122 750 1100 q 819 1163 810 1144 l 869 1163 q 791 1028 840 1079 q 668 978 742 978 q 598 993 625 978 q 547 1024 571 1008 q 485 1039 522 1039 q 417 1021 447 1039 q 375 976 388 1003 l 328 976 z "},"â":{"ha":814,"x_min":40,"x_max":838,"o":"m 267 -15 q 156 14 208 -15 q 72 98 104 43 q 40 231 40 153 q 74 385 40 311 q 164 516 108 458 q 288 608 219 574 q 424 642 356 642 q 508 617 475 642 q 563 542 540 593 l 572 542 l 540 415 q 543 441 542 429 q 544 463 544 453 q 515 552 544 517 q 453 588 486 588 q 387 562 418 588 q 328 492 356 536 q 281 392 301 449 q 249 274 260 336 q 238 149 238 211 q 251 65 238 88 q 296 42 265 42 q 369 65 328 42 q 450 143 411 89 q 511 289 489 197 l 467 97 l 457 97 q 383 22 432 58 q 267 -15 335 -15 m 588 -15 q 524 -3 551 -15 q 482 35 497 10 q 467 97 467 60 q 471 135 467 114 q 489 213 475 157 l 592 625 l 778 625 l 657 121 q 651 91 653 103 q 650 75 650 79 q 667 57 650 57 q 726 92 688 57 q 803 224 764 128 l 838 211 q 785 102 819 154 q 701 17 750 50 q 588 -15 651 -15 m 276 728 l 544 1006 l 631 1006 l 781 728 l 721 728 l 554 847 l 335 728 l 276 728 z "},"ấ":{"ha":814,"x_min":40,"x_max":838,"o":"m 267 -15 q 156 14 208 -15 q 72 98 104 43 q 40 231 40 153 q 74 385 40 311 q 164 516 108 458 q 288 608 219 574 q 424 642 356 642 q 508 617 475 642 q 563 542 540 593 l 572 542 l 540 415 q 543 441 542 429 q 544 463 544 453 q 515 552 544 517 q 453 588 486 588 q 387 562 418 588 q 328 492 356 536 q 281 392 301 449 q 249 274 260 336 q 238 149 238 211 q 251 65 238 88 q 296 42 265 42 q 369 65 328 42 q 450 143 411 89 q 511 289 489 197 l 467 97 l 457 97 q 383 22 432 58 q 267 -15 335 -15 m 588 -15 q 524 -3 551 -15 q 482 35 497 10 q 467 97 467 60 q 471 135 467 114 q 489 213 475 157 l 592 625 l 778 625 l 657 121 q 651 91 653 103 q 650 75 650 79 q 667 57 650 57 q 726 92 688 57 q 803 224 764 128 l 838 211 q 785 102 819 154 q 701 17 750 50 q 588 -15 651 -15 m 260 735 l 479 890 l 557 890 l 728 735 l 663 735 l 507 797 l 324 735 l 260 735 m 314 936 l 558 1088 q 624 1122 599 1111 q 678 1132 649 1132 q 738 1111 717 1132 q 758 1064 758 1090 q 741 1019 758 1042 q 685 990 724 997 l 410 936 l 314 936 z "},"ậ":{"ha":814,"x_min":40,"x_max":838,"o":"m 267 -15 q 156 14 208 -15 q 72 98 104 43 q 40 231 40 153 q 74 385 40 311 q 164 516 108 458 q 288 608 219 574 q 424 642 356 642 q 508 617 475 642 q 563 542 540 593 l 572 542 l 540 415 q 543 441 542 429 q 544 463 544 453 q 515 552 544 517 q 453 588 486 588 q 387 562 418 588 q 328 492 356 536 q 281 392 301 449 q 249 274 260 336 q 238 149 238 211 q 251 65 238 88 q 296 42 265 42 q 369 65 328 42 q 450 143 411 89 q 511 289 489 197 l 467 97 l 457 97 q 383 22 432 58 q 267 -15 335 -15 m 588 -15 q 524 -3 551 -15 q 482 35 497 10 q 467 97 467 60 q 471 135 467 114 q 489 213 475 157 l 592 625 l 778 625 l 657 121 q 651 91 653 103 q 650 75 650 79 q 667 57 650 57 q 726 92 688 57 q 803 224 764 128 l 838 211 q 785 102 819 154 q 701 17 750 50 q 588 -15 651 -15 m 285 -324 q 207 -290 240 -324 q 174 -212 174 -257 q 207 -133 174 -167 q 285 -100 240 -100 q 364 -133 331 -100 q 397 -212 397 -167 q 364 -290 397 -257 q 285 -324 331 -324 m 276 728 l 544 1006 l 631 1006 l 781 728 l 721 728 l 554 847 l 335 728 l 276 728 z "},"ầ":{"ha":814,"x_min":40,"x_max":838,"o":"m 267 -15 q 156 14 208 -15 q 72 98 104 43 q 40 231 40 153 q 74 385 40 311 q 164 516 108 458 q 288 608 219 574 q 424 642 356 642 q 508 617 475 642 q 563 542 540 593 l 572 542 l 540 415 q 543 441 542 429 q 544 463 544 453 q 515 552 544 517 q 453 588 486 588 q 387 562 418 588 q 328 492 356 536 q 281 392 301 449 q 249 274 260 336 q 238 149 238 211 q 251 65 238 88 q 296 42 265 42 q 369 65 328 42 q 450 143 411 89 q 511 289 489 197 l 467 97 l 457 97 q 383 22 432 58 q 267 -15 335 -15 m 588 -15 q 524 -3 551 -15 q 482 35 497 10 q 467 97 467 60 q 471 135 467 114 q 489 213 475 157 l 592 625 l 778 625 l 657 121 q 651 91 653 103 q 650 75 650 79 q 667 57 650 57 q 726 92 688 57 q 803 224 764 128 l 838 211 q 785 102 819 154 q 701 17 750 50 q 588 -15 651 -15 m 265 735 l 485 890 l 563 890 l 733 735 l 668 735 l 513 797 l 329 735 l 265 735 m 697 928 l 422 982 q 366 1011 383 989 q 349 1056 349 1033 q 369 1103 349 1082 q 429 1124 390 1124 q 484 1113 458 1124 q 549 1079 510 1103 l 793 928 l 697 928 z "},"ẩ":{"ha":814,"x_min":40,"x_max":875,"o":"m 267 -15 q 156 14 208 -15 q 72 98 104 43 q 40 231 40 153 q 74 385 40 311 q 164 516 108 458 q 288 608 219 574 q 424 642 356 642 q 508 617 475 642 q 563 542 540 593 l 572 542 l 540 415 q 543 441 542 429 q 544 463 544 453 q 515 552 544 517 q 453 588 486 588 q 387 562 418 588 q 328 492 356 536 q 281 392 301 449 q 249 274 260 336 q 238 149 238 211 q 251 65 238 88 q 296 42 265 42 q 369 65 328 42 q 450 143 411 89 q 511 289 489 197 l 467 97 l 457 97 q 383 22 432 58 q 267 -15 335 -15 m 588 -15 q 524 -3 551 -15 q 482 35 497 10 q 467 97 467 60 q 471 135 467 114 q 489 213 475 157 l 592 625 l 778 625 l 657 121 q 651 91 653 103 q 650 75 650 79 q 667 57 650 57 q 726 92 688 57 q 803 224 764 128 l 838 211 q 785 102 819 154 q 701 17 750 50 q 588 -15 651 -15 m 261 735 l 481 890 l 558 890 l 729 735 l 664 735 l 508 797 l 325 735 l 261 735 m 678 868 q 710 941 688 917 q 753 979 732 965 q 776 1010 774 993 q 769 1060 783 1043 q 725 1076 756 1076 q 676 1062 696 1076 q 654 1032 657 1047 q 658 1011 653 1015 q 669 1001 664 1007 q 672 976 675 996 q 649 949 669 957 q 611 940 629 940 q 572 959 586 940 q 564 1008 558 978 q 626 1106 578 1076 q 738 1136 675 1136 q 844 1103 814 1136 q 860 997 875 1071 q 835 950 854 965 q 794 926 817 935 q 755 906 772 918 q 732 868 738 894 l 678 868 z "},"ẫ":{"ha":814,"x_min":40,"x_max":840,"o":"m 267 -15 q 156 14 208 -15 q 72 98 104 43 q 40 231 40 153 q 74 385 40 311 q 164 516 108 458 q 288 608 219 574 q 424 642 356 642 q 508 617 475 642 q 563 542 540 593 l 572 542 l 540 415 q 543 441 542 429 q 544 463 544 453 q 515 552 544 517 q 453 588 486 588 q 387 562 418 588 q 328 492 356 536 q 281 392 301 449 q 249 274 260 336 q 238 149 238 211 q 251 65 238 88 q 296 42 265 42 q 369 65 328 42 q 450 143 411 89 q 511 289 489 197 l 467 97 l 457 97 q 383 22 432 58 q 267 -15 335 -15 m 588 -15 q 524 -3 551 -15 q 482 35 497 10 q 467 97 467 60 q 471 135 467 114 q 489 213 475 157 l 592 625 l 778 625 l 657 121 q 651 91 653 103 q 650 75 650 79 q 667 57 650 57 q 726 92 688 57 q 803 224 764 128 l 838 211 q 785 102 819 154 q 701 17 750 50 q 588 -15 651 -15 m 257 735 l 476 890 l 554 890 l 725 735 l 660 735 l 504 797 l 321 735 l 257 735 m 299 918 q 340 1008 314 967 q 406 1076 367 1050 q 497 1103 446 1103 q 568 1088 542 1103 q 619 1057 594 1072 q 678 1042 643 1042 q 751 1064 721 1042 q 790 1104 781 1086 l 840 1104 q 762 970 811 1021 q 639 919 713 919 q 569 935 596 919 q 517 965 542 950 q 456 981 493 981 q 388 963 418 981 q 346 918 358 944 l 299 918 z "},"ȁ":{"ha":814,"x_min":40,"x_max":838,"o":"m 267 -15 q 156 14 208 -15 q 72 98 104 43 q 40 231 40 153 q 74 385 40 311 q 164 516 108 458 q 288 608 219 574 q 424 642 356 642 q 508 617 475 642 q 563 542 540 593 l 572 542 l 540 415 q 543 441 542 429 q 544 463 544 453 q 515 552 544 517 q 453 588 486 588 q 387 562 418 588 q 328 492 356 536 q 281 392 301 449 q 249 274 260 336 q 238 149 238 211 q 251 65 238 88 q 296 42 265 42 q 369 65 328 42 q 450 143 411 89 q 511 289 489 197 l 467 97 l 457 97 q 383 22 432 58 q 267 -15 335 -15 m 588 -15 q 524 -3 551 -15 q 482 35 497 10 q 467 97 467 60 q 471 135 467 114 q 489 213 475 157 l 592 625 l 778 625 l 657 121 q 651 91 653 103 q 650 75 650 79 q 667 57 650 57 q 726 92 688 57 q 803 224 764 128 l 838 211 q 785 102 819 154 q 701 17 750 50 q 588 -15 651 -15 m 690 728 l 486 860 q 445 902 453 881 q 438 936 438 924 q 463 995 438 976 q 524 1014 489 1014 q 571 1001 550 1014 q 615 956 592 989 l 778 728 l 690 728 m 413 728 l 208 860 q 167 902 175 881 q 160 936 160 924 q 185 995 160 976 q 246 1014 211 1014 q 293 1001 272 1014 q 338 956 314 989 l 500 728 l 413 728 z "},"ä":{"ha":814,"x_min":40,"x_max":838,"o":"m 267 -15 q 156 14 208 -15 q 72 98 104 43 q 40 231 40 153 q 74 385 40 311 q 164 516 108 458 q 288 608 219 574 q 424 642 356 642 q 508 617 475 642 q 563 542 540 593 l 572 542 l 540 415 q 543 441 542 429 q 544 463 544 453 q 515 552 544 517 q 453 588 486 588 q 387 562 418 588 q 328 492 356 536 q 281 392 301 449 q 249 274 260 336 q 238 149 238 211 q 251 65 238 88 q 296 42 265 42 q 369 65 328 42 q 450 143 411 89 q 511 289 489 197 l 467 97 l 457 97 q 383 22 432 58 q 267 -15 335 -15 m 588 -15 q 524 -3 551 -15 q 482 35 497 10 q 467 97 467 60 q 471 135 467 114 q 489 213 475 157 l 592 625 l 778 625 l 657 121 q 651 91 653 103 q 650 75 650 79 q 667 57 650 57 q 726 92 688 57 q 803 224 764 128 l 838 211 q 785 102 819 154 q 701 17 750 50 q 588 -15 651 -15 m 669 751 q 605 778 632 751 q 578 843 578 806 q 605 908 578 881 q 669 935 632 935 q 734 908 707 935 q 761 843 761 881 q 734 778 761 806 q 669 751 707 751 m 406 751 q 341 778 368 751 q 314 843 314 806 q 341 908 314 881 q 406 935 368 935 q 470 908 443 935 q 497 843 497 881 q 470 778 497 806 q 406 751 443 751 z "},"ạ":{"ha":814,"x_min":40,"x_max":838,"o":"m 267 -15 q 156 14 208 -15 q 72 98 104 43 q 40 231 40 153 q 74 385 40 311 q 164 516 108 458 q 288 608 219 574 q 424 642 356 642 q 508 617 475 642 q 563 542 540 593 l 572 542 l 540 415 q 543 441 542 429 q 544 463 544 453 q 515 552 544 517 q 453 588 486 588 q 387 562 418 588 q 328 492 356 536 q 281 392 301 449 q 249 274 260 336 q 238 149 238 211 q 251 65 238 88 q 296 42 265 42 q 369 65 328 42 q 450 143 411 89 q 511 289 489 197 l 467 97 l 457 97 q 383 22 432 58 q 267 -15 335 -15 m 588 -15 q 524 -3 551 -15 q 482 35 497 10 q 467 97 467 60 q 471 135 467 114 q 489 213 475 157 l 592 625 l 778 625 l 657 121 q 651 91 653 103 q 650 75 650 79 q 667 57 650 57 q 726 92 688 57 q 803 224 764 128 l 838 211 q 785 102 819 154 q 701 17 750 50 q 588 -15 651 -15 m 285 -324 q 207 -290 240 -324 q 174 -212 174 -257 q 207 -133 174 -167 q 285 -100 240 -100 q 364 -133 331 -100 q 397 -212 397 -167 q 364 -290 397 -257 q 285 -324 331 -324 z "},"à":{"ha":814,"x_min":40,"x_max":838,"o":"m 267 -15 q 156 14 208 -15 q 72 98 104 43 q 40 231 40 153 q 74 385 40 311 q 164 516 108 458 q 288 608 219 574 q 424 642 356 642 q 508 617 475 642 q 563 542 540 593 l 572 542 l 540 415 q 543 441 542 429 q 544 463 544 453 q 515 552 544 517 q 453 588 486 588 q 387 562 418 588 q 328 492 356 536 q 281 392 301 449 q 249 274 260 336 q 238 149 238 211 q 251 65 238 88 q 296 42 265 42 q 369 65 328 42 q 450 143 411 89 q 511 289 489 197 l 467 97 l 457 97 q 383 22 432 58 q 267 -15 335 -15 m 588 -15 q 524 -3 551 -15 q 482 35 497 10 q 467 97 467 60 q 471 135 467 114 q 489 213 475 157 l 592 625 l 778 625 l 657 121 q 651 91 653 103 q 650 75 650 79 q 667 57 650 57 q 726 92 688 57 q 803 224 764 128 l 838 211 q 785 102 819 154 q 701 17 750 50 q 588 -15 651 -15 m 589 728 l 385 860 q 344 902 351 881 q 336 936 336 924 q 362 995 336 976 q 422 1014 388 1014 q 469 1001 449 1014 q 514 956 490 989 l 676 728 l 589 728 z "},"ả":{"ha":814,"x_min":40,"x_max":838,"o":"m 267 -15 q 156 14 208 -15 q 72 98 104 43 q 40 231 40 153 q 74 385 40 311 q 164 516 108 458 q 288 608 219 574 q 424 642 356 642 q 508 617 475 642 q 563 542 540 593 l 572 542 l 540 415 q 543 441 542 429 q 544 463 544 453 q 515 552 544 517 q 453 588 486 588 q 387 562 418 588 q 328 492 356 536 q 281 392 301 449 q 249 274 260 336 q 238 149 238 211 q 251 65 238 88 q 296 42 265 42 q 369 65 328 42 q 450 143 411 89 q 511 289 489 197 l 467 97 l 457 97 q 383 22 432 58 q 267 -15 335 -15 m 588 -15 q 524 -3 551 -15 q 482 35 497 10 q 467 97 467 60 q 471 135 467 114 q 489 213 475 157 l 592 625 l 778 625 l 657 121 q 651 91 653 103 q 650 75 650 79 q 667 57 650 57 q 726 92 688 57 q 803 224 764 128 l 838 211 q 785 102 819 154 q 701 17 750 50 q 588 -15 651 -15 m 493 721 q 516 779 500 757 q 549 817 532 801 q 579 845 567 832 q 592 876 592 858 q 581 915 592 900 q 540 929 571 929 q 492 915 511 929 q 469 885 472 900 q 474 864 468 868 q 485 854 479 860 q 488 829 490 849 q 465 801 485 810 q 426 793 444 793 q 390 810 401 793 q 379 851 379 826 q 406 931 379 901 q 472 975 432 961 q 553 989 511 989 q 649 961 622 989 q 675 885 675 933 q 658 830 675 850 q 617 794 640 810 q 573 763 593 779 q 547 721 553 747 l 493 721 z "},"ȃ":{"ha":814,"x_min":40,"x_max":838,"o":"m 267 -15 q 156 14 208 -15 q 72 98 104 43 q 40 231 40 153 q 74 385 40 311 q 164 516 108 458 q 288 608 219 574 q 424 642 356 642 q 508 617 475 642 q 563 542 540 593 l 572 542 l 540 415 q 543 441 542 429 q 544 463 544 453 q 515 552 544 517 q 453 588 486 588 q 387 562 418 588 q 328 492 356 536 q 281 392 301 449 q 249 274 260 336 q 238 149 238 211 q 251 65 238 88 q 296 42 265 42 q 369 65 328 42 q 450 143 411 89 q 511 289 489 197 l 467 97 l 457 97 q 383 22 432 58 q 267 -15 335 -15 m 588 -15 q 524 -3 551 -15 q 482 35 497 10 q 467 97 467 60 q 471 135 467 114 q 489 213 475 157 l 592 625 l 778 625 l 657 121 q 651 91 653 103 q 650 75 650 79 q 667 57 650 57 q 726 92 688 57 q 803 224 764 128 l 838 211 q 785 102 819 154 q 701 17 750 50 q 588 -15 651 -15 m 293 728 q 346 855 308 800 q 440 942 383 910 q 571 974 497 974 q 713 926 661 974 q 764 797 764 879 q 762 765 764 782 q 756 728 760 747 l 694 728 q 696 738 696 733 q 696 747 696 743 q 656 817 696 796 q 550 838 615 838 q 428 813 482 838 q 360 728 375 789 l 293 728 z "},"ā":{"ha":814,"x_min":40,"x_max":838,"o":"m 267 -15 q 156 14 208 -15 q 72 98 104 43 q 40 231 40 153 q 74 385 40 311 q 164 516 108 458 q 288 608 219 574 q 424 642 356 642 q 508 617 475 642 q 563 542 540 593 l 572 542 l 540 415 q 543 441 542 429 q 544 463 544 453 q 515 552 544 517 q 453 588 486 588 q 387 562 418 588 q 328 492 356 536 q 281 392 301 449 q 249 274 260 336 q 238 149 238 211 q 251 65 238 88 q 296 42 265 42 q 369 65 328 42 q 450 143 411 89 q 511 289 489 197 l 467 97 l 457 97 q 383 22 432 58 q 267 -15 335 -15 m 588 -15 q 524 -3 551 -15 q 482 35 497 10 q 467 97 467 60 q 471 135 467 114 q 489 213 475 157 l 592 625 l 778 625 l 657 121 q 651 91 653 103 q 650 75 650 79 q 667 57 650 57 q 726 92 688 57 q 803 224 764 128 l 838 211 q 785 102 819 154 q 701 17 750 50 q 588 -15 651 -15 m 300 801 l 326 921 l 799 921 l 772 801 l 300 801 z "},"ą":{"ha":814,"x_min":40,"x_max":838,"o":"m 267 -15 q 156 14 208 -15 q 72 98 104 43 q 40 231 40 153 q 74 385 40 311 q 164 516 108 458 q 288 608 219 574 q 424 642 356 642 q 508 617 475 642 q 563 542 540 593 l 572 542 l 540 415 q 543 441 542 429 q 544 463 544 453 q 515 552 544 517 q 453 588 486 588 q 387 562 418 588 q 328 492 356 536 q 281 392 301 449 q 249 274 260 336 q 238 149 238 211 q 251 65 238 88 q 296 42 265 42 q 369 65 328 42 q 450 143 411 89 q 511 289 489 197 l 467 97 l 457 97 q 383 22 432 58 q 267 -15 335 -15 m 588 -15 q 524 -3 551 -15 q 482 35 497 10 q 467 97 467 60 q 471 135 467 114 q 489 213 475 157 l 592 625 l 778 625 l 657 121 q 651 91 653 103 q 650 75 650 79 q 667 57 650 57 q 726 92 688 57 q 803 224 764 128 l 838 211 q 785 102 819 154 q 701 17 750 50 q 588 -15 651 -15 m 481 -329 q 390 -303 422 -329 q 357 -233 357 -278 q 419 -115 357 -174 q 621 17 482 -56 l 685 17 q 541 -86 596 -31 q 486 -189 486 -142 q 505 -230 486 -215 q 554 -244 524 -244 q 599 -237 574 -244 q 660 -215 625 -231 l 681 -258 q 593 -308 651 -287 q 481 -329 535 -329 z "},"å":{"ha":814,"x_min":40,"x_max":838,"o":"m 267 -15 q 156 14 208 -15 q 72 98 104 43 q 40 231 40 153 q 74 385 40 311 q 164 516 108 458 q 288 608 219 574 q 424 642 356 642 q 508 617 475 642 q 563 542 540 593 l 572 542 l 540 415 q 543 441 542 429 q 544 463 544 453 q 515 552 544 517 q 453 588 486 588 q 387 562 418 588 q 328 492 356 536 q 281 392 301 449 q 249 274 260 336 q 238 149 238 211 q 251 65 238 88 q 296 42 265 42 q 369 65 328 42 q 450 143 411 89 q 511 289 489 197 l 467 97 l 457 97 q 383 22 432 58 q 267 -15 335 -15 m 588 -15 q 524 -3 551 -15 q 482 35 497 10 q 467 97 467 60 q 471 135 467 114 q 489 213 475 157 l 592 625 l 778 625 l 657 121 q 651 91 653 103 q 650 75 650 79 q 667 57 650 57 q 726 92 688 57 q 803 224 764 128 l 838 211 q 785 102 819 154 q 701 17 750 50 q 588 -15 651 -15 m 576 735 q 477 776 519 735 q 435 876 435 818 q 477 975 435 933 q 576 1017 519 1017 q 676 976 633 1017 q 718 876 718 935 q 676 776 718 818 q 576 735 635 735 m 576 813 q 621 831 603 813 q 639 876 639 850 q 620 919 639 901 q 576 938 601 938 q 533 919 551 938 q 514 876 514 901 q 532 832 514 851 q 576 813 550 813 z "},"ǻ":{"ha":814,"x_min":40,"x_max":1042,"o":"m 267 -15 q 156 14 208 -15 q 72 98 104 43 q 40 231 40 153 q 74 385 40 311 q 164 516 108 458 q 288 608 219 574 q 424 642 356 642 q 508 617 475 642 q 563 542 540 593 l 572 542 l 540 415 q 543 441 542 429 q 544 463 544 453 q 515 552 544 517 q 453 588 486 588 q 387 562 418 588 q 328 492 356 536 q 281 392 301 449 q 249 274 260 336 q 238 149 238 211 q 251 65 238 88 q 296 42 265 42 q 369 65 328 42 q 450 143 411 89 q 511 289 489 197 l 467 97 l 457 97 q 383 22 432 58 q 267 -15 335 -15 m 588 -15 q 524 -3 551 -15 q 482 35 497 10 q 467 97 467 60 q 471 135 467 114 q 489 213 475 157 l 592 625 l 778 625 l 657 121 q 651 91 653 103 q 650 75 650 79 q 667 57 650 57 q 726 92 688 57 q 803 224 764 128 l 838 211 q 785 102 819 154 q 701 17 750 50 q 588 -15 651 -15 m 576 735 q 477 776 519 735 q 435 876 435 818 q 477 975 435 933 q 576 1017 519 1017 q 676 976 633 1017 q 718 876 718 935 q 676 776 718 818 q 576 735 635 735 m 576 813 q 621 831 603 813 q 639 876 639 850 q 620 919 639 901 q 576 938 601 938 q 533 919 551 938 q 514 876 514 901 q 532 832 514 851 q 576 813 550 813 m 642 1038 l 856 1265 q 916 1313 892 1303 q 960 1324 940 1324 q 1021 1300 1000 1324 q 1042 1243 1042 1276 q 1026 1199 1042 1217 q 971 1161 1011 1181 l 728 1038 l 642 1038 z "},"ã":{"ha":814,"x_min":40,"x_max":838,"o":"m 267 -15 q 156 14 208 -15 q 72 98 104 43 q 40 231 40 153 q 74 385 40 311 q 164 516 108 458 q 288 608 219 574 q 424 642 356 642 q 508 617 475 642 q 563 542 540 593 l 572 542 l 540 415 q 543 441 542 429 q 544 463 544 453 q 515 552 544 517 q 453 588 486 588 q 387 562 418 588 q 328 492 356 536 q 281 392 301 449 q 249 274 260 336 q 238 149 238 211 q 251 65 238 88 q 296 42 265 42 q 369 65 328 42 q 450 143 411 89 q 511 289 489 197 l 467 97 l 457 97 q 383 22 432 58 q 267 -15 335 -15 m 588 -15 q 524 -3 551 -15 q 482 35 497 10 q 467 97 467 60 q 471 135 467 114 q 489 213 475 157 l 592 625 l 778 625 l 657 121 q 651 91 653 103 q 650 75 650 79 q 667 57 650 57 q 726 92 688 57 q 803 224 764 128 l 838 211 q 785 102 819 154 q 701 17 750 50 q 588 -15 651 -15 m 261 756 q 303 846 276 804 q 369 914 329 888 q 460 940 408 940 q 531 925 504 940 q 581 894 557 910 q 640 879 606 879 q 713 901 683 879 q 753 942 743 924 l 803 942 q 724 808 774 858 q 601 757 675 757 q 531 772 558 757 q 480 803 504 788 q 418 818 456 818 q 351 800 381 818 q 308 756 321 782 l 261 756 z "},"æ":{"ha":1176,"x_min":40,"x_max":1147,"o":"m 790 -15 q 637 22 699 -15 q 543 117 575 58 q 511 244 511 176 q 549 390 511 319 q 647 518 586 461 q 781 608 708 575 q 924 642 853 642 q 1038 621 988 642 q 1117 563 1088 600 q 1147 478 1147 526 q 1113 378 1147 425 q 1010 301 1078 331 q 840 272 942 272 q 765 275 806 272 q 694 282 725 278 q 654 288 663 286 l 661 336 q 714 324 685 326 q 797 322 743 322 q 907 347 864 322 q 970 411 950 371 q 990 499 990 451 q 969 572 990 543 q 906 600 949 600 q 839 565 869 600 q 785 476 808 531 q 744 357 761 421 q 719 233 728 293 q 710 132 710 174 q 737 65 710 90 q 811 40 764 40 q 951 76 879 40 q 1088 206 1024 111 l 1122 179 q 981 37 1067 89 q 790 -15 896 -15 m 267 -15 q 156 14 208 -15 q 72 98 104 43 q 40 231 40 153 q 74 385 40 311 q 164 516 108 458 q 288 608 219 574 q 424 642 356 642 q 508 617 475 642 q 563 542 540 593 l 572 542 l 540 415 q 543 441 542 429 q 544 463 544 453 q 515 552 544 517 q 453 588 486 588 q 387 562 418 588 q 328 492 356 536 q 281 392 301 449 q 249 274 260 336 q 238 149 238 211 q 251 65 238 88 q 296 42 265 42 q 369 65 328 42 q 450 143 411 89 q 511 289 489 197 l 522 214 l 533 139 l 524 139 q 464 67 500 103 q 378 8 428 31 q 267 -15 329 -15 m 489 213 l 592 625 l 778 625 l 657 135 l 489 213 z "},"ǽ":{"ha":1176,"x_min":40,"x_max":1147,"o":"m 790 -15 q 637 22 699 -15 q 543 117 575 58 q 511 244 511 176 q 549 390 511 319 q 647 518 586 461 q 781 608 708 575 q 924 642 853 642 q 1038 621 988 642 q 1117 563 1088 600 q 1147 478 1147 526 q 1113 378 1147 425 q 1010 301 1078 331 q 840 272 942 272 q 765 275 806 272 q 694 282 725 278 q 654 288 663 286 l 661 336 q 714 324 685 326 q 797 322 743 322 q 907 347 864 322 q 970 411 950 371 q 990 499 990 451 q 969 572 990 543 q 906 600 949 600 q 839 565 869 600 q 785 476 808 531 q 744 357 761 421 q 719 233 728 293 q 710 132 710 174 q 737 65 710 90 q 811 40 764 40 q 951 76 879 40 q 1088 206 1024 111 l 1122 179 q 981 37 1067 89 q 790 -15 896 -15 m 267 -15 q 156 14 208 -15 q 72 98 104 43 q 40 231 40 153 q 74 385 40 311 q 164 516 108 458 q 288 608 219 574 q 424 642 356 642 q 508 617 475 642 q 563 542 540 593 l 572 542 l 540 415 q 543 441 542 429 q 544 463 544 453 q 515 552 544 517 q 453 588 486 588 q 387 562 418 588 q 328 492 356 536 q 281 392 301 449 q 249 274 260 336 q 238 149 238 211 q 251 65 238 88 q 296 42 265 42 q 369 65 328 42 q 450 143 411 89 q 511 289 489 197 l 522 214 l 533 139 l 524 139 q 464 67 500 103 q 378 8 428 31 q 267 -15 329 -15 m 489 213 l 592 625 l 778 625 l 657 135 l 489 213 m 629 728 l 843 956 q 903 1003 879 993 q 947 1014 928 1014 q 1008 990 988 1014 q 1029 933 1029 967 q 1014 889 1029 907 q 958 851 999 871 l 715 728 l 629 728 z "},"b":{"ha":750,"x_min":44,"x_max":696,"o":"m 278 -18 q 106 40 168 -18 q 44 188 44 97 q 47 225 44 199 q 56 283 49 251 l 238 1047 l 414 1047 l 221 206 q 215 169 218 192 q 213 129 213 147 q 234 58 213 81 q 286 36 256 36 q 368 75 331 36 q 434 179 406 114 q 478 325 463 244 q 494 488 494 406 q 484 567 494 544 q 444 590 474 590 q 347 544 399 590 q 260 404 296 497 l 293 540 l 303 540 q 374 613 329 585 q 475 642 419 642 q 576 615 525 642 q 662 535 628 589 q 696 394 696 481 q 663 240 696 314 q 571 108 629 165 q 437 16 513 50 q 278 -18 361 -18 m 99 1006 l 99 1047 l 397 1047 l 397 1006 l 99 1006 z "},"c":{"ha":665,"x_min":31,"x_max":658,"o":"m 310 -15 q 156 22 218 -15 q 63 118 94 58 q 31 246 31 178 q 64 390 31 319 q 155 517 97 460 q 287 608 213 574 q 442 642 361 642 q 554 622 506 642 q 631 569 603 601 q 658 496 658 536 q 634 430 658 461 q 554 399 610 399 q 483 422 507 399 q 458 476 458 446 q 464 508 458 493 q 475 538 469 524 q 481 565 481 553 q 467 592 481 585 q 433 600 453 600 q 390 589 411 600 q 348 550 368 578 q 308 471 328 522 q 270 340 289 419 q 232 146 251 261 q 247 65 222 89 q 331 40 272 40 q 471 76 399 40 q 607 206 543 111 l 642 179 q 501 37 586 89 q 310 -15 415 -15 z "},"ć":{"ha":665,"x_min":31,"x_max":760,"o":"m 310 -15 q 156 22 218 -15 q 63 118 94 58 q 31 246 31 178 q 64 390 31 319 q 155 517 97 460 q 287 608 213 574 q 442 642 361 642 q 554 622 506 642 q 631 569 603 601 q 658 496 658 536 q 634 430 658 461 q 554 399 610 399 q 483 422 507 399 q 458 476 458 446 q 464 508 458 493 q 475 538 469 524 q 481 565 481 553 q 467 592 481 585 q 433 600 453 600 q 390 589 411 600 q 348 550 368 578 q 308 471 328 522 q 270 340 289 419 q 232 146 251 261 q 247 65 222 89 q 331 40 272 40 q 471 76 399 40 q 607 206 543 111 l 642 179 q 501 37 586 89 q 310 -15 415 -15 m 360 728 l 574 956 q 634 1003 610 993 q 678 1014 658 1014 q 739 990 718 1014 q 760 933 760 967 q 744 889 760 907 q 689 851 729 871 l 446 728 l 360 728 z "},"č":{"ha":665,"x_min":31,"x_max":744,"o":"m 310 -15 q 156 22 218 -15 q 63 118 94 58 q 31 246 31 178 q 64 390 31 319 q 155 517 97 460 q 287 608 213 574 q 442 642 361 642 q 554 622 506 642 q 631 569 603 601 q 658 496 658 536 q 634 430 658 461 q 554 399 610 399 q 483 422 507 399 q 458 476 458 446 q 464 508 458 493 q 475 538 469 524 q 481 565 481 553 q 467 592 481 585 q 433 600 453 600 q 390 589 411 600 q 348 550 368 578 q 308 471 328 522 q 270 340 289 419 q 232 146 251 261 q 247 65 222 89 q 331 40 272 40 q 471 76 399 40 q 607 206 543 111 l 642 179 q 501 37 586 89 q 310 -15 415 -15 m 389 728 l 239 1006 l 299 1006 l 465 886 l 685 1006 l 744 1006 l 475 728 l 389 728 z "},"ç":{"ha":665,"x_min":31,"x_max":658,"o":"m 310 -15 q 156 22 218 -15 q 63 118 94 58 q 31 246 31 178 q 64 390 31 319 q 155 517 97 460 q 287 608 213 574 q 442 642 361 642 q 554 622 506 642 q 631 569 603 601 q 658 496 658 536 q 634 430 658 461 q 554 399 610 399 q 483 422 507 399 q 458 476 458 446 q 464 508 458 493 q 475 538 469 524 q 481 565 481 553 q 467 592 481 585 q 433 600 453 600 q 390 589 411 600 q 348 550 368 578 q 308 471 328 522 q 270 340 289 419 q 232 146 251 261 q 247 65 222 89 q 331 40 272 40 q 471 76 399 40 q 607 206 543 111 l 642 179 q 501 37 586 89 q 310 -15 415 -15 m 192 -326 q 122 -318 149 -326 q 85 -303 96 -310 l 108 -249 q 138 -259 115 -254 q 185 -264 161 -264 q 258 -246 231 -264 q 285 -194 285 -228 q 265 -156 285 -171 q 188 -139 244 -140 l 279 14 l 344 14 l 285 -92 l 311 -92 q 396 -116 367 -92 q 425 -182 425 -140 q 388 -263 425 -231 q 298 -311 351 -296 q 192 -326 244 -326 z "},"ĉ":{"ha":665,"x_min":31,"x_max":707,"o":"m 310 -15 q 156 22 218 -15 q 63 118 94 58 q 31 246 31 178 q 64 390 31 319 q 155 517 97 460 q 287 608 213 574 q 442 642 361 642 q 554 622 506 642 q 631 569 603 601 q 658 496 658 536 q 634 430 658 461 q 554 399 610 399 q 483 422 507 399 q 458 476 458 446 q 464 508 458 493 q 475 538 469 524 q 481 565 481 553 q 467 592 481 585 q 433 600 453 600 q 390 589 411 600 q 348 550 368 578 q 308 471 328 522 q 270 340 289 419 q 232 146 251 261 q 247 65 222 89 q 331 40 272 40 q 471 76 399 40 q 607 206 543 111 l 642 179 q 501 37 586 89 q 310 -15 415 -15 m 203 728 l 471 1006 l 557 1006 l 707 728 l 647 728 l 481 847 l 261 728 l 203 728 z "},"ċ":{"ha":665,"x_min":31,"x_max":658,"o":"m 310 -15 q 156 22 218 -15 q 63 118 94 58 q 31 246 31 178 q 64 390 31 319 q 155 517 97 460 q 287 608 213 574 q 442 642 361 642 q 554 622 506 642 q 631 569 603 601 q 658 496 658 536 q 634 430 658 461 q 554 399 610 399 q 483 422 507 399 q 458 476 458 446 q 464 508 458 493 q 475 538 469 524 q 481 565 481 553 q 467 592 481 585 q 433 600 453 600 q 390 589 411 600 q 348 550 368 578 q 308 471 328 522 q 270 340 289 419 q 232 146 251 261 q 247 65 222 89 q 331 40 272 40 q 471 76 399 40 q 607 206 543 111 l 642 179 q 501 37 586 89 q 310 -15 415 -15 m 444 742 q 367 775 400 742 q 333 853 333 808 q 367 932 333 899 q 444 965 400 965 q 524 932 490 965 q 557 853 557 899 q 524 775 557 808 q 444 742 490 742 z "},"d":{"ha":846,"x_min":50,"x_max":900,"o":"m 611 -15 q 524 13 557 -15 q 490 97 490 40 q 494 135 490 114 q 513 213 499 157 l 714 1047 l 900 1047 l 681 121 q 675 91 676 103 q 674 75 674 79 q 690 57 674 57 q 749 92 711 57 q 826 224 788 128 l 861 211 q 808 102 843 154 q 724 17 774 50 q 611 -15 675 -15 m 276 -15 q 166 14 218 -15 q 82 98 114 43 q 50 233 50 153 q 84 388 50 315 q 174 519 118 461 q 297 609 229 576 q 433 642 365 642 q 526 617 489 642 q 586 540 563 593 l 596 540 l 564 414 q 567 440 565 429 q 568 464 568 451 q 535 552 568 517 q 461 588 501 588 q 396 561 428 588 q 337 490 364 535 q 290 389 310 446 q 258 270 269 332 q 247 149 247 208 q 261 65 247 88 q 306 42 275 42 q 383 65 339 42 q 469 143 428 89 q 535 289 511 197 l 490 97 l 481 97 q 401 22 454 58 q 276 -15 349 -15 m 550 1006 l 550 1047 l 821 1047 l 821 1006 l 550 1006 z "},"ð":{"ha":810,"x_min":31,"x_max":871,"o":"m 335 -15 q 180 16 249 -15 q 71 107 111 47 q 31 249 31 167 q 66 396 31 326 q 162 518 101 465 q 299 601 222 571 q 456 632 375 632 q 538 623 500 632 q 599 599 575 614 l 604 600 q 607 633 606 621 q 608 668 608 644 q 544 899 608 810 q 365 1007 481 989 l 388 1047 q 561 1004 482 1043 q 699 897 640 965 q 790 740 757 829 q 822 546 822 650 q 787 340 822 440 q 686 160 751 240 q 531 32 621 79 q 335 -15 442 -15 m 365 33 q 449 59 414 33 q 513 145 485 85 q 568 310 542 206 q 588 400 579 353 q 596 506 596 447 q 558 555 586 533 q 489 576 531 576 q 391 538 435 576 q 316 438 347 499 q 267 307 285 376 q 250 176 250 238 q 261 99 250 131 q 298 50 272 67 q 365 33 324 33 m 369 774 l 351 833 l 856 1007 l 871 947 l 369 774 z "},"ď":{"ha":846,"x_min":50,"x_max":1188,"o":"m 611 -15 q 524 13 557 -15 q 490 97 490 40 q 494 135 490 114 q 513 213 499 157 l 714 1047 l 900 1047 l 681 121 q 675 91 676 103 q 674 75 674 79 q 690 57 674 57 q 749 92 711 57 q 826 224 788 128 l 861 211 q 808 102 843 154 q 724 17 774 50 q 611 -15 675 -15 m 276 -15 q 166 14 218 -15 q 82 98 114 43 q 50 233 50 153 q 84 388 50 315 q 174 519 118 461 q 297 609 229 576 q 433 642 365 642 q 526 617 489 642 q 586 540 563 593 l 596 540 l 564 414 q 567 440 565 429 q 568 464 568 451 q 535 552 568 517 q 461 588 501 588 q 396 561 428 588 q 337 490 364 535 q 290 389 310 446 q 258 270 269 332 q 247 149 247 208 q 261 65 247 88 q 306 42 275 42 q 383 65 339 42 q 469 143 428 89 q 535 289 511 197 l 490 97 l 481 97 q 401 22 454 58 q 276 -15 349 -15 m 550 1006 l 550 1047 l 821 1047 l 821 1006 l 550 1006 m 919 615 l 901 647 q 1062 756 1004 700 q 1119 864 1119 811 q 1113 894 1119 885 q 1099 903 1106 903 q 1081 889 1089 903 q 1059 861 1074 875 q 1013 847 1044 847 q 942 882 964 847 q 919 951 919 917 q 958 1033 919 1003 q 1044 1063 996 1063 q 1127 1035 1096 1063 q 1173 967 1158 1007 q 1188 894 1188 928 q 1117 743 1188 818 q 919 615 1047 668 z "},"đ":{"ha":846,"x_min":50,"x_max":933,"o":"m 611 -15 q 524 13 557 -15 q 490 97 490 40 q 494 135 490 114 q 513 213 499 157 l 714 1047 l 900 1047 l 681 121 q 675 91 676 103 q 674 75 674 79 q 690 57 674 57 q 749 92 711 57 q 826 224 788 128 l 861 211 q 808 102 843 154 q 724 17 774 50 q 611 -15 675 -15 m 276 -15 q 166 14 218 -15 q 82 98 114 43 q 50 233 50 153 q 84 388 50 315 q 174 519 118 461 q 297 609 229 576 q 433 642 365 642 q 526 617 489 642 q 586 540 563 593 l 596 540 l 564 414 q 567 440 565 429 q 568 464 568 451 q 535 552 568 517 q 461 588 501 588 q 396 561 428 588 q 337 490 364 535 q 290 389 310 446 q 258 270 269 332 q 247 149 247 208 q 261 65 247 88 q 306 42 275 42 q 383 65 339 42 q 469 143 428 89 q 535 289 511 197 l 490 97 l 481 97 q 401 22 454 58 q 276 -15 349 -15 m 550 1006 l 550 1047 l 821 1047 l 821 1006 l 550 1006 m 426 786 l 426 842 l 933 842 l 933 786 l 426 786 z "},"ḍ":{"ha":846,"x_min":50,"x_max":900,"o":"m 611 -15 q 524 13 557 -15 q 490 97 490 40 q 494 135 490 114 q 513 213 499 157 l 714 1047 l 900 1047 l 681 121 q 675 91 676 103 q 674 75 674 79 q 690 57 674 57 q 749 92 711 57 q 826 224 788 128 l 861 211 q 808 102 843 154 q 724 17 774 50 q 611 -15 675 -15 m 276 -15 q 166 14 218 -15 q 82 98 114 43 q 50 233 50 153 q 84 388 50 315 q 174 519 118 461 q 297 609 229 576 q 433 642 365 642 q 526 617 489 642 q 586 540 563 593 l 596 540 l 564 414 q 567 440 565 429 q 568 464 568 451 q 535 552 568 517 q 461 588 501 588 q 396 561 428 588 q 337 490 364 535 q 290 389 310 446 q 258 270 269 332 q 247 149 247 208 q 261 65 247 88 q 306 42 275 42 q 383 65 339 42 q 469 143 428 89 q 535 289 511 197 l 490 97 l 481 97 q 401 22 454 58 q 276 -15 349 -15 m 550 1006 l 550 1047 l 821 1047 l 821 1006 l 550 1006 m 301 -324 q 224 -290 257 -324 q 190 -212 190 -257 q 224 -133 190 -167 q 301 -100 257 -100 q 381 -133 347 -100 q 414 -212 414 -167 q 381 -290 414 -257 q 301 -324 347 -324 z "},"ǳ":{"ha":1532,"x_min":50,"x_max":1529,"o":"m 611 -15 q 524 13 557 -15 q 490 97 490 40 q 494 135 490 114 q 513 213 499 157 l 714 1047 l 900 1047 l 681 121 q 675 91 676 103 q 674 75 674 79 q 690 57 674 57 q 749 92 711 57 q 826 224 788 128 l 861 211 q 808 102 843 154 q 724 17 774 50 q 611 -15 675 -15 m 276 -15 q 166 14 218 -15 q 82 98 114 43 q 50 233 50 153 q 84 388 50 315 q 174 519 118 461 q 297 609 229 576 q 433 642 365 642 q 526 617 489 642 q 586 540 563 593 l 596 540 l 564 414 q 567 440 565 429 q 568 464 568 451 q 535 552 568 517 q 461 588 501 588 q 396 561 428 588 q 337 490 364 535 q 290 389 310 446 q 258 270 269 332 q 247 149 247 208 q 261 65 247 88 q 306 42 275 42 q 383 65 339 42 q 469 143 428 89 q 535 289 511 197 l 490 97 l 481 97 q 401 22 454 58 q 276 -15 349 -15 m 550 1006 l 550 1047 l 821 1047 l 821 1006 l 550 1006 m 911 -18 q 872 -3 886 -18 q 858 33 858 11 q 876 78 858 53 q 956 156 893 104 l 1319 463 l 1317 467 q 1211 444 1264 451 q 1121 438 1158 438 q 1064 440 1090 438 q 1010 453 1038 442 l 958 351 l 921 367 l 1042 625 l 1076 625 q 1157 605 1114 614 q 1246 590 1200 596 q 1339 582 1292 585 q 1433 579 1386 579 q 1448 589 1444 579 q 1454 610 1451 599 q 1465 632 1457 622 q 1493 642 1472 642 q 1529 611 1529 642 q 1521 583 1529 597 q 1494 554 1513 569 l 1067 197 l 1067 192 q 1199 184 1147 192 q 1281 167 1250 176 q 1333 151 1313 158 q 1372 143 1353 143 q 1416 161 1404 143 q 1428 189 1428 179 q 1413 206 1428 201 q 1380 215 1399 210 q 1347 231 1361 219 q 1332 269 1332 243 q 1353 317 1332 301 q 1399 332 1374 332 q 1454 303 1435 332 q 1474 225 1474 274 q 1445 111 1474 167 q 1366 19 1417 56 q 1249 -18 1315 -18 q 1148 3 1194 -18 q 1058 44 1101 24 q 969 65 1014 65 q 951 53 951 65 q 953 24 950 40 q 949 -6 956 7 q 911 -18 943 -18 z "},"ǆ":{"ha":1532,"x_min":50,"x_max":1600,"o":"m 611 -15 q 524 13 557 -15 q 490 97 490 40 q 494 135 490 114 q 513 213 499 157 l 714 1047 l 900 1047 l 681 121 q 675 91 676 103 q 674 75 674 79 q 690 57 674 57 q 749 92 711 57 q 826 224 788 128 l 861 211 q 808 102 843 154 q 724 17 774 50 q 611 -15 675 -15 m 276 -15 q 166 14 218 -15 q 82 98 114 43 q 50 233 50 153 q 84 388 50 315 q 174 519 118 461 q 297 609 229 576 q 433 642 365 642 q 526 617 489 642 q 586 540 563 593 l 596 540 l 564 414 q 567 440 565 429 q 568 464 568 451 q 535 552 568 517 q 461 588 501 588 q 396 561 428 588 q 337 490 364 535 q 290 389 310 446 q 258 270 269 332 q 247 149 247 208 q 261 65 247 88 q 306 42 275 42 q 383 65 339 42 q 469 143 428 89 q 535 289 511 197 l 490 97 l 481 97 q 401 22 454 58 q 276 -15 349 -15 m 550 1006 l 550 1047 l 821 1047 l 821 1006 l 550 1006 m 911 -18 q 872 -3 886 -18 q 858 33 858 11 q 876 78 858 53 q 956 156 893 104 l 1319 463 l 1317 467 q 1211 444 1264 451 q 1121 438 1158 438 q 1064 440 1090 438 q 1010 453 1038 442 l 958 351 l 921 367 l 1042 625 l 1076 625 q 1157 605 1114 614 q 1246 590 1200 596 q 1339 582 1292 585 q 1433 579 1386 579 q 1448 589 1444 579 q 1454 610 1451 599 q 1465 632 1457 622 q 1493 642 1472 642 q 1529 611 1529 642 q 1521 583 1529 597 q 1494 554 1513 569 l 1067 197 l 1067 192 q 1199 184 1147 192 q 1281 167 1250 176 q 1333 151 1313 158 q 1372 143 1353 143 q 1416 161 1404 143 q 1428 189 1428 179 q 1413 206 1428 201 q 1380 215 1399 210 q 1347 231 1361 219 q 1332 269 1332 243 q 1353 317 1332 301 q 1399 332 1374 332 q 1454 303 1435 332 q 1474 225 1474 274 q 1445 111 1474 167 q 1366 19 1417 56 q 1249 -18 1315 -18 q 1148 3 1194 -18 q 1058 44 1101 24 q 969 65 1014 65 q 951 53 951 65 q 953 24 950 40 q 949 -6 956 7 q 911 -18 943 -18 m 1244 728 l 1094 1006 l 1154 1006 l 1321 886 l 1540 1006 l 1600 1006 l 1331 728 l 1244 728 z "},"e":{"ha":700,"x_min":38,"x_max":671,"o":"m 317 -15 q 163 22 225 -15 q 69 118 101 58 q 38 246 38 178 q 72 390 38 319 q 163 518 106 461 q 294 608 221 575 q 447 642 368 642 q 562 619 511 642 q 642 558 613 597 q 671 468 671 518 q 637 371 671 415 q 535 299 603 326 q 367 272 467 272 q 292 275 332 272 q 220 282 251 278 q 181 288 189 286 l 188 336 q 240 324 211 326 q 324 322 269 322 q 431 344 389 322 q 494 405 474 367 q 514 489 514 443 q 494 568 514 536 q 435 600 474 600 q 386 583 411 600 q 335 517 361 565 q 285 380 310 469 q 239 146 260 290 q 254 65 229 89 q 338 40 279 40 q 478 76 406 40 q 614 206 550 111 l 649 179 q 508 37 593 89 q 317 -15 422 -15 z "},"é":{"ha":700,"x_min":38,"x_max":776,"o":"m 317 -15 q 163 22 225 -15 q 69 118 101 58 q 38 246 38 178 q 72 390 38 319 q 163 518 106 461 q 294 608 221 575 q 447 642 368 642 q 562 619 511 642 q 642 558 613 597 q 671 468 671 518 q 637 371 671 415 q 535 299 603 326 q 367 272 467 272 q 292 275 332 272 q 220 282 251 278 q 181 288 189 286 l 188 336 q 240 324 211 326 q 324 322 269 322 q 431 344 389 322 q 494 405 474 367 q 514 489 514 443 q 494 568 514 536 q 435 600 474 600 q 386 583 411 600 q 335 517 361 565 q 285 380 310 469 q 239 146 260 290 q 254 65 229 89 q 338 40 279 40 q 478 76 406 40 q 614 206 550 111 l 649 179 q 508 37 593 89 q 317 -15 422 -15 m 376 728 l 590 956 q 651 1003 626 993 q 694 1014 675 1014 q 756 990 735 1014 q 776 933 776 967 q 761 889 776 907 q 706 851 746 871 l 463 728 l 376 728 z "},"ĕ":{"ha":700,"x_min":38,"x_max":701,"o":"m 317 -15 q 163 22 225 -15 q 69 118 101 58 q 38 246 38 178 q 72 390 38 319 q 163 518 106 461 q 294 608 221 575 q 447 642 368 642 q 562 619 511 642 q 642 558 613 597 q 671 468 671 518 q 637 371 671 415 q 535 299 603 326 q 367 272 467 272 q 292 275 332 272 q 220 282 251 278 q 181 288 189 286 l 188 336 q 240 324 211 326 q 324 322 269 322 q 431 344 389 322 q 494 405 474 367 q 514 489 514 443 q 494 568 514 536 q 435 600 474 600 q 386 583 411 600 q 335 517 361 565 q 285 380 310 469 q 239 146 260 290 q 254 65 229 89 q 338 40 279 40 q 478 76 406 40 q 614 206 550 111 l 649 179 q 508 37 593 89 q 317 -15 422 -15 m 424 728 q 283 776 335 728 q 231 904 231 824 q 233 938 231 919 q 239 974 235 956 l 300 974 q 299 965 299 969 q 299 954 299 960 q 340 885 299 907 q 444 864 381 864 q 566 889 513 864 q 635 974 619 914 l 701 974 q 649 847 688 903 q 554 760 611 792 q 424 728 497 728 z "},"ě":{"ha":700,"x_min":38,"x_max":761,"o":"m 317 -15 q 163 22 225 -15 q 69 118 101 58 q 38 246 38 178 q 72 390 38 319 q 163 518 106 461 q 294 608 221 575 q 447 642 368 642 q 562 619 511 642 q 642 558 613 597 q 671 468 671 518 q 637 371 671 415 q 535 299 603 326 q 367 272 467 272 q 292 275 332 272 q 220 282 251 278 q 181 288 189 286 l 188 336 q 240 324 211 326 q 324 322 269 322 q 431 344 389 322 q 494 405 474 367 q 514 489 514 443 q 494 568 514 536 q 435 600 474 600 q 386 583 411 600 q 335 517 361 565 q 285 380 310 469 q 239 146 260 290 q 254 65 229 89 q 338 40 279 40 q 478 76 406 40 q 614 206 550 111 l 649 179 q 508 37 593 89 q 317 -15 422 -15 m 406 728 l 256 1006 l 315 1006 l 482 886 l 701 1006 l 761 1006 l 492 728 l 406 728 z "},"ê":{"ha":700,"x_min":38,"x_max":724,"o":"m 317 -15 q 163 22 225 -15 q 69 118 101 58 q 38 246 38 178 q 72 390 38 319 q 163 518 106 461 q 294 608 221 575 q 447 642 368 642 q 562 619 511 642 q 642 558 613 597 q 671 468 671 518 q 637 371 671 415 q 535 299 603 326 q 367 272 467 272 q 292 275 332 272 q 220 282 251 278 q 181 288 189 286 l 188 336 q 240 324 211 326 q 324 322 269 322 q 431 344 389 322 q 494 405 474 367 q 514 489 514 443 q 494 568 514 536 q 435 600 474 600 q 386 583 411 600 q 335 517 361 565 q 285 380 310 469 q 239 146 260 290 q 254 65 229 89 q 338 40 279 40 q 478 76 406 40 q 614 206 550 111 l 649 179 q 508 37 593 89 q 317 -15 422 -15 m 219 728 l 488 1006 l 574 1006 l 724 728 l 664 728 l 497 847 l 278 728 l 219 728 z "},"ế":{"ha":700,"x_min":38,"x_max":701,"o":"m 317 -15 q 163 22 225 -15 q 69 118 101 58 q 38 246 38 178 q 72 390 38 319 q 163 518 106 461 q 294 608 221 575 q 447 642 368 642 q 562 619 511 642 q 642 558 613 597 q 671 468 671 518 q 637 371 671 415 q 535 299 603 326 q 367 272 467 272 q 292 275 332 272 q 220 282 251 278 q 181 288 189 286 l 188 336 q 240 324 211 326 q 324 322 269 322 q 431 344 389 322 q 494 405 474 367 q 514 489 514 443 q 494 568 514 536 q 435 600 474 600 q 386 583 411 600 q 335 517 361 565 q 285 380 310 469 q 239 146 260 290 q 254 65 229 89 q 338 40 279 40 q 478 76 406 40 q 614 206 550 111 l 649 179 q 508 37 593 89 q 317 -15 422 -15 m 203 735 l 422 890 l 500 890 l 671 735 l 606 735 l 450 797 l 267 735 l 203 735 m 257 936 l 501 1088 q 567 1122 542 1111 q 621 1132 592 1132 q 681 1111 660 1132 q 701 1064 701 1090 q 684 1019 701 1042 q 628 990 667 997 l 353 936 l 257 936 z "},"ệ":{"ha":700,"x_min":38,"x_max":724,"o":"m 317 -15 q 163 22 225 -15 q 69 118 101 58 q 38 246 38 178 q 72 390 38 319 q 163 518 106 461 q 294 608 221 575 q 447 642 368 642 q 562 619 511 642 q 642 558 613 597 q 671 468 671 518 q 637 371 671 415 q 535 299 603 326 q 367 272 467 272 q 292 275 332 272 q 220 282 251 278 q 181 288 189 286 l 188 336 q 240 324 211 326 q 324 322 269 322 q 431 344 389 322 q 494 405 474 367 q 514 489 514 443 q 494 568 514 536 q 435 600 474 600 q 386 583 411 600 q 335 517 361 565 q 285 380 310 469 q 239 146 260 290 q 254 65 229 89 q 338 40 279 40 q 478 76 406 40 q 614 206 550 111 l 649 179 q 508 37 593 89 q 317 -15 422 -15 m 228 -324 q 150 -290 183 -324 q 117 -212 117 -257 q 150 -133 117 -167 q 228 -100 183 -100 q 307 -133 274 -100 q 340 -212 340 -167 q 307 -290 340 -257 q 228 -324 274 -324 m 219 728 l 488 1006 l 574 1006 l 724 728 l 664 728 l 497 847 l 278 728 l 219 728 z "},"ề":{"ha":700,"x_min":38,"x_max":736,"o":"m 317 -15 q 163 22 225 -15 q 69 118 101 58 q 38 246 38 178 q 72 390 38 319 q 163 518 106 461 q 294 608 221 575 q 447 642 368 642 q 562 619 511 642 q 642 558 613 597 q 671 468 671 518 q 637 371 671 415 q 535 299 603 326 q 367 272 467 272 q 292 275 332 272 q 220 282 251 278 q 181 288 189 286 l 188 336 q 240 324 211 326 q 324 322 269 322 q 431 344 389 322 q 494 405 474 367 q 514 489 514 443 q 494 568 514 536 q 435 600 474 600 q 386 583 411 600 q 335 517 361 565 q 285 380 310 469 q 239 146 260 290 q 254 65 229 89 q 338 40 279 40 q 478 76 406 40 q 614 206 550 111 l 649 179 q 508 37 593 89 q 317 -15 422 -15 m 208 735 l 428 890 l 506 890 l 676 735 l 611 735 l 456 797 l 272 735 l 208 735 m 640 928 l 365 982 q 309 1011 326 989 q 292 1056 292 1033 q 313 1103 292 1082 q 372 1124 333 1124 q 427 1113 401 1124 q 492 1079 453 1103 l 736 928 l 640 928 z "}}}
